<svg id="r1NhFeod2z" data-name="Layer 1" xmlns="http://www.w3.org/2000/svg" xmlns:xlink="http://www.w3.org/1999/xlink" viewBox="0 0 600 600"><style>@-webkit-keyframes H1ZN3FesO3G_ryXsli_3f_Animation{0%{-webkit-transform: translate(0px, -20px);transform: translate(0px, -20px);}25%{-webkit-transform: translate(0px, 0px);transform: translate(0px, 0px);}50%{-webkit-transform: translate(0px, -20px);transform: translate(0px, -20px);}75%{-webkit-transform: translate(0px, 0px);transform: translate(0px, 0px);}100%{-webkit-transform: translate(0px, -20px);transform: translate(0px, -20px);}}@keyframes H1ZN3FesO3G_ryXsli_3f_Animation{0%{-webkit-transform: translate(0px, -20px);transform: translate(0px, -20px);}25%{-webkit-transform: translate(0px, 0px);transform: translate(0px, 0px);}50%{-webkit-transform: translate(0px, -20px);transform: translate(0px, -20px);}75%{-webkit-transform: translate(0px, 0px);transform: translate(0px, 0px);}100%{-webkit-transform: translate(0px, -20px);transform: translate(0px, -20px);}}@-webkit-keyframes ByAl3Kxs_nM_BkYHZiO3G_Animation{0%{-webkit-transform: translate(0px, -15px);transform: translate(0px, -15px);}25%{-webkit-transform: translate(0px, 0px);transform: translate(0px, 0px);}50%{-webkit-transform: translate(0px, -15px);transform: translate(0px, -15px);}75%{-webkit-transform: translate(0px, 0px);transform: translate(0px, 0px);}100%{-webkit-transform: translate(0px, -15px);transform: translate(0px, -15px);}}@keyframes ByAl3Kxs_nM_BkYHZiO3G_Animation{0%{-webkit-transform: translate(0px, -15px);transform: translate(0px, -15px);}25%{-webkit-transform: translate(0px, 0px);transform: translate(0px, 0px);}50%{-webkit-transform: translate(0px, -15px);transform: translate(0px, -15px);}75%{-webkit-transform: translate(0px, 0px);transform: translate(0px, 0px);}100%{-webkit-transform: translate(0px, -15px);transform: translate(0px, -15px);}}@-webkit-keyframes H1txnYgj_nz_Byk0QoOhz_Animation{0%{-webkit-transform: rotate(3deg);transform: rotate(3deg);}25%{-webkit-transform: rotate(0deg);transform: rotate(0deg);}50%{-webkit-transform: rotate(3deg);transform: rotate(3deg);}75%{-webkit-transform: rotate(0deg);transform: rotate(0deg);}100%{-webkit-transform: rotate(3deg);transform: rotate(3deg);}}@keyframes H1txnYgj_nz_Byk0QoOhz_Animation{0%{-webkit-transform: rotate(3deg);transform: rotate(3deg);}25%{-webkit-transform: rotate(0deg);transform: rotate(0deg);}50%{-webkit-transform: rotate(3deg);transform: rotate(3deg);}75%{-webkit-transform: rotate(0deg);transform: rotate(0deg);}100%{-webkit-transform: rotate(3deg);transform: rotate(3deg);}}@-webkit-keyframes H1txnYgj_nz_Sk4Qmsd2z_Animation{0%{-webkit-transform: translate(0px, -5px);transform: translate(0px, -5px);}25%{-webkit-transform: translate(0px, 0px);transform: translate(0px, 0px);}50%{-webkit-transform: translate(0px, -5px);transform: translate(0px, -5px);}75%{-webkit-transform: translate(0px, 0px);transform: translate(0px, 0px);}100%{-webkit-transform: translate(0px, -5px);transform: translate(0px, -5px);}}@keyframes H1txnYgj_nz_Sk4Qmsd2z_Animation{0%{-webkit-transform: translate(0px, -5px);transform: translate(0px, -5px);}25%{-webkit-transform: translate(0px, 0px);transform: translate(0px, 0px);}50%{-webkit-transform: translate(0px, -5px);transform: translate(0px, -5px);}75%{-webkit-transform: translate(0px, 0px);transform: translate(0px, 0px);}100%{-webkit-transform: translate(0px, -5px);transform: translate(0px, -5px);}}@-webkit-keyframes HkvhKgjuhf_H1Kcfi_hf_Animation{0%{-webkit-transform: rotate(3deg);transform: rotate(3deg);}25%{-webkit-transform: rotate(0deg);transform: rotate(0deg);}50%{-webkit-transform: rotate(3deg);transform: rotate(3deg);}75%{-webkit-transform: rotate(0deg);transform: rotate(0deg);}100%{-webkit-transform: rotate(3deg);transform: rotate(3deg);}}@keyframes HkvhKgjuhf_H1Kcfi_hf_Animation{0%{-webkit-transform: rotate(3deg);transform: rotate(3deg);}25%{-webkit-transform: rotate(0deg);transform: rotate(0deg);}50%{-webkit-transform: rotate(3deg);transform: rotate(3deg);}75%{-webkit-transform: rotate(0deg);transform: rotate(0deg);}100%{-webkit-transform: rotate(3deg);transform: rotate(3deg);}}@-webkit-keyframes HkvhKgjuhf_Sk9Gzj_2G_Animation{0%{-webkit-transform: translate(0px, 5px);transform: translate(0px, 5px);}25%{-webkit-transform: translate(0px, 0px);transform: translate(0px, 0px);}50%{-webkit-transform: translate(0px, 5px);transform: translate(0px, 5px);}75%{-webkit-transform: translate(0px, 0px);transform: translate(0px, 0px);}100%{-webkit-transform: translate(0px, 5px);transform: translate(0px, 5px);}}@keyframes HkvhKgjuhf_Sk9Gzj_2G_Animation{0%{-webkit-transform: translate(0px, 5px);transform: translate(0px, 5px);}25%{-webkit-transform: translate(0px, 0px);transform: translate(0px, 0px);}50%{-webkit-transform: translate(0px, 5px);transform: translate(0px, 5px);}75%{-webkit-transform: translate(0px, 0px);transform: translate(0px, 0px);}100%{-webkit-transform: translate(0px, 5px);transform: translate(0px, 5px);}}@-webkit-keyframes r1L3Kxo_2G_B1lV4jd3G_Animation{0%{-webkit-transform: translate(8px, 0px);transform: translate(8px, 0px);}25%{-webkit-transform: translate(0px, 0px);transform: translate(0px, 0px);}50%{-webkit-transform: translate(8px, 0px);transform: translate(8px, 0px);}75%{-webkit-transform: translate(0px, 0px);transform: translate(0px, 0px);}100%{-webkit-transform: translate(8px, 0px);transform: translate(8px, 0px);}}@keyframes r1L3Kxo_2G_B1lV4jd3G_Animation{0%{-webkit-transform: translate(8px, 0px);transform: translate(8px, 0px);}25%{-webkit-transform: translate(0px, 0px);transform: translate(0px, 0px);}50%{-webkit-transform: translate(8px, 0px);transform: translate(8px, 0px);}75%{-webkit-transform: translate(0px, 0px);transform: translate(0px, 0px);}100%{-webkit-transform: translate(8px, 0px);transform: translate(8px, 0px);}}#r1NhFeod2z *{-webkit-animation-duration: 12s;animation-duration: 12s;-webkit-animation-iteration-count: infinite;animation-iteration-count: infinite;-webkit-animation-timing-function: cubic-bezier(0, 0, 1, 1);animation-timing-function: cubic-bezier(0, 0, 1, 1);}#r1L3Kxo_2G{fill: #51e1f2;}#HyOhYls_nf{fill: #a899b5;-webkit-transform:  translate(240.81px, -162.49px) rotate(27.77deg);transform:  translate(240.81px, -162.49px) rotate(27.77deg);}#H1K2Kgod2f{fill: #ece5f2;-webkit-transform:  translate(236px, -157.09px) rotate(27.77deg);transform:  translate(236px, -157.09px) rotate(27.77deg);}#H15hYxi_nM{fill: #cdbfd9;-webkit-transform:  translate(187.62px, -200.14px) rotate(27.77deg);transform:  translate(187.62px, -200.14px) rotate(27.77deg);}#SJi2KxoOnG{fill: #cdbfd9;-webkit-transform:  translate(-256.22px, 601.26px) rotate(-61.77deg);transform:  translate(-256.22px, 601.26px) rotate(-61.77deg);}#rk23KlsdhG{fill: #79f7ff;-webkit-transform:  translate(-114.96px, 598.12px) rotate(-62.23deg);transform:  translate(-114.96px, 598.12px) rotate(-62.23deg);}#Sk0nKeiOhM{fill: #27cdd7;}#rkyxhFeo_3z{fill: #27cdd7;}#r1xg3Fesunf{fill: #27cdd7;}#HyZx3Klodnf{fill: #27cdd7;-webkit-transform:  translate(257.06px, -109.63px) rotate(28.23deg);transform:  translate(257.06px, -109.63px) rotate(28.23deg);}#HJMentlod3f{fill: #27cdd7;-webkit-transform:  translate(268.24px, -122.22px) rotate(28.23deg);transform:  translate(268.24px, -122.22px) rotate(28.23deg);}#HJXg2FlsOnG{fill: #27cdd7;-webkit-transform:  translate(280.02px, -134.82px) rotate(28.23deg);transform:  translate(280.02px, -134.82px) rotate(28.23deg);}#BkNe2tgouhG{fill: #27cdd7;-webkit-transform:  translate(291.69px, -147.62px) rotate(28.23deg);transform:  translate(291.69px, -147.62px) rotate(28.23deg);}#ByHgntgjdhG{fill: #fff;font-size: 36.25px;font-family: OpenSans-ExtraBold, Open Sans;font-weight: 700;-webkit-transform:  translate(429.52px, 331.55px) rotate(27.31deg);transform:  translate(429.52px, 331.55px) rotate(27.31deg);}#BJPl3txju3z{fill: #fff;opacity: 0.2;}#Bydl2KljOhz{fill: #fff;opacity: 0.2;}#rJcgnYgjOnM{fill: #98b5ca;-webkit-transform:  translate(249.22px, -77.3px) rotate(28.92deg);transform:  translate(249.22px, -77.3px) rotate(28.92deg);}#SJsenYls_nM{fill: #98b5ca;}#rkhe3tlju2f{fill: #98b5ca;}#r1Te3Fgsu3G{fill: #ffd633;}#HykbnYxjuhf{fill: #5bbdd3;}#HJxW2Kls_3f{fill: #5bbdd3;}#ry--2KxjuhM{fill: url(#linear-gradient);}#H1zWnFgiO2M{fill: url(#linear-gradient-2);}#S1m-3Yxsu3M{fill: url(#linear-gradient-3);}#ry4WhtejunG{-webkit-mask: url(#mask);mask: url(#mask);}#ByBWnKli_nz{fill: #46c1ce;}#r18bnYls_3f{fill: url(#linear-gradient-4);}#S1D-hYliO3G{-webkit-mask: url(#mask-2);mask: url(#mask-2);}#rJu-2Fgou2z{fill: url(#linear-gradient-5);}#HyFZhFgiOhf{fill: url(#linear-gradient-6);}#BJ9-hKloO2M{fill: #ffdec2;}#rks-hYeiOnz{-webkit-mask: url(#mask-3);mask: url(#mask-3);}#S1hZ3Yxi_nf{fill: url(#linear-gradient-7);}#ry6Z3KlsO2G{fill: #af5214;}#BkC-3tgjuhG{fill: #af5214;}#SJkfhYgsd3M{fill: #ce7132;}#S1gGhtxounG{fill: #6ea1b7;}#rk-M3tgiu3z{fill: #ce7132;}#rkfM3FljO2G{fill: #6ea1b7;}#H17M2txsdhf{fill: #af5214;}#HyNM2tgsu2G{fill: #ce7132;}#rkHz2YxsOnG{fill: #116684;}#H1LGhYejO3M{fill: #277fbe;}#H1wM2tli_nz{fill: url(#linear-gradient-8);}#H1dG2Fxiu3G{-webkit-mask: url(#mask-4);mask: url(#mask-4);}#rytfhYgsdnz{fill: url(#linear-gradient-9);}#rJ5z2tlsd3f{fill: url(#linear-gradient-10);}#H1sG2Yxiu3z{fill: #135d77;opacity: 0.8;}#rknz2FgjOhG{fill: #135d77;opacity: 0.8;}#Hy6M2Fejuhz{fill: #135d77;opacity: 0.8;}#rJCGnYgod2f{fill: #157187;opacity: 0.5;}#Hk17nKesdnf{fill: #157187;opacity: 0.5;}#BkxQnYejdhz{fill: #157187;opacity: 0.5;}#BkbQhtxid3z{fill: url(#linear-gradient-11);}#S1zQhtgju3G{fill: #91ddc5;}#Hkmm3Kgjd3f{fill: url(#linear-gradient-12);}#SkEQ2FxjOnf{fill: url(#linear-gradient-13);}#rkrXhKgsd2M{-webkit-mask: url(#mask-5);mask: url(#mask-5);}#SyUQntgju3M{fill: #46c1ce;}#H1DXntxidhG{fill: #6adcef;}#B1uQ2KeidhM{-webkit-mask: url(#mask-6);mask: url(#mask-6);}#HJYXhtxidnf{fill: #46c1ce;}#rJcQ2Fxsd2f{fill: #6adcef;}#BysQ3Fgouhz{fill: #0c7b87;opacity: 0.3;}#Hk2X3Ygodhf{fill: #5bbdd3;}#BJTQhFxs_nz{fill: #46c1ce;}#BJAX2Ygjd3G{fill: #46c1ce;}#r1JV2KxiOnM{fill: #fff;opacity: 0.5;}#SyxN2Fgo_hG{fill: #5bbdd3;}#BkfV3KgiO3G{fill: #7393aa;}#rk7NhYxodhM{fill: url(#linear-gradient-14);}#S1N4nYljOhG{fill: #7393aa;}#Skr4hYxsu3z{fill: #557185;-webkit-transform:  translate(-62.59px, 356.15px) rotate(-72.8deg);transform:  translate(-62.59px, 356.15px) rotate(-72.8deg);}#rkUVhtxj_2G{fill: url(#linear-gradient-15);}#Hyw43Keod2z{fill: url(#linear-gradient-16);}#Hy_E3Yxsdnf{fill: url(#linear-gradient-17);}#HJtNnYliunz{fill: url(#linear-gradient-18);}#r1L3Kxo_2G_B1lV4jd3G{-webkit-animation-name: r1L3Kxo_2G_B1lV4jd3G_Animation;animation-name: r1L3Kxo_2G_B1lV4jd3G_Animation;-webkit-transform-origin: 50% 50%;transform-origin: 50% 50%;transform-box: fill-box;-webkit-transform: translate(8px, 0px);transform: translate(8px, 0px);}#HkvhKgjuhf_Sk9Gzj_2G{-webkit-animation-name: HkvhKgjuhf_Sk9Gzj_2G_Animation;animation-name: HkvhKgjuhf_Sk9Gzj_2G_Animation;-webkit-transform-origin: 50% 50%;transform-origin: 50% 50%;transform-box: fill-box;-webkit-transform: translate(0px, 5px);transform: translate(0px, 5px);}#HkvhKgjuhf_H1Kcfi_hf{-webkit-animation-name: HkvhKgjuhf_H1Kcfi_hf_Animation;animation-name: HkvhKgjuhf_H1Kcfi_hf_Animation;-webkit-transform-origin: 50% 50%;transform-origin: 50% 50%;transform-box: fill-box;-webkit-transform: rotate(3deg);transform: rotate(3deg);}#H1txnYgj_nz_Sk4Qmsd2z{-webkit-animation-name: H1txnYgj_nz_Sk4Qmsd2z_Animation;animation-name: H1txnYgj_nz_Sk4Qmsd2z_Animation;-webkit-transform-origin: 50% 50%;transform-origin: 50% 50%;transform-box: fill-box;-webkit-transform: translate(0px, -5px);transform: translate(0px, -5px);}#H1txnYgj_nz_Byk0QoOhz{-webkit-animation-name: H1txnYgj_nz_Byk0QoOhz_Animation;animation-name: H1txnYgj_nz_Byk0QoOhz_Animation;-webkit-transform-origin: 50% 50%;transform-origin: 50% 50%;transform-box: fill-box;-webkit-transform: rotate(3deg);transform: rotate(3deg);}#ByAl3Kxs_nM_BkYHZiO3G{-webkit-animation-name: ByAl3Kxs_nM_BkYHZiO3G_Animation;animation-name: ByAl3Kxs_nM_BkYHZiO3G_Animation;-webkit-transform-origin: 50% 50%;transform-origin: 50% 50%;transform-box: fill-box;-webkit-transform: translate(0px, -15px);transform: translate(0px, -15px);}#H1ZN3FesO3G_ryXsli_3f{-webkit-animation-name: H1ZN3FesO3G_ryXsli_3f_Animation;animation-name: H1ZN3FesO3G_ryXsli_3f_Animation;-webkit-transform-origin: 50% 50%;transform-origin: 50% 50%;transform-box: fill-box;-webkit-transform: translate(0px, -20px);transform: translate(0px, -20px);}</style><defs><linearGradient id="linear-gradient" x1="345.32" y1="257.77" x2="431" y2="257.77" gradientTransform="translate(64.7 -55.57) rotate(32.43)" gradientUnits="userSpaceOnUse"><stop offset="0" stop-color="#6accef"/><stop offset="0.31" stop-color="#5dd7f1"/><stop offset="1" stop-color="#44ecf4"/></linearGradient><linearGradient id="linear-gradient-2" x1="373.11" y1="314.43" x2="415.26" y2="314.43" xlink:href="#linear-gradient"/><linearGradient id="linear-gradient-3" x1="275.66" y1="290.18" x2="388.88" y2="290.18" gradientTransform="translate(64.7 -55.57) rotate(32.43)" gradientUnits="userSpaceOnUse"><stop offset="0" stop-color="#5bd4e1"/><stop offset="0.16" stop-color="#55d7e5"/><stop offset="1" stop-color="#38e5f7"/></linearGradient><mask id="mask" x="129.02" y="275.59" width="159.25" height="141.69" maskUnits="userSpaceOnUse"><g id="_Group_" data-name="&lt;Group&gt;"><path id="body" class="cls-1" d="M263.25,275.59l-5.94,25,21.79,6.06a4.66,4.66,0,0,0,3.55-3.46c.85-3.06,5.62-21,5.62-21Z"/></g></mask><linearGradient id="linear-gradient-4" x1="161.42" y1="132.09" x2="426.49" y2="132.09" gradientTransform="translate(64.7 -55.57) rotate(32.43)" gradientUnits="userSpaceOnUse"><stop offset="0" stop-color="#11b3f2"/><stop offset="0.26" stop-color="#15bcf4"/><stop offset="0.7" stop-color="#1fd6fa"/><stop offset="0.99" stop-color="#27ebff"/></linearGradient><mask id="mask-2" x="109.49" y="80.89" width="265.11" height="279.79" maskUnits="userSpaceOnUse"><g id="_Group_2" data-name="&lt;Group&gt;"><circle id="helmet" class="cls-1" cx="242.05" cy="213.44" r="132.54"/></g></mask><linearGradient id="linear-gradient-5" x1="306.6" y1="218.2" x2="339.73" y2="275.58" gradientTransform="translate(64.7 -55.57) rotate(32.43)" gradientUnits="userSpaceOnUse"><stop offset="0" stop-color="#c09d73"/><stop offset="0.99" stop-color="#e5c3aa"/></linearGradient><linearGradient id="linear-gradient-6" x1="165.39" y1="319.33" x2="253.73" y2="319.33" gradientTransform="matrix(1, 0, 0, 1, 0, 0)" xlink:href="#linear-gradient-5"/><mask id="mask-3" x="137.06" y="177.89" width="169.52" height="160.91" maskUnits="userSpaceOnUse"><g id="_Group_3" data-name="&lt;Group&gt;"><polygon id="face" class="cls-1" points="170.05 180.03 137.06 301.53 200.57 321.52 269.87 338.8 306.58 217.85 170.05 180.03"/></g></mask><linearGradient id="linear-gradient-7" x1="211.34" y1="182.25" x2="311.33" y2="182.25" gradientTransform="translate(64.7 -55.57) rotate(32.43)" gradientUnits="userSpaceOnUse"><stop offset="0" stop-color="#c99566"/><stop offset="0.33" stop-color="#cf9d6f"/><stop offset="0.88" stop-color="#e0b389"/><stop offset="0.99" stop-color="#e4b88f"/></linearGradient><linearGradient id="linear-gradient-8" x1="220.76" y1="-7.14" x2="301.05" y2="131.93" gradientTransform="translate(64.7 -55.57) rotate(32.43)" gradientUnits="userSpaceOnUse"><stop offset="0" stop-color="#277fbe"/><stop offset="0.53" stop-color="#2aa1cc"/><stop offset="1" stop-color="#2cbad6"/></linearGradient><mask id="mask-4" x="150.91" y="37.07" width="193.63" height="194.19" maskUnits="userSpaceOnUse"><g id="_Group_4" data-name="&lt;Group&gt;"><path id="_Path_" data-name="&lt;Path&gt;" class="cls-1" d="M321.16,216.67s10-33.53,10.74-37.22-6.12-6.42-6.12-6.42,10.23-39,16.7-68.48c3.29-15-14.4-17.44-14.4-17.44S251.25,66,216.5,55.58c-11.36-3.42-14.17,10.3-14.17,10.3l-21.4,67.92,1.39.38c-3.14-.84-5.13-1.36-5.65-1.47-5-1.13-6.34,3.81-6.34,3.81s-9.65,32.6-10.3,36.53,4.81,5.86,4.81,5.86l149,41C318.51,221.14,321.16,216.67,321.16,216.67Z"/></g></mask><linearGradient id="linear-gradient-9" x1="169.69" y1="61.93" x2="369.08" y2="61.93" gradientTransform="translate(64.7 -55.57) rotate(32.43)" gradientUnits="userSpaceOnUse"><stop offset="0" stop-color="#116684"/><stop offset="0.4" stop-color="#0e6d8d"/><stop offset="0.99" stop-color="#087da4"/></linearGradient><linearGradient id="linear-gradient-10" x1="159.98" y1="123.66" x2="272.88" y2="123.66" gradientTransform="matrix(1, 0, 0, 1, 0, 0)" xlink:href="#linear-gradient-9"/><linearGradient id="linear-gradient-11" x1="181.22" y1="180.34" x2="181.22" y2="295.41" gradientTransform="matrix(1, 0, 0, 1, 0, 0)" xlink:href="#linear-gradient-7"/><linearGradient id="linear-gradient-12" x1="145.87" y1="411.54" x2="228.21" y2="329.2" gradientUnits="userSpaceOnUse"><stop offset="0" stop-color="#3886a2"/><stop offset="0.41" stop-color="#3899b8" stop-opacity="0.56"/><stop offset="0.81" stop-color="#37aacb" stop-opacity="0.16"/><stop offset="1" stop-color="#37b1d3" stop-opacity="0"/></linearGradient><linearGradient id="linear-gradient-13" x1="170.46" y1="384.63" x2="242.67" y2="384.63" gradientTransform="matrix(1, 0, 0, 1, 0, 0)" xlink:href="#linear-gradient-3"/><mask id="mask-5" x="110.07" y="323.12" width="76.32" height="48.66" maskUnits="userSpaceOnUse"><g id="_Group_5" data-name="&lt;Group&gt;"><path id="_Path_2" data-name="&lt;Path&gt;" class="cls-1" d="M178.18,344.64c-2.35,8.32-8,9.47-11.46,9.7-3.24.22-6.24-1.15-12.15-2.47-5.38-1.2-10.35,1.21-13,3.18-8.6,6.44-8.34,17.52-22.46,16s-7.88-32.08,14.75-41.3,41,4.12,41,4.12S180.24,337.36,178.18,344.64Z"/><path id="_Path_3" data-name="&lt;Path&gt;" class="cls-1" d="M178.18,344.64c-3,7.78-8.93,9.85-12.83,9.5-6.74-.59-16-6.2-24.27,1.35-8,7.23-8.08,19.43-22,15.53-16.67-4.68-9.35-35.06,13.81-42.87,22.54-7.61,35.95-.76,39.53.54C175.86,331.23,180.91,337.59,178.18,344.64Z"/></g></mask><mask id="mask-6" x="127.99" y="369.41" width="44.24" height="74" maskUnits="userSpaceOnUse"><g id="_Group_6" data-name="&lt;Group&gt;"><path id="_Path_4" data-name="&lt;Path&gt;" class="cls-1" d="M138.37,443.29c10,1.4,10.74-10.64,10.9-14.69s6.2-17.9,12-23.27c7.05-6.54,10.49-18,8.78-23.23C168.23,376.64,158.66,371,152,375c-5.77,3.47-18,19.86-19.78,26.39s-4.09,28.14-4.09,28.14S126.15,441.58,138.37,443.29Z"/></g></mask><linearGradient id="linear-gradient-14" x1="224.3" y1="263.1" x2="337.16" y2="283" gradientTransform="translate(7.07 -18.16) rotate(4.22)" gradientUnits="userSpaceOnUse"><stop offset="0" stop-color="#99b6c9"/><stop offset="0.49" stop-color="#99b6bc"/><stop offset="1" stop-color="#99b6a9"/><stop offset="1" stop-color="#98b7ad"/><stop offset="1" stop-color="#95bab9"/><stop offset="1" stop-color="#90bfcd"/><stop offset="1" stop-color="#89c5e8"/><stop offset="1" stop-color="#85c9f8"/></linearGradient><linearGradient id="linear-gradient-15" x1="230.91" y1="239.98" x2="320.81" y2="239.98" gradientUnits="userSpaceOnUse"><stop offset="0" stop-color="#4faaff"/><stop offset="0" stop-color="#4faafe"/><stop offset="0" stop-color="#3c99da"/><stop offset="0" stop-color="#2c8bbb"/><stop offset="0" stop-color="#1e7e9f"/><stop offset="0" stop-color="#137489"/><stop offset="0" stop-color="#0a6c78"/><stop offset="0" stop-color="#04676d"/><stop offset="0" stop-color="#016466"/><stop offset="0" stop-color="#006364"/><stop offset="0" stop-color="#03686b"/><stop offset="0" stop-color="#036b72"/><stop offset="0" stop-color="#027285"/><stop offset="0" stop-color="#017ea3"/><stop offset="0" stop-color="#0181ab"/><stop offset="0.74" stop-color="#48a2d2"/><stop offset="1" stop-color="#63aee0"/></linearGradient><linearGradient id="linear-gradient-16" x1="295.24" y1="247.85" x2="277.77" y2="237.76" gradientUnits="userSpaceOnUse"><stop offset="0" stop-color="#0089bb"/><stop offset="1" stop-color="#017a95"/><stop offset="1" stop-color="#0181ab"/><stop offset="1" stop-color="#017ea3"/><stop offset="1" stop-color="#027285"/><stop offset="1" stop-color="#036b72"/><stop offset="1" stop-color="#03686b"/><stop offset="1" stop-color="#006364"/><stop offset="1" stop-color="#016466"/><stop offset="1" stop-color="#04676d"/><stop offset="1" stop-color="#0a6c78"/><stop offset="1" stop-color="#137489"/><stop offset="1" stop-color="#1e7e9f"/><stop offset="1" stop-color="#2c8bbb"/><stop offset="1" stop-color="#3c99da"/><stop offset="1" stop-color="#4faafe"/><stop offset="1" stop-color="#4faaff"/></linearGradient><linearGradient id="linear-gradient-17" x1="394.82" y1="-388.83" x2="434.98" y2="-388.83" gradientTransform="matrix(0.87, 0.49, 0.49, -0.87, 81.59, -310.73)" gradientUnits="userSpaceOnUse"><stop offset="0" stop-color="#009188"/><stop offset="0" stop-color="#008881"/><stop offset="0" stop-color="#007774"/><stop offset="0" stop-color="#006c6b"/><stop offset="0" stop-color="#006565"/><stop offset="0" stop-color="#006364"/><stop offset="0.28" stop-color="#02656b"/><stop offset="0.68" stop-color="#086b7e"/><stop offset="1" stop-color="#0e7292"/></linearGradient><linearGradient id="linear-gradient-18" x1="297.22" y1="244.29" x2="318.29" y2="256.45" xlink:href="#linear-gradient-15"/></defs><title>Production_a</title><g id="BJr2Yxj_2z"><g id="r1L3Kxo_2G_B1lV4jd3G" data-animator-group="true" data-animator-type="0"><path id="r1L3Kxo_2G" d="M33.89,461.71c-1.6-.72-5.74,4.17-5.89,5s9.87,21.65,12.74,23.37,14.75-1.34,16.55-2.54c2.59,2,23.73,21.15,23.73,21.15.58,2-1.29,13.88,5.9,18.12,5,3,16.11-.79,16.83-2.08s-7.75-6.7-9.35-8.71c-1.28-1.61-2-6.33.72-9.35s5.3-1.62,8.17,0,8.37,8.24,9.81,7.38,5.46-11.94-1.3-17.84-17.26-4.31-19.41-1.72c-1.51-1.58-19.64-17-21.71-19.71C71,472.18,75.91,459,73,454.85s-25-9-29.29-4.64c-4.52,4.61,14.33,12.57,14.82,14.67,1.1,4.76-2.34,12-8.85,10.14C46,474.12,37.06,463.13,33.89,461.71Z"/></g><g id="HkvhKgjuhf_Sk9Gzj_2G" data-animator-group="true" data-animator-type="0"><g id="HkvhKgjuhf_H1Kcfi_hf" data-animator-group="true" data-animator-type="1"><g id="HkvhKgjuhf"><rect x="378.7" y="256.25" width="140.63" height="299" rx="11.14" ry="11.14" id="HyOhYls_nf"/><rect x="365.38" y="249.23" width="140.63" height="299" rx="9.72" ry="9.72" id="H1K2Kgod2f"/><rect x="481.52" y="275.69" width="34.09" height="7.34" rx="1.02" ry="1.02" id="H15hYxi_nM"/><ellipse id="SJi2KxoOnG" cx="374.55" cy="514.83" rx="10.57" ry="8.2"/><rect x="318.45" y="323.98" width="239.15" height="140.63" id="rk23KlsdhG"/><g id="BkahYeo_2f"><path d="M497,399.25l-96.38-50.11c-5.19-2.7-7.49-10.29-4.72-15.59l32.2-60.39c2.76-5.3,10-7.65,15.18-4.94l96.27,50.72a10.8,10.8,0,0,1,4.41,14.56l-32.49,61A10.79,10.79,0,0,1,497,399.25Z" id="Sk0nKeiOhM"/><path d="M451.58,485.51l-33.46-18.06c-6-2.1-8-8.7-5.26-14L444.45,393a10.44,10.44,0,0,1,14.3-4.49l34.48,17.28a10.89,10.89,0,0,1,4.6,14.66L466.24,480.9C464.58,484.09,457.54,488.62,451.58,485.51Z" id="rkyxhFeo_3z"/><path d="M389.36,452.52l-33.45-18.06c-6-2.1-8-8.7-5.27-14L382.23,360a10.45,10.45,0,0,1,14.31-4.49L431,372.76a10.9,10.9,0,0,1,4.61,14.66L404,447.91C402.36,451.1,395.32,455.63,389.36,452.52Z" id="r1xg3Fesunf"/><rect x="333.95" y="440.49" width="25.06" height="31.49" rx="3.49" ry="3.49" id="HyZx3Klodnf"/><rect x="364.57" y="456.41" width="25.06" height="31.49" rx="3.49" ry="3.49" id="HJMentlod3f"/><rect x="395.51" y="473.54" width="25.06" height="31.49" rx="3.49" ry="3.49" id="HJXg2FlsOnG"/><rect x="426.78" y="490.34" width="25.06" height="31.49" rx="3.49" ry="3.49" id="BkNe2tgouhG"/></g><text id="ByHgntgjdhG">&lt; / &gt;</text><g id="H1IlnFxsd2M"><polygon points="532.94 364.99 326.97 454.83 346.02 416.86 555.3 323 532.94 364.99" id="BJPl3txju3z"/><path d="M557.65,295.39,363.91,384.23l41.06-78,95-42.6,54.5,28.7A12.14,12.14,0,0,1,557.65,295.39Z" id="Bydl2KljOhz"/></g></g></g></g><g id="H1txnYgj_nz_Sk4Qmsd2z" data-animator-group="true" data-animator-type="0"><g id="H1txnYgj_nz_Byk0QoOhz" data-animator-group="true" data-animator-type="1"><g id="H1txnYgj_nz"><rect x="263.08" y="418.25" width="22.8" height="52.62" rx="3.18" ry="3.18" id="rJcgnYgjOnM"/><polygon points="289.13 429.27 279.63 424.02 318.24 353.79 328.53 357.95 289.13 429.27" id="SJsenYls_nM"/><path d="M317.65,357.88l0-.89c-.09-2.85,1.12-5.12,4-5.21l30.53-1.15a5.18,5.18,0,0,1,5.35,5l0,.89a5.21,5.21,0,0,1-5,5.36l-29.5,1A5.19,5.19,0,0,1,317.65,357.88Z" id="rkhe3tlju2f"/><path d="M403.09,348.34l-35.37-7.66a5.1,5.1,0,0,0-6.18,5.15l.61,17.71a5.1,5.1,0,0,0,6.51,4.73l34.76-10A5.1,5.1,0,0,0,403.09,348.34Z" id="r1Te3Fgsu3G"/></g></g></g><g id="ByAl3Kxs_nM_BkYHZiO3G" data-animator-group="true" data-animator-type="0"><g id="ByAl3Kxs_nM"><polygon id="HykbnYxjuhf" points="398.46 100.46 348.84 137.18 352.02 141.97 400.85 103.59 398.46 100.46"/><polygon id="HJxW2Kls_3f" data-name="antenae" points="161.72 40.84 179.41 99.98 185 98.61 165.48 39.65 161.72 40.84"/><path id="ry--2KxjuhM" data-name="&lt;Path&gt;" d="M231.45,331.84s17.85,21.07,26.65,31.76c8,9.74,24.7,13.69,28.72,19.95,7.72,12-4.1,21.69-12.81,20.5-6.25-.85-22.14-9.87-31.92-20.5-9.38-10.21-30.93-25.71-30.93-25.71Z"/><path id="H1zWnFgiO2M" data-name="&lt;Path&gt;" d="M234.18,381.6s13.81,28.75,14,30.85a45.56,45.56,0,0,1-4.43,23.3c-3.71,7.11-14.56,30.64-31.24,18.09-12.57-9.46,2.77-19.6,6.41-28.18s-1.76-25.47-1.76-25.47Z"/><path id="S1m-3Yxsu3M" data-name="body" d="M157.62,312.21,136.32,402s76.71,21.65,78.17,21.77c4.44.27,9.69-1.45,12.74-12.43s20.16-75.27,20.16-75.27Z"/><g id="ry4WhtejunG"><path id="ByBWnKli_nz" d="M188.51,330l-17.08,72.61s-1.11,7.37,7.39,11.05c5.53,2.38.81,3.62.81,3.62L129,404,149.73,301.4l102.18,31.53-5.06,19.38s-12.67,6.61-38.64-.43-30.85-9.6-30.85-9.6"/></g><path id="r18bnYls_3f" data-name="helmet" d="M353.91,284.52c-39.25,61.78-121.67,80.06-183.45,40.8S90.93,204.15,130.18,142.37A132.53,132.53,0,1,1,353.91,284.52Z"/><g id="S1D-hYliO3G"><polygon id="rJu-2Fgou2z" points="176.39 291.74 160.88 337.92 238.07 360.68 249.31 312.55 176.39 291.74"/></g><path d="M175.31,293s-9.51,27.81-9.92,29c14.74,10.78,42.35,24.09,76,23.78,4.09-12.8,12.34-36.22,12.34-36.22Z" id="HyFZhFgiOhf"/><polygon id="BJ9-hKloO2M" data-name="face" points="170.05 180.03 142.1 282.96 205.99 302.59 275.43 323.12 306.58 217.85 170.05 180.03"/><g id="rks-hYeiOnz"><polygon id="S1hZ3Yxi_nf" points="205.99 302.59 236.73 196.23 166.76 177.89 142.1 282.96 205.99 302.59"/></g><polygon id="ry6Z3KlsO2G" points="214.84 217.69 208.11 241.25 254.12 253.83 260.7 230.48 214.84 217.69"/><polygon id="BkC-3tgjuhG" points="269.9 232.29 263.24 255.92 309.26 268.45 315.92 244.81 269.9 232.29"/><polygon id="SJkfhYgsd3M" data-name="eyebrow_left" points="224.37 220.24 217.8 243.82 260.07 255.36 266.59 231.7 224.37 220.24"/><polygon id="S1gGhtxounG" points="243.68 258.41 230.76 255.16 232.54 247.93 245.48 251.47 243.68 258.41"/><polygon id="rk-M3tgiu3z" data-name="eyebrow_right" points="278.88 234.61 272.09 258.37 314.64 269.79 319.57 245.69 278.88 234.61"/><polygon id="rkfM3FljO2G" points="285.87 269.31 272.95 266.05 274.62 259 287.69 262.56 285.87 269.31"/><path id="H17M2txsdhf" d="M231.9,269.43l44.43,12s7.79,2.16,5.73,9.49-11.31,37.78-11.31,37.78l-17.29-4.76,6.66-28.8a3.37,3.37,0,0,0-2.25-2.81c-2-.6-12.63-3.42-12.63-3.42s-2.23-.61-2.72,1.16l-7.77,28.49-19.53-5.37,10.34-39.14S228.67,269.51,231.9,269.43Z"/><path id="HyNM2tgsu2G" d="M241.35,272l44.43,12s7.79,2.15,5.73,9.49-10.59,38.15-10.59,38.15l-19-5.27,7.69-28.66a3.39,3.39,0,0,0-2.25-2.82c-2-.6-12.63-3.41-12.63-3.41s-2.23-.61-2.71,1.16-7.29,28.8-7.29,28.8l-19.53-5.37L235,276.59S238.12,272.06,241.35,272Z"/><polygon id="rkHz2YxsOnG" data-name="&lt;Path&gt;" points="249.94 66.74 254.75 50.23 272.1 54.45 267.11 71.65 249.94 66.74"/><polygon id="H1LGhYejO3M" data-name="&lt;Path&gt;" points="286.83 77.29 291.15 60.19 272.1 54.45 267.11 71.65 286.83 77.29"/><path id="H1wM2tli_nz" data-name="&lt;Path&gt;" d="M321.16,216.67s10-33.53,10.74-37.22-6.12-6.42-6.12-6.42,10.23-39,16.7-68.48c3.29-15-14.4-17.44-14.4-17.44S251.25,66,216.5,55.58c-11.36-3.42-14.17,10.3-14.17,10.3l-21.4,67.92,1.39.38c-3.14-.84-5.13-1.36-5.65-1.47-5-1.13-6.34,3.81-6.34,3.81s-9.65,32.6-10.3,36.53,4.81,5.86,4.81,5.86l149,41C318.51,221.14,321.16,216.67,321.16,216.67Z"/><g id="H1dG2Fxiu3G"><path id="rytfhYgsdnz" d="M262.57,82.47c-5.19,19.33-20,67.43-20,67.43l-2.24-.45s-3.75-1-5.3,3.38c-2.49,7.12-9.86,32.76-9.86,32.76s-1.24,5.45,3.81,6.92c7.7,2.26,98.24,27,98.24,27l-8.66,11.78L150.91,183.77l14.94-64.87,41-81.83L309.23,62l-4,5.83-32.78,3.87S265.6,71.2,262.57,82.47Z"/></g><path d="M202.92,64.11,181,134l-3.93-1.09s-4.92-1.27-6.49,3.25c-.91,2.63-8.17,29.12-10.48,36.91-.35,1.19-.58,4.42,4.8,6,5.21,1.58,47.83,13.15,47.83,13.15s4.66-4.22,12.88-3.4c-.86-.8-.71-1.36-.39-3.07.79-2.86,10.47-32.59,11.08-34.47.78-2.42,2.07-2.37,6.33-1.22,1-3.29,20.34-68.28,21.55-70.93,1.49-3.25,3.34-7.19,8.67-7.29-2.74-.88-56-16.1-56-16.1S207.19,51.27,202.92,64.11Z" id="rJ5z2tlsd3f"/><path id="H1sG2Yxiu3z" data-name="&lt;Path&gt;" d="M225.4,57.83S214.52,59,210.9,68.68s-22,67.21-22,67.21-1.89-.44-2.88-.69c-4-1-5.54,2-6.38,4.32-1.79,4.93-10.47,35.06-10.47,35.06s-1.34,4.65,2.3,5.81,7.06,2,7.06,2-2.37-2.44-2.26-4.79,8.16-27.33,10.73-36c.55-1.83,1.51-5.35,4.25-4.69,1,.24,4.58,1.3,4.58,1.3l21.49-67.73s6.16-12.23,15.76-10.28S225.4,57.83,225.4,57.83Z"/><path id="rknz2FgjOhG" data-name="&lt;Path&gt;" d="M241.21,62.34s-10.88,1.16-14.5,10.85-21.64,66.72-21.64,66.72-1.89-.44-2.89-.69c-4-1-5.54,2-6.37,4.32C194,148.46,185,179.09,185,179.09s-1.34,4.65,2.3,5.81,7.06,1.95,7.06,1.95-2.37-2.44-2.26-4.79,8.47-27.82,11-36.44c.54-1.83,1.51-5.35,4.24-4.69,1,.24,4.58,1.3,4.58,1.3L233.17,75s6.16-12.23,15.76-10.28S241.21,62.34,241.21,62.34Z"/><path id="Hy6M2Fejuhz" data-name="&lt;Path&gt;" d="M258.81,67.3s-10.88,1.16-14.5,10.85S223,144.38,223,144.38s-1.89-.44-2.89-.7c-4-1-5.53,2-6.37,4.33-1.79,4.92-11.1,36-11.1,36s-1.34,4.65,2.3,5.81,7.06,1.95,7.06,1.95-2.37-2.44-2.26-4.79,8.79-28.31,11.36-36.93c.55-1.83,1.51-5.36,4.25-4.7,1,.25,4.57,1.3,4.57,1.3L250.77,80s6.16-12.23,15.76-10.28S258.81,67.3,258.81,67.3Z"/><path id="rJCGnYgod2f" data-name="&lt;Path&gt;" d="M274.49,71.86s3.31,5.38,2.66,10.12c-.44,3.27-20.42,71.62-20.42,71.62l2.08.8s3.06,1.94,2.43,4.65c-.47,2-11.37,39.57-11.37,39.57-1.11,2.26-6.64,1.68-6.64,1.68l11.26,3.25s3.2-.57,3.82-2.83C258.78,199,269,162.78,269,162.78c.88-3.1,1.35-5.51-2.14-6.69l-2.44-.85,20-70.81c.63-4.38-1.22-10-3.63-10.84A57.36,57.36,0,0,0,274.49,71.86Z"/><path id="Hk17nKesdnf" data-name="&lt;Path&gt;" d="M297.65,79s3.31,5.37,2.66,10.11c-.45,3.28-20.43,71.62-20.43,71.62l2.08.81s3.06,1.93,2.44,4.65c-.47,2-11.37,39.56-11.37,39.56-1.11,2.26-3.54,1.26-5.6,1.11s10.26,3,10.26,3,3.16.29,3.78-2c.47-1.69,10.73-37.94,10.73-37.94.88-3.11,1.35-5.52-2.14-6.7l-2.45-.85,20.05-70.8c.62-4.39-1.23-10-3.64-10.84A54.56,54.56,0,0,0,297.65,79Z"/><path id="BkxQnYejdhz" data-name="&lt;Path&gt;" d="M323.22,85.53s3.31,5.38,2.66,10.12c-.44,3.27-20.42,71.62-20.42,71.62l2.08.8s3.06,1.94,2.43,4.65c-.47,2-11.37,39.57-11.37,39.57-1.11,2.26-3.51,1.78-5.56,1.62s9.87,2.91,9.87,2.91,3.51-.17,4.13-2.43c.47-1.68,10.73-37.94,10.73-37.94.88-3.11,1.35-5.52-2.14-6.69l-2.44-.85,20-70.81c.63-4.39-1.22-9.95-3.63-10.84A57.36,57.36,0,0,0,323.22,85.53Z"/><polygon points="169.96 180.34 142.1 283.13 180.13 295.41 220.34 194.33 169.96 180.34" id="BkbQhtxid3z"/><polygon id="S1zQhtgju3G" points="270.58 169.65 264.53 191.32 298.68 200.89 304.64 179.89 270.58 169.65"/><path d="M156.84,315.41,136.32,402s73.79,20.56,77.34,21.58,10-2.87,11.94-8.06S246.32,345.1,245,346s-31.66-1.93-43.22-6C192.81,336.88,172.24,328.7,156.84,315.41Z" id="Hkmm3Kgjd3f"/><path d="M184.46,345.22s-14,55.43-14,56.87,1.7,9.78,9.47,12.11c6.81,2,25,6.54,33.73,9.36,8.06,2.6,11.94-6.12,13.88-11.93,1.47-4.42,15.13-57.89,15.13-57.89s-16.36,2.86-27.47,0C208.45,352,184.46,345.22,184.46,345.22Z" id="SkEQ2FxjOnf"/><g id="rkrXhKgsd2M"><path id="SyUQntgju3M" data-name="&lt;Path&gt;" d="M153.17,323.12s13.46,4.54,12.36,17c-1,11.22-18.66,12.85-18.66,12.85l30.64,5.17,8.88-33.25Z"/></g><path id="H1DXntxidhG" data-name="&lt;Path&gt;" d="M177.65,344.27c-2.35,8.33-8.27,10.31-12.17,10-6.85-.63-15.74-6.25-23.83.83s-11.41,23.75-25.27,19.85c-16.68-4.69-7.31-37,15.32-46.21s40.54,0,40.54,0S179.71,337,177.65,344.27Z"/><g id="B1uQ2KeidhM"><path id="HJYXhtxidnf" data-name="&lt;Path&gt;" d="M140.92,386.73s10.3-2.65,15.48,3.17,4.48,15.85,4.48,15.85l11.36-13.57L169,377.47l-16.5-8.06Z"/></g><path id="rJcQ2Fxsd2f" data-name="&lt;Path&gt;" d="M147.07,448.4c10,1.4,10.74-10.64,10.89-14.7s-2.21-21.95,2.92-27.95c7.92-9.27,10.78-18.38,9.12-23.6-1.49-4.66-13-10.34-18.67-6.66s-18.27,20.9-20,27.44-2.4,21.81-1.36,29.15C130.91,438.71,134.84,446.68,147.07,448.4Z"/><path id="BysQ3Fgouhz" d="M139.58,263.11a144.36,144.36,0,0,1,54.7-162.3,121.58,121.58,0,0,0-36.93,199A144,144,0,0,1,139.58,263.11Z"/><circle id="Hk2X3Ygodhf" cx="162.5" cy="37.07" r="7.27"/><path d="M156.67,324.79s12.91,1.42,16,3.06a15.82,15.82,0,0,1,6.32,6.32c2.17,4,1.35,13.33-3.55,17.23s-12.34,2.77-12.34,2.77l-9.71-2.38s5-2.76,6.57-4.23a14.78,14.78,0,0,0,3.89-15.72C162.78,328.82,156.67,324.79,156.67,324.79Z" id="BJTQhFxs_nz"/><path d="M139.86,388.15s3.65-6.78,6.76-9.74c1.3-1.24,5.13-4.7,9.31-5.42,4.8-.83,9.93,1.46,13.09,6.8s.86,12.83-.41,15.68-7.73,10.37-7.73,10.37.13-8.09-1.58-11c-2.55-4.31-5.49-8.48-11-8.51C145.3,386.33,139.86,388.15,139.86,388.15Z" id="BJAX2Ygjd3G"/><path id="r1JV2KxiOnM" d="M332.41,128.92a137.22,137.22,0,0,1-82,208.65,124.09,124.09,0,0,0,82-208.65Z"/><circle id="SyxN2Fgo_hG" data-name="antenae_tip" cx="403.25" cy="99.33" r="7.3"/></g></g><g id="H1ZN3FesO3G_ryXsli_3f" data-animator-group="true" data-animator-type="0"><g id="H1ZN3FesO3G" data-name="Mask"><path d="M263.35,350.39,187,330.07A15.48,15.48,0,0,1,175.78,311l32.13-112.34c2.35-8.22,11.24-13.08,19.75-10.82L304,208.18a15.47,15.47,0,0,1,11.21,19L283.1,339.58C280.75,347.79,271.86,352.66,263.35,350.39Z" id="BkfV3KgiO3G"/><path d="M284.77,356.09l-76.36-20.32a15.49,15.49,0,0,1-11.21-19.06l32.13-112.34c2.35-8.21,11.24-13.08,19.75-10.81l76.36,20.32a15.47,15.47,0,0,1,11.21,19.05L304.52,345.28C302.17,353.49,293.28,358.36,284.77,356.09Z" id="rk7NhYxodhM"/><path d="M210.19,231.6l-35.79-9.52a5.49,5.49,0,0,1-4-6.76l3.44-12a5.73,5.73,0,0,1,7-3.83L216.66,209a5.49,5.49,0,0,1,4,6.76l-3.44,12A5.74,5.74,0,0,1,210.19,231.6Z" id="S1N4nYljOhG"/><ellipse cx="210.25" cy="220.52" rx="6.64" ry="4.88" id="Skr4hYxsu3z"/><path d="M304.43,260.53l-64-17a12.47,12.47,0,0,1-9-15.35h0a13,13,0,0,1,15.92-8.71l64,17a12.47,12.47,0,0,1,9,15.35h0A13,13,0,0,1,304.43,260.53Z" id="rkUVhtxj_2G"/><polygon points="292.69 231.51 303.08 234.28 280.31 254.11 269.93 251.34 292.69 231.51" id="Hyw43Keod2z"/><path d="M254.82,247.33l-13.88-3.7c-7.24-2.06-11.26-8.14-9.6-15.15A12.8,12.8,0,0,1,247,219.35l30.52,8.11Z" id="Hy_E3Yxsdnf"/><path d="M304.74,260.67l-14.66-4,22.41-19.82a12.36,12.36,0,0,1,8.1,14.39C319.36,258,311.61,262.44,304.74,260.67Z" id="HJtNnYliunz"/></g></g></g></svg>