<svg xmlns="http://www.w3.org/2000/svg" viewBox="0 0 426 95" fill="none"><path d="M129.976 54.6059L417.106 38.5242" stroke="white" stroke-width="8"/><path d="M98.0858 53.1322L385.216 37.0505" stroke="white" stroke-width="8"/><path d="M98.078 42.5995L385.208 26.5178" stroke="white" stroke-width="8"/><path d="M353.562 72.4443L141.653 56.8516" stroke="white" stroke-width="8"/><path d="M227.805 71.8143L15.8955 56.2217" stroke="white" stroke-width="8"/><path d="M35.9061 44.916L323.036 28.8343" stroke="white" stroke-width="8"/><path d="M399.117 74.6564L188.198 59.0628" stroke="white" stroke-width="8"/><path d="M273.367 74.0274L62.4482 58.4338" stroke="white" stroke-width="8"/><path d="M98.0624 28.3027L385.192 12.221" stroke="white" stroke-width="8"/><path d="M353.562 58.1492L141.653 42.5565" stroke="white" stroke-width="8"/><path d="M227.812 57.5204L15.9033 41.9278" stroke="white" stroke-width="8"/><path d="M35.8905 30.6211L323.02 14.5394" stroke="white" stroke-width="8"/><path d="M399.101 60.3607L188.183 44.767" stroke="white" stroke-width="8"/><path d="M273.351 59.7327L62.4325 44.139" stroke="white" stroke-width="8"/><path d="M107.219 65.1616L394.349 49.0799" stroke="white" stroke-width="8"/><path d="M107.211 53.8757L394.341 37.7941" stroke="white" stroke-width="8"/><path d="M75.3202 53.1553L362.45 37.0737" stroke="white" stroke-width="8"/><path d="M75.3045 38.8586L362.435 22.7769" stroke="white" stroke-width="8"/><path d="M370.398 68.6651L158.489 53.0725" stroke="white" stroke-width="8"/><path d="M244.656 68.0356L32.7471 52.4429" stroke="white" stroke-width="8"/><path d="M13.117 41.1763L300.247 25.0947" stroke="white" stroke-width="8"/><path d="M13.1483 70.2083L300.278 54.1266" stroke="white" stroke-width="8"/><path d="M415.953 70.8782L205.034 55.2846" stroke="white" stroke-width="8"/><path d="M290.187 70.2484L79.2685 54.6548" stroke="white" stroke-width="8"/><path d="M129.966 48.6937L417.799 53.1991" stroke="white" stroke-width="8"/><path d="M98.0601 47.2183L385.893 51.7237" stroke="white" stroke-width="8"/><path d="M98.0601 36.6852L385.893 41.1906" stroke="white" stroke-width="8"/><path d="M353.534 66.5307L141.535 71.5259" stroke="white" stroke-width="8"/><path d="M98.0445 22.3904L385.878 26.8958" stroke="white" stroke-width="8"/><path d="M129.045 19.3904L416.878 23.8958" stroke="white" stroke-width="8"/><path d="M353.518 52.2356L141.519 57.2308" stroke="white" stroke-width="8"/><path d="M227.776 51.6065L15.7768 56.6017" stroke="white" stroke-width="8"/><path d="M35.857 24.7084L323.69 29.2138" stroke="white" stroke-width="8"/><path d="M399.323 54.4484L187.324 59.4436" stroke="white" stroke-width="8"/><path d="M273.573 53.819L61.5737 58.8142" stroke="white" stroke-width="8"/><path d="M115.006 54.6041L425.762 44.1881" stroke="white" stroke-width="8"/><path d="M95.1237 53.1316L405.879 42.7155" stroke="white" stroke-width="8"/><path d="M95.1081 42.5976L405.863 32.1815" stroke="white" stroke-width="8"/><path d="M355.713 72.4376L126.805 62.5504" stroke="white" stroke-width="8"/><path d="M229.963 71.8083L1.0546 61.9211" stroke="white" stroke-width="8"/><path d="M32.9362 44.9148L343.692 34.4987" stroke="white" stroke-width="8"/><path d="M401.525 74.6498L172.617 64.7626" stroke="white" stroke-width="8"/><path d="M275.76 74.0206L46.8515 64.1333" stroke="white" stroke-width="8"/><path d="M95.1002 28.302L405.856 17.8859" stroke="white" stroke-width="8"/><path d="M355.705 58.1422L126.797 48.255" stroke="white" stroke-width="8"/><path d="M229.959 57.513L24.3818 47.8323" stroke="white" stroke-width="8"/><path d="M263.385 57.4803L34.4765 47.5931" stroke="white" stroke-width="8"/><path d="M32.9127 30.619L343.668 20.203" stroke="white" stroke-width="8"/><path d="M401.51 60.3544L172.601 50.4671" stroke="white" stroke-width="8"/><path d="M275.752 59.7249L46.8437 49.8377" stroke="white" stroke-width="8"/><path d="M112.999 48.4794L423.651 60.3137" stroke="white" stroke-width="8"/><path d="M95.1164 47.0058L405.768 58.8402" stroke="white" stroke-width="8"/><path d="M95.1086 36.4714L405.76 48.3058" stroke="white" stroke-width="8"/><path d="M355.713 66.3118L126.919 78.6748" stroke="white" stroke-width="8"/><path d="M95.093 22.1756L405.744 34.01" stroke="white" stroke-width="8"/><path d="M355.698 52.0167L126.904 64.3797" stroke="white" stroke-width="8"/><path d="M229.955 51.3874L1.16165 63.7504" stroke="white" stroke-width="8"/><path d="M32.9211 24.4949L343.573 36.3292" stroke="white" stroke-width="8"/><path d="M90.7499 80.929L328.309 54.0154" stroke="white" stroke-width="8"/><path d="M32.7818 73.532L343.754 70.515" stroke="white" stroke-width="8"/><path d="M401.502 54.2297L172.709 66.5927" stroke="white" stroke-width="8"/><path d="M275.752 53.5997L46.9585 65.9627" stroke="white" stroke-width="8"/><path d="M95.1123 56.2276L406.159 57.1408" stroke="white" stroke-width="8"/><path d="M63.2295 54.7531L374.277 55.6663" stroke="white" stroke-width="8"/><path d="M63.2217 44.2208L374.269 45.1339" stroke="white" stroke-width="8"/><path d="M63.206 29.925L374.253 30.8382" stroke="white" stroke-width="8"/><path d="M144.297 19.5637L352.173 4.3757" stroke="white" stroke-width="8"/><path d="M379.196 59.7117L150.092 61.1542" stroke="white" stroke-width="8"/><path d="M253.454 59.0822L24.3502 60.5247" stroke="white" stroke-width="8"/><path d="M26.2607 33.6013L312.074 33.1553" stroke="white" stroke-width="8"/><path d="M37.7089 18.5503L180.331 25.9238" stroke="white" stroke-width="8"/><path d="M424.977 61.9238L195.874 63.3663" stroke="white" stroke-width="8"/><path d="M299.243 61.2947L70.1392 62.7371" stroke="white" stroke-width="8"/></svg>