<?xml version="1.0" encoding="UTF-8"?>
<svg width="316px" height="139px" viewBox="0 0 316 139" version="1.1" xmlns="http://www.w3.org/2000/svg" xmlns:xlink="http://www.w3.org/1999/xlink">
    <!-- Generator: Sketch 57.1 (83088) - https://sketch.com -->
    <title>Shape</title>
    <desc>Created with Sketch.</desc>
    <g id="Page-1" stroke="none" stroke-width="1" fill="none" fill-rule="evenodd">
        <g id="Custom-Software-Development-New" transform="translate(-1008.000000, -926.000000)" fill="#ECFCF9" fill-rule="nonzero">
            <g id="features-box-one" transform="translate(-10.000000, 574.000000)">
                <g id="one" transform="translate(1018.000000, 306.000000)">
                    <g id="Rectangle">
                        <path d="M-104.821935,-73.0485194 C-70.9734244,-50.1544732 -61.0023258,-17.7595967 -54.5304544,20.7721798 C-46.6034027,67.838793 -34.8090823,113.962142 -14.1194775,156.704514 C-0.530246156,184.826289 17.4471745,220.085053 44.0707437,238.529846 C74.8333663,259.838527 120.476197,249.360338 152.95446,239.973154 C201.258516,226.011707 251.35182,204.026831 294.922293,177.416551 C312.027738,166.972456 321.732714,161.358329 338.458793,173.552577 C340.831246,175.257271 343.843526,177.694984 347.104941,175.984608 C349.613287,174.671993 351.634685,171.194416 353.599462,167.944132 C357.873336,160.757892 362.70092,153.918244 368.03802,147.487799 C372.890508,141.703203 379,134.390064 379,126.332541 C379,121.042306 376.423708,117.32039 374.243769,114.541738 C370.450109,109.694724 362.121042,95.2730087 354.177004,98.5289751 C347.461659,101.284898 341.289883,107.114953 334.925593,111.342595 C318.199514,122.485614 300.329675,132.242149 282.584403,141.191794 C222.967313,171.268286 136.783275,207.538502 76.4301009,159.187685 C34.1845779,125.332454 6.05486889,80.5955896 -3.83129695,27.926214 C-10.4503851,-7.35527835 -14.6290737,-42.5344891 -33.3595643,-73.7872203 C-40.375005,-85.4871064 -49.7798856,-95.010666 -61.3647053,-101.482823 C-73.1873366,-108.074308 -90.9042971,-110.870007 -103.593242,-104.091005 C-114.617506,-98.1813976 -114.560884,-80.3275646 -104.821935,-73.0485194 Z" id="Shape" transform="translate(133.500000, 71.500000) rotate(-360.000000) translate(-133.500000, -71.500000) "></path>
                    </g>
                </g>
            </g>
        </g>
    </g>
</svg>