<?xml version="1.0" encoding="UTF-8"?>
<svg width="316px" height="139px" viewBox="0 0 316 139" version="1.1" xmlns="http://www.w3.org/2000/svg" xmlns:xlink="http://www.w3.org/1999/xlink">
    <!-- Generator: Sketch 57.1 (83088) - https://sketch.com -->
    <title>Shape</title>
    <desc>Created with Sketch.</desc>
    <g id="Page-1" stroke="none" stroke-width="1" fill="none" fill-rule="evenodd">
        <g id="Custom-Software-Development-New" transform="translate(-1007.000000, -711.000000)" fill="#F2EEFF" fill-rule="nonzero">
            <g id="features-box-one" transform="translate(-10.000000, 574.000000)">
                <g id="one" transform="translate(1017.000000, 91.000000)">
                    <g id="Rectangle">
                        <path d="M-105.748839,-72.7564457 C-71.5556385,-49.6710844 -61.4830013,-17.0054986 -54.9452248,21.8482704 C-46.9374496,69.3081979 -35.0230241,115.816979 -14.1227309,158.916529 C-0.39511628,187.273306 17.7653739,222.82671 44.6600588,241.425639 C75.7359464,262.912386 121.843572,252.346636 154.652571,242.881008 C203.448521,228.802891 254.05194,206.634298 298.066104,179.801648 C315.345739,169.270276 325.149544,163.609235 342.04595,175.905384 C344.442562,177.624324 347.485517,180.082408 350.780145,178.357738 C353.314033,177.034154 355.356016,173.527517 357.3408,170.250072 C361.658197,163.00378 366.534942,156.106975 371.926391,149.622795 C376.828293,143.789859 383,136.415607 383,128.290752 C383,122.956309 380.397473,119.20329 378.195335,116.401418 C374.363042,111.5139 365.949159,96.9716689 357.924224,100.254844 C351.140494,103.033797 344.905869,108.912571 338.47677,113.175541 C321.580364,124.411678 303.528551,134.249743 285.602574,143.274177 C225.378385,173.602005 138.316709,210.175314 77.3489411,161.420451 C34.6732192,127.282307 6.25705696,82.1715974 -3.72978266,29.0620877 C-10.4162749,-6.51423611 -14.6375164,-41.9874235 -33.5587452,-73.5013197 C-40.6456263,-85.2989764 -50.1462795,-94.90212 -61.849071,-101.428361 C-73.7920957,-108.074929 -91.6894732,-110.89399 -104.507633,-104.058339 C-115.644161,-98.099348 -115.586962,-80.0963186 -105.748839,-72.7564457 Z" id="Shape" transform="translate(135.000000, 73.000000) rotate(-360.000000) translate(-135.000000, -73.000000) "></path>
                    </g>
                </g>
            </g>
        </g>
    </g>
</svg>