<svg xmlns="http://www.w3.org/2000/svg" viewBox="0 0 518.19 429.25"><defs><style>.cls-1{fill:#ec2127;}</style></defs><title>CSII-logo</title><g id="Layer_2" data-name="Layer 2"><path class="cls-1" d="M266.29,295.35s-25-13.54-49.21-13.54-50.45,13.54-50.45,39,20.63,32.82,41.69,39,30.74,8.49,31.32,22.15C238.11,396.74,222,395.83,213,395.83s-34.87-11.48-42.25-19.28l-10.25,21.74s16,20.1,56.19,20.1,49.62-19.69,49.62-39.78-11.48-32.41-34.86-37.33-36.91-13.12-36.5-22.56,9-13.94,25-12.71,33.22,11.07,33.22,11.07Z"/><path class="cls-1" d="M118.14,321.17s-11.68-16-36.9-16-43,19.68-43,46.12S59.1,395,81.86,395a52.62,52.62,0,0,0,36.28-14.45L132.9,396.2s-17.83,22.14-49.2,22.14-72.26-16.91-72.26-66.73,42.44-69.8,72.26-69.8,49.2,21.83,49.2,21.83Z"/><polygon class="cls-1" points="297.2 281.81 383.52 281.81 383.52 305.59 352.09 305.59 352.09 394.61 383.52 394.61 383.52 418.33 297.2 418.33 297.2 394.56 326.1 394.56 326.1 305.65 297.2 305.65 297.2 281.81"/><polygon class="cls-1" points="414.83 281.81 501.15 281.81 501.15 305.59 469.72 305.59 469.72 394.61 501.15 394.61 501.15 418.33 414.83 418.33 414.83 394.56 443.74 394.56 443.74 305.65 414.83 305.65 414.83 281.81"/><path class="cls-1" d="M162.18,156.78l56.15-.5s21.66,2.4,26.47-15.65A26.76,26.76,0,0,0,242.28,124c-10.87-13.11-13.94-19.68-20.52-44.66-6.66-25.27-4-69.19-4-69.19s2.42-.84,6.85.81c19.64,7.31,50.56,41.45,50.56,41.45l2.95-.31A119.3,119.3,0,0,1,316.9,15.86c4-2.3,5.52-.7,5.77.19,7.14,25-5,39.08,2.39,67.14C325.74,85.76,327,95,341,93.77l15.17.4s13.62,1.62,17.45,13.84c2.11,7.53,8.47,8.62,11.09,12,1,1.29.85,4.19-.37,4.8S370.4,125,368,126c-3.82,1.62-18.69,5.79-37.8,30.42,0,0-17.94,22.91-41.85,25.94-9.28,1.18-20.8.71-31.92,1.68-8.2.72-20.31,6.05-35.05,14.54-9.21,5.3-17.33,12.75-24.09,18.59-6.34,5.48-5.38,4.9-10.84,7.1,0,0-3.42,1.44-9.93-1.89-11.9-6.08-31.64-17.93-32.85-45C143.71,177.34,144.58,157.29,162.18,156.78Z"/></g></svg>