<svg id="New_Layer" data-name="New Layer" xmlns="http://www.w3.org/2000/svg" viewBox="0 0 572.89 429.47"><defs><style>.cls-1{fill:#da1f2c;}.cls-1,.cls-2{fill-rule:evenodd;}.cls-2{fill:#154985;}</style></defs><title>TUBA_LOGO</title><path class="cls-1" d="M296.23,199.54a48.94,48.94,0,0,1-7.39,1c-11.41,1.1-15.75,1.75-21.71,3.24-1.23.32-4.86,1.23-8.1,2s-7.45,1.88-9.4,2.52-5,1.56-6.8,2.14a214.7,214.7,0,0,0-48.93,22.75c-31,19.64-55.28,44.07-73.56,73.94-1.75,2.85-3.37,5.32-3.56,5.51-.78.65-10.24,20-12.31,24.95A192.88,192.88,0,0,0,96.17,361c-6.16,20.74-8.88,42.52-7.84,61.57C89,435,89.69,439.65,92.61,451c3.11,12.44,8.87,25.27,15.61,34.73,3.7,5.19,14.78,16.72,18.47,19.19,1.5,1,3.76,2.65,5.06,3.63,3.89,3,14.39,8,21.13,10.17a87.34,87.34,0,0,0,31,4.34,146.79,146.79,0,0,0,17.44-1.62c9.59-1.68,24.36-6,30.65-8.81a12.3,12.3,0,0,1,2.46-1c1.36,0,17.18-7.91,26.18-13.09a235.82,235.82,0,0,0,22.1-14.39c6.87-4.93,7.84-5.7,15.49-12C323.77,451,345,425,343.28,417c-.85-3.95-8.17-3.31-19.12,1.75-2,.91-5.83,2.59-8.56,3.82s-6.09,2.73-7.45,3.44c-3,1.62-25.27,12.38-29.68,14.32-1.75.78-5,2.27-7.13,3.24-6.41,3-10,4.54-10.37,4.54a32.82,32.82,0,0,0-3.11,1.23,57.45,57.45,0,0,1-6,2.33c-1.75.58-4.08,1.49-5.18,1.95-1.95.9-12.45,4.27-20.74,6.74-12.25,3.56-29.62,5.31-38.63,3.95-15.42-2.33-22.87-9.07-25.92-23.33-1.17-5.32-1.17-21.32-.06-27.54,2-11.15,5.37-22.56,8.36-28.2a8.85,8.85,0,0,0,.84-2.07,49,49,0,0,1,2.27-5.18,159,159,0,0,1,22.29-33.57C200,338.74,214.05,325,215,325a1.14,1.14,0,0,0,1-.72c.46-1.42,9.72-7.19,18.67-11.66,12.18-6,13.74-6.74,18.79-8.36,2.33-.78,4.8-1.69,5.51-2,4.92-2.08,18.14-5.64,27.35-7.32,13.22-2.53,22.1-3.18,38.43-2.79,8.75.19,17.17.65,18.79,1s5.57,1.17,8.75,1.75c9.79,1.81,17.89,4.6,28.51,9.79,16.92,8.29,23.08,12.7,37,26.5a136.86,136.86,0,0,1,10.82,12.31c2.33,3.18,4.8,6.55,5.51,7.46s1.75,2.65,2.46,3.89a19.31,19.31,0,0,0,1.56,2.59c1.36,1.36,10.37,21.19,10.37,22.81a2.37,2.37,0,0,0,.58,1.49c.78,1,3.76,11.08,4.67,15.88,3.5,20,4,39.53,1.29,52.69-5,23.65-12.44,41.47-25.14,59.62-13.61,19.37-33.18,37.13-55.48,50.22a224.46,224.46,0,0,1-25.4,12.44c-7.32,2.92-24.63,8.36-29,9.14-2.21.39-5.32,1-6.94,1.3s-4.28.78-6,1c-6.15.77-3.56,1.49,5.45,1.49,13.41,0,26.31-1.56,43-5.25,8.94-2,25.92-7.26,27.15-8.43a3.23,3.23,0,0,1,1.82-.58,5.26,5.26,0,0,0,2.33-.65c.58-.32,3.44-1.62,6.29-2.92,8.23-3.75,17.88-8.68,21.51-11.08a20.52,20.52,0,0,1,3.76-2.2,3.15,3.15,0,0,0,1.17-.71c.45-.33,3.24-2.4,6.28-4.48,6.36-4.4,8.36-5.89,9.34-6.8.39-.39,2.14-1.81,3.82-3.18,4.28-3.43,18.21-17.3,22.16-22.09,1.82-2.14,3.63-4.28,4.09-4.74a3.11,3.11,0,0,0,.77-1.29,11.56,11.56,0,0,1,2.14-2.72c4.15-4.54,13-18.67,18.08-28.84a179.63,179.63,0,0,0,16-48.28c.71-3.76.84-4.8,2.07-17.5.91-9.85.33-30.07-1.1-38.88-.52-3.37-1.23-7.65-1.49-9.4-.84-4.86-2.65-13.42-3.3-15.23-.26-.91-1.49-4.67-2.66-8.43a55.08,55.08,0,0,0-2.66-7.45,3,3,0,0,1-.52-1.62,8.33,8.33,0,0,0-.9-3c-.52-1-2.14-4.73-3.63-8.29a186.41,186.41,0,0,0-16.4-30.14l-4.21-6.22C457,269.6,434,247,417.8,236.16a20.7,20.7,0,0,1-3.43-2.66,1.07,1.07,0,0,0-.78-.52,13.46,13.46,0,0,1-3.37-1.88c-8-5.38-35.9-18.86-39.08-18.86a1.52,1.52,0,0,1-1.23-.58,4.18,4.18,0,0,0-2.14-.91c-1-.19-3.82-1-6.35-1.75s-5.7-1.68-7.13-2-3.63-.9-4.86-1.16a208.36,208.36,0,0,0-40.82-5.58c-5.51-.26-10.5-.58-11.09-.71A2.11,2.11,0,0,0,296.23,199.54Z" transform="translate(-14.39 -199.44)"/><path class="cls-2" d="M228.89,337.77l-24.3.2.13,4.4c.07,2.4.13,4.47.2,4.67s2.85.32,6.28.32h6.35l.2,31.24.13,31.3h22.68l.13-31.3.19-31.24,6.35-.19,6.29-.2v-4.79a41.9,41.9,0,0,0-.13-4.73C253.26,337.58,242.24,337.71,228.89,337.77Z" transform="translate(-14.39 -199.44)"/><path class="cls-2" d="M403.55,337.84l-14.91.13-3.5,15.1c-1.94,8.23-5.77,24.43-8.49,35.9l-5,20.93h23.53l1.81-9.4,1.82-9.39h10l1.49,7.9c.84,4.41,1.62,8.62,1.81,9.4.32,1.49.45,1.49,11.92,1.49,6.36,0,11.61-.26,11.61-.58s-.91-4.34-2-8.88-4.86-20.54-8.36-35.51-6.48-27.16-6.61-27.22S411.71,337.71,403.55,337.84Zm1.68,32.34c1.69,10.88,1.75,10.56-1.36,10.56-2,0-2.59-.26-2.59-1.17-.07-2.07,2.2-17.63,2.46-17.3A61.5,61.5,0,0,1,405.23,370.18Z" transform="translate(-14.39 -199.44)"/><path class="cls-2" d="M258.06,370l.32,32.08,1.88,1.94c4.41,4.61,13.67,6.81,26.64,6.35,10.3-.32,15.74-1.68,20.34-5.05s4.61-2.66,4.61-36.87V338H288.52v30.71c0,34,.32,31.5-4.22,31.5-1.55,0-2.46-.39-2.91-1.23s-.65-11.8-.65-31.11V338h-23Z" transform="translate(-14.39 -199.44)"/><path class="cls-2" d="M316.38,373.93v36l19-.2c17.69-.19,19.18-.32,22.42-1.62,5.12-2.14,7.72-4.08,9.21-7.13,1.16-2.46,1.29-3.69,1.1-12.76-.2-9.66-.26-10.05-1.82-11.73a16.45,16.45,0,0,0-8.36-4.54l-2.91-.71,3.88-1.43C363,368.36,366,366,367,363.44c.64-1.75.77-12.58.19-15.69-.58-2.91-4.41-6.28-8.94-8-3.7-1.3-5.25-1.42-22.88-1.68l-19-.2Zm28.06-24.82c.91,1,1.1,2.53,1.1,7.91,0,7.84-.71,9.46-4.27,9.46h-2.21v-9.27c0-5.12.2-9.52.39-9.72C340.23,346.78,343.21,347.75,344.44,349.11Zm-.06,27.55c1,.9,1.16,2.2,1.16,11,0,9.08-.12,10.05-1.29,11.21a5.14,5.14,0,0,1-3.24,1.3h-1.95V374.71l2.08.46A7.77,7.77,0,0,1,344.38,376.66Z" transform="translate(-14.39 -199.44)"/><path class="cls-2" d="M14.39,594.6c0,2.53.06,2.59,2.26,2.59h2.27V628.3H26.7V597.19H29c2.2,0,2.27-.06,2.27-2.59V592H14.39Z" transform="translate(-14.39 -199.44)"/><polygon class="cls-2" points="69.99 410.71 69.99 428.85 73.56 428.85 77.12 428.85 77.12 410.71 77.12 392.56 73.56 392.56 69.99 392.56 69.99 410.71"/><path class="cls-2" d="M102.52,608.21v16.33l1.82,1.81c3.3,3.31,12,3.31,15.36-.06,1.23-1.17,1.29-2.27,1.49-17.82l.19-16.53-4.08.2-4.09.19L113,608c-.13,13.35-.32,15.75-1.1,15.75s-1-2.4-1.1-15.75l-.2-15.68-4-.19-4.08-.2Z" transform="translate(-14.39 -199.44)"/><path class="cls-2" d="M140.76,594.92v2.92h7l.26-2.66a7.16,7.16,0,0,0-.07-2.91,16.22,16.22,0,0,0-3.76-.26h-3.43Z" transform="translate(-14.39 -199.44)"/><polygon class="cls-2" points="228.12 410.71 228.12 428.85 231.68 428.85 235.25 428.85 235.25 410.71 235.25 392.56 231.68 392.56 228.12 392.56 228.12 410.71"/><path class="cls-2" d="M260,610.22v18.21l7.13-.26c6.74-.2,7.19-.26,8.88-2s1.81-2,1.81-8.3c0-6.67-.32-7.51-3.17-8.55-.39-.13.06-.91,1.1-1.69,1.62-1.36,1.75-1.75,1.75-6.61,0-4.21-.2-5.31-1.23-6.35-1.82-1.81-5.45-2.65-11.21-2.65H260Zm10-12c.78,2,.39,7.19-.58,8s-1,.2-1-4.14C268.43,597.51,269.07,595.89,270,598.23Zm.39,18.66c0,3.11-.32,5.12-1,6-.84,1.11-.91.59-1-5.5,0-5.9.13-6.61,1-5.9S270.37,613.59,270.37,616.89Z" transform="translate(-14.39 -199.44)"/><polygon class="cls-2" points="302 395.48 302 398.4 305.56 398.4 309.13 398.4 309.13 395.48 309.13 392.56 305.56 392.56 302 392.56 302 395.48"/><path class="cls-2" d="M412.62,592.78c-.2.46-1.49,8.1-2.92,17.05s-2.72,16.72-2.85,17.3c-.26,1,.26,1.17,3.82,1.17h4.15l.46-3.89a13.93,13.93,0,0,1,1.16-4.86c1.23-1.69,2.85-.52,3.31,2.46,1,6.74.65,6.29,4.92,6.29,3.24,0,3.83-.2,3.83-1.17,0-.58-1.3-8.68-2.85-18l-2.79-16.85-5-.19C414.3,592,412.81,592.2,412.62,592.78Zm5.7,16.53c.39,3.5.26,4.08-.58,4.08s-1-.45-.65-2.46a35,35,0,0,0,.39-4.28C417.48,603.61,417.93,605,418.32,609.31Z" transform="translate(-14.39 -199.44)"/><path class="cls-2" d="M543.85,594.92v2.92h7l.32-2.46a10.29,10.29,0,0,0,0-2.92c-.13-.26-1.87-.45-3.82-.45h-3.5Z" transform="translate(-14.39 -199.44)"/><path class="cls-2" d="M53.92,596.22c0,2.66-.13,2.92-1.62,2.92s-1.62.25-1.62,2.26.19,2.27,1.62,2.27h1.62V615c0,13.41-.07,13.35,7.13,13.35h4.34l-.33-2.14-.26-2.07,1.37,2.07c.71,1.17,1.87,2.2,2.46,2.2,2,.13,4.28.13,9.14.07l4.66-.13V615.4c0-16.2.13-15.94-8-15.94-7.2,0-8.3.91-8.69,7.13l-.26,4.21h7.26v-2.53c0-3.17.52-4.6,1.69-4.6.64,0,.9.91.9,3.05,0,3.11,0,3.11-3.63,5-4.92,2.66-6.09,4.21-6.09,8.43v3.37l-2.07-.39-2.14-.46-.19-9.52-.2-9.53h2c1.81,0,1.94-.19,1.94-2.27s-.13-2.26-1.94-2.26-1.94-.13-1.94-2.92V593.3H53.92ZM75.3,619.61c0,3.7-.13,4.22-1.1,4-1.68-.32-1.94-5.38-.45-7.06a5.64,5.64,0,0,1,1.36-1.23A31.09,31.09,0,0,1,75.3,619.61Z" transform="translate(-14.39 -199.44)"/><path class="cls-2" d="M451.05,596c-.13,2.34-.45,2.86-1.62,3s-1.49.64-1.49,2.39.26,2.21,1.49,2.4c1.42.2,1.42.39,1.75,11.67.19,6.28.58,11.66.84,12a22.06,22.06,0,0,0,5.57.71l5,.26-.25-2.59c-.2-2.34-.46-2.66-1.95-2.86l-1.75-.19-.19-9.59-.2-9.53h2c1.82,0,1.95-.19,1.95-2.27s-.13-2.26-1.95-2.26-1.94-.13-1.94-2.92V593.3h-7.07Z" transform="translate(-14.39 -199.44)"/><path class="cls-2" d="M531.21,596c0,2.4-.19,2.79-1.62,3.12s-1.62.51-1.36,3.69c.07.45.78.84,1.69.84h1.62v11c0,13.41.13,13.61,6.8,13.61h4.22v-2.53c0-2.33-.2-2.59-1.75-2.79l-1.82-.19-.19-9.59-.2-9.53h2c1.82,0,1.95-.19,1.95-2.27s-.13-2.26-1.95-2.26-1.94-.13-1.94-2.92V593.3h-7.46Z" transform="translate(-14.39 -199.44)"/><path class="cls-2" d="M35.12,600.24A10.71,10.71,0,0,0,33.05,602c-.26.39-.52,5.76-.52,11.86,0,10.24.13,11.34,1.23,12.44,3.05,3,11.21,3.24,14.13.32,1.43-1.42,1.49-1.88,1.49-12.83,0-12.25-.13-12.7-3.69-14.06C43,598.75,36.87,599,35.12,600.24Zm6.81,13.54c0,8.69-.13,9.66-1.1,9.85s-1.17-.58-1.17-9.46c0-5.31.19-9.85.45-10.11C41.54,602.63,41.93,604.71,41.93,613.78Z" transform="translate(-14.39 -199.44)"/><path class="cls-2" d="M122.61,613.72V628.3h7.45V616.18c0-10.37.13-12.18,1-12.18s1,1.87,1.16,12.11l.13,12.19h7.13V614.69c0-16.46.65-15.49-9.85-15.49l-7-.06Z" transform="translate(-14.39 -199.44)"/><path class="cls-2" d="M140.76,613.72V628.3h7.45L148,613.91c-.13-8.23.06-14.19.38-13.8s1.5,6.15,2.66,13,2.27,13,2.46,13.74c.33,1.36.72,1.49,4.8,1.49a23.19,23.19,0,0,0,4.47-.2c0-.39,4.54-26.11,4.86-27.54s.13-1.42-3.43-1.42h-3.83l-.84,7.51c-.45,4.15-1,7.13-1.29,6.68a51.28,51.28,0,0,1-1.3-7.58l-.84-6.61H140.76Z" transform="translate(-14.39 -199.44)"/><path class="cls-2" d="M171.54,599.91c-2.72,1.56-2.85,2.4-2.92,13.87,0,12.83.2,13.29,5.38,14.65a9.28,9.28,0,0,0,6.09-.07c4.74-1.23,5.38-2.14,5.38-7.32v-4.41h-7.13v3.57c0,3.11-.12,3.56-1.29,3.56s-1.3-.45-1.3-3.89V616h9.72v-6.41c0-7.52-.19-8.23-2.65-9.46C180.68,598.94,173.42,598.88,171.54,599.91Zm6.8,7.65c0,3.43-.12,3.89-1.29,3.89s-1.3-.46-1.3-3.44c0-3.63.26-4.34,1.75-4.34C178.09,603.67,178.34,604.77,178.34,607.56Z" transform="translate(-14.39 -199.44)"/><path class="cls-2" d="M187.42,613.72V628.3h7.77V616c0-10.49.13-12.31,1-12.31s1,.84,1,3.89v4l3.69-.19,3.63-.2-.13-4.86c-.26-6.93-.45-7.06-9.52-7.06h-7.39Z" transform="translate(-14.39 -199.44)"/><path class="cls-2" d="M208.8,600c-2.13,1.1-3.24,3.43-3.24,6.93,0,4.08,1.11,5.77,5.25,8.23,3.05,1.75,3.76,2.46,4.09,4.28a7.2,7.2,0,0,1,0,3.3c-.78,2.08-1.88.59-2.08-2.72l-.19-3.37h-7.07v3.7c0,5.12,1,6.74,4.54,7.84,4.8,1.36,10.24.06,11.6-2.92,1-2.07.84-7.9-.13-9.78a10.75,10.75,0,0,0-3.43-3.05l-2.53-1.56,3.5-.06h3.43l-.26-4.28c-.26-3.76-.51-4.53-2.07-5.83s-2.46-1.55-5.77-1.55A16.51,16.51,0,0,0,208.8,600Zm6.1,5.12c.58,2.33.45,5-.26,5-1,0-2.08-3.3-1.62-5C213.47,603.28,214.38,603.28,214.9,605.1Z" transform="translate(-14.39 -199.44)"/><path class="cls-2" d="M227,599.91c-2.2,1.17-3.24,3.5-3.24,7.46v3.43h7.13V608a9.37,9.37,0,0,1,.58-3.63c1-1.49,2-.13,2,2.73,0,2.65-.13,2.78-3.63,4.66-5.25,2.79-6.09,4.15-6.09,9.4,0,3.24.32,4.79,1.17,5.83,1.23,1.49,1,1.49,11.34,1.36h4.34v-13c0-15.88.06-15.81-7.19-16.14C230.32,599.14,228,599.39,227,599.91Zm6.48,19.7c0,3.7-.13,4.22-1.1,4-1.62-.32-2-5.77-.52-7.26a4,4,0,0,1,1.36-1A18.84,18.84,0,0,1,233.43,619.61Z" transform="translate(-14.39 -199.44)"/><path class="cls-2" d="M279.44,612.61c0,12.77.07,13.61,1.3,14.72a5.5,5.5,0,0,0,3.43,1.16c1.11-.06,4.35-.06,7.13-.13l5-.06V599.14h-7.13v12.37c0,11.41-.06,12.32-1.1,12.12s-1.16-1.29-1.16-12.38V599.14h-7.46Z" transform="translate(-14.39 -199.44)"/><path class="cls-2" d="M301.48,600c-2.14,1.1-3.24,3.43-3.24,6.93,0,4,1.16,5.9,4.79,7.84,1.75,1,3.44,2.14,3.7,2.66.84,1.56,1.23,4.67.64,5.64-1,1.62-2,.06-2-3.24v-3.18h-7.12v3.7a14.87,14.87,0,0,0,.84,5.31c1.49,3,7.52,4.08,12,2.27,3-1.17,4-3,4-7.39s-.85-6.16-4-7.91l-2.72-1.49,3.18-.32c3.17-.32,3.17-.32,3.37-2.92.32-3.75-.85-7.12-2.79-8C310,598.88,303.49,598.94,301.48,600Zm6.09,4.73c.58,1.62.45,4.66-.26,5.12-.91.58-2.07-2.85-1.62-4.67S307,603.22,307.57,604.71Z" transform="translate(-14.39 -199.44)"/><polygon class="cls-2" points="302 414.27 302 428.85 305.56 428.85 309.13 428.85 309.13 414.27 309.13 399.69 305.56 399.69 302 399.69 302 414.27"/><path class="cls-2" d="M324.81,613.72V628.3h7.45V616.18c0-10.37.13-12.18,1-12.18s1,1.87,1.17,12.11l.13,12.19h7.13V614.69c0-16.46.64-15.49-9.85-15.49l-7-.06Z" transform="translate(-14.39 -199.44)"/><path class="cls-2" d="M344.83,601,343,602.89V614c0,10.69.07,11.15,1.49,12.57,2.79,2.79,11.34,2.79,14.13-.06a6.48,6.48,0,0,0,1.23-4.08c.26-6.1.39-5.84-3.56-5.84h-3.57v3.57c0,3.11-.13,3.56-1.29,3.56s-1.3-.45-1.3-3.89V616h9.66l.19-6c.33-9.39-.91-10.88-8.94-10.88C347.16,599.14,346.58,599.33,344.83,601Zm7.84,6.55c0,3.43-.13,3.89-1.29,3.89s-1.3-.46-1.3-3.44c0-3.63.26-4.34,1.75-4.34C352.41,603.67,352.67,604.77,352.67,607.56Z" transform="translate(-14.39 -199.44)"/><path class="cls-2" d="M364.34,600c-2.14,1.1-3.24,3.43-3.24,6.93,0,4.08,1.1,5.77,5.25,8.23,3,1.75,3.76,2.46,4.08,4.28a6.93,6.93,0,0,1,0,3.3c-.78,2.08-1.88.59-2.07-2.72l-.2-3.37H361.1v3.7c0,5.12,1,6.74,4.53,7.84,4.8,1.36,10.24.06,11.6-2.92,1-2.07.85-7.9-.12-9.78a10.8,10.8,0,0,0-3.44-3.05l-2.53-1.56,3.5-.06h3.44l-.26-4.28c-.26-3.76-.52-4.53-2.08-5.83s-2.46-1.55-5.76-1.55A16.46,16.46,0,0,0,364.34,600Zm6.09,5.12c.58,2.33.45,5-.26,5-1,0-2.07-3.3-1.62-5C369,603.28,369.91,603.28,370.43,605.1Z" transform="translate(-14.39 -199.44)"/><path class="cls-2" d="M383.13,600c-2.14,1.1-3.24,3.43-3.24,6.93,0,4,1.1,5.77,5,8.1,3.63,2.08,5.06,4.41,4.34,7.26-.58,2.33-1.88,1.43-2-1.49-.07-1.36-.13-2.92-.13-3.37s-1.24-.78-3.63-.78h-3.57v3.5c0,6.68,1.62,8.36,8.17,8.43s8.68-1.95,8.68-8.23c0-4.35-1-6.22-4.15-7.91l-2.52-1.3,3.43-.19,3.37-.19-.26-4.28c-.26-3.7-.52-4.47-2.07-5.77s-2.46-1.55-5.77-1.55A16.51,16.51,0,0,0,383.13,600Zm6.09,4.73a12.8,12.8,0,0,1,.39,3.3c0,2.73-1.29,2.66-2.07-.19C386.76,604.77,388.19,602.05,389.22,604.71Z" transform="translate(-14.39 -199.44)"/><path class="cls-2" d="M429.79,612.61c0,12.77.07,13.61,1.3,14.72a5.5,5.5,0,0,0,3.43,1.16c1.11-.06,4.35-.06,7.13-.13l5-.06V599.14h-7.13v12.37c0,11.41-.06,12.32-1.1,12.12s-1.16-1.29-1.16-12.38V599.14h-7.46Z" transform="translate(-14.39 -199.44)"/><path class="cls-2" d="M466.41,599.91c-2.72,1.56-2.85,2.4-2.85,13.81-.07,9.59.13,11.21,1.1,12.5,2.4,3.11,11.21,3.37,14.19.39,1.43-1.42,1.49-1.88,1.49-12.83,0-12.25-.13-12.7-3.69-14.06C474.44,598.88,468,599,466.41,599.91Zm6.48,13.87c0,8.17-.13,9.66-1,9.66s-1-1.49-1.17-9.08c-.19-9.46,0-11,1.36-10.49C472.69,604.06,472.89,606.59,472.89,613.78Z" transform="translate(-14.39 -199.44)"/><path class="cls-2" d="M481.64,613.72V628.3h7.13l.13-12.19c.19-10.24.32-12.11,1.16-12.11s1,1.87,1.17,12.11l.13,12.19h7.13V615.92c0-11.41.06-12.31,1.16-12.12s1.11,1.36,1.3,12.38l.13,12.12h7.13V615c0-12.63-.07-13.35-1.36-14.64s-1.88-1.3-4.67-1a38.2,38.2,0,0,1-4.34.33c-.52,0-4.41-.13-8.56-.33l-7.64-.32Z" transform="translate(-14.39 -199.44)"/><path class="cls-2" d="M512.74,600c-2.2,1.1-3.24,3.43-3.24,7.39v3.43h7.13v-2.53c0-3.17.52-4.6,1.69-4.6.65,0,.91.91.91,3.05,0,3.11,0,3.11-3.63,5-5.25,2.79-6.1,4.15-6.1,9.4,0,7.13.78,7.58,12.32,7.26l4.86-.13-.13-12.64c-.07-7.65-.46-13.16-.84-13.93a4.68,4.68,0,0,0-2.34-2C521,598.88,514.69,599,512.74,600Zm6.49,19.63c0,3.7-.13,4.22-1.11,4-1.62-.32-2-5.77-.52-7.26a4,4,0,0,1,1.37-1A18.84,18.84,0,0,1,519.23,619.61Z" transform="translate(-14.39 -199.44)"/><polygon class="cls-2" points="529.47 414.27 529.47 428.85 533.03 428.85 536.53 428.85 536.72 414.27 536.92 399.69 533.23 399.69 529.47 399.69 529.47 414.27"/><path class="cls-2" d="M555.19,599.91c-2.72,1.56-2.85,2.4-2.91,13.87,0,12.83.19,13.29,5.38,14.65a9.94,9.94,0,0,0,6.15,0c5.12-1.36,5.32-1.82,5.32-14.65-.07-11.92-.26-12.77-3.5-14C563.29,598.94,556.81,599,555.19,599.91Zm6.48,13.87c0,8.17-.13,9.66-1,9.66s-1-1.49-1.17-9.08c-.19-9.46,0-11,1.37-10.49C561.48,604.06,561.67,606.59,561.67,613.78Z" transform="translate(-14.39 -199.44)"/><path class="cls-2" d="M570.42,613.72V628.3h7.13l.13-12.12c.19-11,.32-12.18,1.36-12.38s1.1.71,1.1,12.12V628.3h7.13V615c0-16.65.52-15.81-9.65-15.81l-7.2-.06Z" transform="translate(-14.39 -199.44)"/></svg>