<?xml version="1.0" encoding="utf-8"?>
<!-- Generator: Adobe Illustrator 26.0.1, SVG Export Plug-In . SVG Version: 6.00 Build 0)  -->
<svg version="1.1" id="Layer_1" xmlns="http://www.w3.org/2000/svg" xmlns:xlink="http://www.w3.org/1999/xlink" x="0px" y="0px"
	 viewBox="0 0 1925.7 206.1" style="enable-background:new 0 0 1925.7 206.1;" xml:space="preserve">
<style type="text/css">
	.st0{fill:url(#Path_1293_00000111881636635804934140000018022462998241175979_);}
	.st1{fill:#F52727;}
</style>
<linearGradient id="Path_1293_00000145765316905238283630000009944198823917423009_" gradientUnits="userSpaceOnUse" x1="931.3523" y1="59.403" x2="930.3623" y2="59.763" gradientTransform="matrix(-1925.66 0 0 -160.94 1793378.875 9725.6191)">
	<stop  offset="0" style="stop-color:#EFDAC8"/>
	<stop  offset="1" style="stop-color:#E3C3C2"/>
</linearGradient>
<path id="Path_1293" style="fill:url(#Path_1293_00000145765316905238283630000009944198823917423009_);" d="M0,175.8
	c226.7,24.2,511.7,2,1097-94.9s828.6,31.7,828.6,31.7l-0.6,64.6c0,0-290.1-110.5-828-41S226.5,228.4,0,175.8z"/>
<path id="Path_1294" class="st1" d="M1925.1,177.2c0.6-3.8-309.7-115.8-991.2-94.9S0,0,0,0v175.8c0,0,196.4,75.6,933.8-20.3
	C1569.1,57.1,1842.7,160.6,1925.1,177.2z"/>
<path id="Path_1359" class="st1" d="M0,175.8C429.5,203,1104.1,79.7,1104.1,79.7s107.5-5.2,318.2,6.5c322.1,18.9,502.7,91,502.7,91
	s-268-100.6-798.3-42.9C601.4,209.8,191.8,229.2,0,175.8z"/>
<path class="st1" d="M0,206.1c641.9,0,1283.8,0,1925.7,0c0.9-3.7,6.5-27.3-0.6-28.9c-176.8-39.8-156.2-66-471.1-69.2
	c-169.1-1.7-237.6,15.4-296,18c-227.1,10.1-312.2,35-497,51c-114.2,9.9-453.9-19.5-661-34.7"/>
</svg>
