<?xml version="1.0" encoding="utf-8"?>
<!-- Generator: Adobe Illustrator 26.0.1, SVG Export Plug-In . SVG Version: 6.00 Build 0)  -->
<svg version="1.1" id="Layer_1" xmlns="http://www.w3.org/2000/svg" xmlns:xlink="http://www.w3.org/1999/xlink" x="0px" y="0px"
	 viewBox="0 0 1925.7 206.1" style="enable-background:new 0 0 1925.7 206.1;" xml:space="preserve">
<style type="text/css">
	.st0{fill:#EEEEEE;}
	.st1{fill:#FFA4A4;}
	.st2{fill:#FF7171;}
	.st3{fill:#DB2C2C;}
</style>
<g id="Layer_2_00000169519980771266879190000008072389485416563899_">
	<g id="Layer_1-2">
		<g id="Group_501">
			<path id="Path_1360" class="st0" d="M0.6,87.7c342.9,16.9,1924.3,9.4,1924.3,9.4v108.9H0.6C0.6,206.1,2.4,88.4,0.6,87.7z"/>
			<path id="Path_1293" class="st1" d="M1925.7,30.3c-226.7-24.2-511.7-2-1097,94.9S0,93.5,0,93.5l0.6-64.6c0,0,290.1,110.5,828,41
				S1699.1-22.4,1925.7,30.3z"/>
			<path id="Path_1294" class="st2" d="M0.6,28.9c-0.6,3.8,309.7,115.8,991.2,94.9s933.8,82.3,933.8,82.3V30.3
				c0,0-196.4-75.6-933.8,20.3C356.6,149,83,45.5,0.6,28.9z"/>
			<path id="Path_1359" class="st3" d="M1925.7,30.3C1496.1,3.1,821.5,126.4,821.5,126.4s-107.5,5.2-318.2-6.5
				C181.2,101,1.1,26.6,1.1,26.6s267.6,102.8,797.8,45.1C1324.2-3.7,1733.9-23.2,1925.7,30.3z"/>
		</g>
	</g>
</g>
</svg>
