<svg id="svg2169" xmlns="http://www.w3.org/2000/svg" viewBox="0 0 692 559.8"><defs><style>.cls-1{fill:#f0c1f4;stroke:#fff;stroke-width:2px;}.cls-2{fill:#333;}.cls-3{isolation:isolate;font-size:59.03px;fill:#3d3808;font-family:Roboto-Regular, Roboto;}.cls-4{letter-spacing:-0.02em;}</style></defs><g id="layer19"><path id="path5186" class="cls-1" d="M679.36,397.82l-2.21,6.27-10.7,7.38-9.6,2.22-7.38,8.48-6.27,1.11-8.48,5.16-13.66,2.22-11.8,1.1-12.92,4.43-9.59-7.38-10.7-4.42-6.27,6.27L555,435.82l-1.11,11.81-6.27,6.27-6.27,4.43,2.21,8.49L534,469l-9.6-2.21-15.86-4.43-11.81-8.49-6.27,3.32-10.7,9.6-9.59,1.1-7.38-5.16v-8.49l-9.6-5.16-15.86-5.17-8.49-13.65-3.32-12.91,3.32-11.81-5.16-8.49-14.76-9.59-8.49,1.11L396,383.43l-8.48-3.32-14.76,5.17-11.81,6.27L348,392.65l-6.27-4.42L333.27,386l-2.21,5.17-3.32,9.59-4.43,13.65-14.76,8.49-10.7-2.21-3.32-8.49L286,411.1l-7.38-3.32-5.16-10.7-9.59-14.76L251,373.84l-12.91-13.65-11.81-8.49-14.76-6.27H189l-17,12.91-10.7,14.76L150.63,386l-12.91,13.66L123,410.37l-14.76-2.22-22.14-7.38H71.31L59.5,397.45l-3.32-6.27-12.92-8.49-13.65-4.42-11.8-1.11-3.69-3.32-1.48-5.54h17l2.22-15.86L37,347.27l8.49-1.1-2.22-7.38-4.42-7.38,2.21-12.92,7.38-7.38,3.32-1.1,5.17,3.32,5.16-10.7,2.21-5.17-5.16-6.27L55.81,286,61,281.6l4.43-8.49-3.32-7.38-3.32-11.81v-11.8l4.43-6.28,3.32-8.48L65.4,213.71l-2.21-6.28v-11.8l-3.32-6.28L52.49,186l-3.32-6.27L47,174.6l-10.7-6.28-5.16-5.16,4.43-12.92,10.7-5.16L58,144l4.43-9.59L77.21,130l8.49-4.43L93.07,130h8.49l5.17-8.48,1.1-13.66,9.6-1.1,10.7-2.22,6.27-19.18,8.48-8.49,15.87,1.11,9.59,8.48v10.7l2.22,8.49,9.59-2.21h10.7l6.27-9.6V85.31l-4.43-12.92,13.66,1.11,6.27,10.7,8.49,13.65,8.48,6.27,10.7-6.27,5.17-4.43,12.91,4.43,3.32-10.7,9.59,2.22L282,99v14.76l2.22,15.86,5.16,13.65,6.28,13.66,10.7,10.7L322.2,175,337,190.83l19.19,9.59,21.4,6.28,19.18-2.22,19.19-1.1H434l11.8,4.42,15.87,8.49L477.54,227l20.29,5.16,13.65,3.33,11.81,2.21h24.35l10.7,14.76,4.43,4.43,2.21,6.27,8.49,4.43,9.59,3.32,11.81,3.32,10.7,6.27,5.16,12.91-1.1,10.7,11.8,13.65,5.17,18.08,3.32,14.76,3.32,8.49,3.32,13.65,14.76,7.38h12.91l9.6,8.49Z"/></g><circle class="cls-2" cx="312.07" cy="259.48" r="11.44"/><text class="cls-3" transform="translate(212.12 315.97)">Almo<tspan class="cls-4" x="138.25" y="0">r</tspan><tspan x="157.07" y="0">a</tspan></text></svg>