<?xml version="1.0" encoding="utf-8"?>
<!-- Generator: Adobe Illustrator 25.4.1, SVG Export Plug-In . SVG Version: 6.00 Build 0)  -->
<svg version="1.1" id="svg2169" xmlns="http://www.w3.org/2000/svg" xmlns:xlink="http://www.w3.org/1999/xlink" x="0px" y="0px"
	 viewBox="0 0 692 559.8" style="enable-background:new 0 0 692 559.8;" xml:space="preserve">
<style type="text/css">
	.st0{fill:#EBCFF9;stroke:#FFFFFF;stroke-width:2;}
	.st1{fill:#333333;}
	.st2{fill:#3D3808;}
	.st3{font-family:'Roboto-Regular';}
	.st4{font-size:63.001px;}
</style>
<g id="layer20">
	<path id="path6168" class="st0" d="M474.5,52.9l3.9,2l14.2,2.4l14.2,9.5l8.3,8.3l8.3,4.7v13l8.3,5.9l1.2,10.6l5.9,9.5l7.1,3.5
		l10.6,2.4l3.5,10.6l-4.7,16.5l-2.4,15.4l-1.2,22.4l-11.8,17.7l-2.4,20.1l-1.2,29.6l-4.7,21.3l2.4,14.2l4.7,10.6l4.7,15.4l7.1,8.3
		l9.5,4.7l8.3,5.9l14.2,11.8l11.8,14.2l1.2,17.7l-16.5,1.2l-10.6-4.7l-9.5,2.4l-13,9.5l-4.7-7.1l-10.6-4.7l-10.6,2.4l-23.6,5.9
		l-3.5,14.2l-7.1,17.7l-11.8,1.2l-1.2,4.7l10.6,3.5l17.7,5.9l1.2,11.8l5.9,8.3l5.9,10.6l-9.5,7.1l-7.1,9.5l-10.6,5.9l-8.3,7.1
		l-9.5-4.7h-9.5l-5.9,1.2l-9.3-5.9l-5.9-14.2l-10.6-3.5l-11.8,8.2l-9.5,13l-17.7-2.4l-4.7-7.1l-15.4-2.4v8.3l5.9,10.6l-3.5,11.8
		l-7.9-0.4l-14.6-3.5l-21.7-5.5l-16.9-11.4l-16.9-9.1l-12.6-4.7H261l-20.5,1.2l-20.5,2.4l-22.8-6.7l-20.5-10.2L161,441.1l-16.9-7.9
		l-11.4-11.4l-6.7-14.6l-5.5-14.6l-2.4-16.9V360l-11.4-10.2L98,347l9.5-8.3l6.3-10.6l4.3-12.6l5.1-13.8l6.3-14.6l11.4,4.3l16.9,6.3
		l8.3,9.5l12.6,3.1l6.3-8.3h22.1l7.5-7.5l8.3-7.5l12.6,4.3l9.5,5.1l9.5,5.1l14.6-3.1l10.6,2l11.4,1.2l17.7-3.1h10.6l12.6,2l10.6-5.1
		l7.5-3.1l7.5-12.6l2-9.5l5.1-5.1l-2-12.6l-6.3-5.1l-9.5-3.1l-11.4-2l-6.3-10.6V217l-3.1-8.3l-4.3-9.5l-3.2-10.5l10.6-4.3l1.2-17.7
		l1.2-8.3l12.6-6.3v-12.7l9.5-5.1l2-14.6l-1.2-13.8l-6.3-13.8l-7.5-8.3l11.4-7.5l22.1-2l9.4,7.5l11.4,7.5l16.9-3.1l12.6-12.6
		l13.8-7.5l8.3,4.3l8.3,3.1l11.4-10.6L474.5,52.9L474.5,52.9z"/>
</g>
<circle class="st1" cx="421.5" cy="319.1" r="12.2"/>
<text transform="matrix(1 0 0 1 186.4565 400.6017)" class="st2 st3 st4">Bageshwar</text>
</svg>
