<svg id="svg2169" xmlns="http://www.w3.org/2000/svg" viewBox="0 0 692 559.8"><defs><style>.cls-1{fill:#fcf8ae;stroke:#fff;stroke-width:2px;}.cls-2{fill:#333;}.cls-3{isolation:isolate;font-size:73.25px;fill:#3d3808;font-family:Roboto-Regular, Roboto;}</style></defs><g id="layer18"><path id="path4199" class="cls-1" d="M264.89,424l-9.15,10.53-9.16-7.78-11.9-22.43,7.78-7.79-2.75-14.64-14.65-6.41L209,370l-13.27,7.79-11.91-13.28L172,352.56l-6.41-11.91,13.28-10.52,7.78-16.94L193,299.91l10.53-5.49-6.41-14.65-7.78-14.65-10.07-5.95L161,251.39,153.19,245l-10.53-7.79-11.9,6.41-13.28-6.41-4.12-13.27,1.38-18.31-10.53-5.5-5.5-11.9,4.12-6.41,7.79-1.37L118.4,174l6.41,6.41,4.12,14.65,14.65,5.49,7.78-5.49,1.37-18.31,9.16-5.5h11.9l2.75-16.94-16-5.49-11.91,1.37-1.37-9.15-10.53-6.41-14.65-16.94,10.53-9.15,4.58-7.33,3.66-6-2.75-10.53,7.79-5.49,7.78-7.79L155,56.83l18.31-6.41,7.79-7.79,13.27,5.5,11.9,9.15,16-5.49L237,50.42l16.94-2.75,10.52-6.41,7.79-1.37,9.15-10.53,11.9-2.75,13.28-9.15,10.53-5h22.43l11.9,16,16,14.65,13.27,10.53L400.4,61.4l13.27,10.53,16.94-1.37L445.26,77,465,78.34h11.9l2.74.92,1.84,3.2,13.73,6.87,4.58,10.07-3.21,16,6.87,12.36L508,140.14l9.15,9.16,11.45,3.2,2.29,5.5,2.29,13.73-7.79,9.16-3.2,9.15v10.07l-1.37,13.74-1.38,16,2.29,21.52V269.7l-7.78-3.21-10.07-4.57-16.94-6.87-5.49,12.36,6.86,7.78,3.21,6.87,3.2,16,5.49,10.07L497,320.51l-14.65,3.21L481,335.16,467.23,342l-11.44-3.21-16-10.07L427.41,331l-13.28,15.57L394.9,367.66v57.69l1.83,25.17-13.27,9.62L358.28,481.2l-11.44,27-7.79,33-1.37,5.49-4.12-7.78-11.9-9.16-7.79-25.18,1.38-21.05-5.5-16.94L302,444.12l-9.15-19.69-18.32-11.9L264,411.15l.91,12.82Z"/></g><circle class="cls-2" cx="323.74" cy="230.82" r="14.19"/><text class="cls-3" transform="translate(185.49 193.24)">Champawat</text></svg>