<svg id="svg2169" xmlns="http://www.w3.org/2000/svg" viewBox="0 0 692 559.8"><defs><style>.cls-1{fill:#a6c6f4;stroke:#fff;stroke-width:2px;}.cls-2{fill:#333;}.cls-3{isolation:isolate;font-size:36.65px;fill:#3d3808;font-family:Roboto-Regular, Roboto;}</style></defs><g id="layer22"><path id="path8146" class="cls-1" d="M148.34,405.67l2.52-9.16,3.44-5.27.91-10.31.92-4.35,8.7,2.52h7.79l6-1.83v-9.62l-6.87-4.36-1.84-2.52,3.44-2.52-.92-2.51-8.7-6-6.87-3.44-2.52-5.95,1.83-6,7.79-.92,8.7-2.52,4.36-9.62,2.51-12.14L182,297.09l2.52-7.79,9.63-2.52,7.78-2.52-1.83-5.95,1.83-9.62,3.44-2.52,2.52-9.63v-7.78l10.31,1.83,9.62-4.35,5.27-7.79,8.7-4.36,5.27-5.26,1.84-8.71,3.43-9.62-5.27-8.71-6.87-.91-7.79-3.44L229,187.82l-.92-9.62-6.87-4.35h-6l-5.95-2.52-6.88-1.84-8.7-1.83-4.58-2.29,4.81-2.06,9.16-5.27,10.54,3.9,7.79,2.52,7.33-3.9,3.89-4.58-1.37-4.58,5.27-4.58L233.33,139l-6-4.58-9.85-6.65-8.47-3.89L207,118l6-7.79,2.52-6.64,3.89-6.64,2.52-10.54-.68-8.48L218,72.6l-4.58-3.9,5.95-5.27,11.23-3.2L235.85,57l.69-12.6,2.52-9.85,2.52-7.33h12.59L258.76,22l6.64-4.58,3.21-7.33.91,3.2,1.15,7.11h8l9.16-1.15h6.87l9.16-3.44,4.59,5.73L311.9,25l2.29,3.89-.68,7.33,5.72,2.75,2.29,3.44,1.61,6.18,2.75,3.9,3.89,3.43,11.45,2.29a28.28,28.28,0,0,0,6.19.69c3.44,0,3.89-6.18,3.89-6.18l8-1.15,5.73-2.29.69-5,8.47-3.44,5,.69,6.87,2.29L393,42.59l3.43-7.33,8-3.44,3.89,3.89,3.44,3.44h9.16l3.9,3.44,5,2.29,8.47-2.29h8.48l5,5.72,4.58,11.46,3.89,8.47,5.73,1.15.46,3.43,3.89,9.63h6.88l7.33,2.29,6.87,3.43,9.62,4.58,6.87,3.9,2.75,4.58,7.33,2.75h5l2.75,3.43,4.58,3.9,3.44,6.18v6.88l4.58,2.75,5.73,2.74,2.52-.22-3,5.49-5.5,6.65v7.33l3,7.33,5.5,7.33-2.52,1.83-5.5-1.14-7.33.68L522.2,164l-6.65-3-4.35,3.66-6.64,2.52-7.33,3-2.52,5.5,3,6.19,4.82,4.35,3,7.33,4.81.69.69,3.66,1.83,8,2.52,3.66-.68,6.65,5.49,7.33-2.52,3.66L514,231.57l-3.67,6.19-2.52,8.48L503,252.88l1.84,5.5,2.52,4.35,1.14,6.18,3.67,8.48-.69,4.35v4.36l1.14,4.35,3,1.83.69,5.5,4.35,3.66v4.36l-1.14,7.33,1.14,6.64-4.81,4.35L514,331.45l-7.33,3.67,2.52,6.18-3,3,1.15,6.64-1.84,6.19L500,364.44l-6.65,6.18-4.81-1.83-4.81-2.52-8,4.35L468.36,378l-9.85,1.83-6.64-4.35-5.5-4.36-12.83,1.15-6.64,4.35,4.35,4.81,3.67,8,.68,8-1.14,8.47-5.5,3v7.33l-7.33,3.67-.69,4.81L420.26,435l-6.19,2.52,1.83,6.18,2.52,5.5,1.84,4.81v8.48l3.66,6.18,6.64,1.15,5.5,1.83,3.67,3,1.14,7.33-3,3-1.15,5.5-4.35,7.33L428,499.6l-6.18,3-7.33-1.14h-6.19L398,503.26l-6.65-.69-6.18-1.14-8.48,1.83-5.5-3-5.49-3-7.33-2.51-4.82,4.35-4.35,4.35H336.41l-3.66,4.81-7.33-1.83-4.81-5.5-9.85-3.67-3.9-3-3.66,8.47-3,8-2.52,7.33L294,524.34l-5.49,4.81-.92.23L285.56,536l-8-2.75L274.33,536l-6.64,3.89L262.42,536l-5.27-8.48-3.89-6.64-8.48-.69,2.75,8v5.27l-3.89,6H237l-6,1.37-1.38-5.27v-6.64l-5.95-5.27L215,522.5l-2.06-1.14-3.89-3.9-8-3.2,3.89-6-3.2-4.58-.69-3.89-2.06-8-9.17-2.06-.68-6.65,3.89-6-1.37-7.33-3.9-6.65-4.58.69-3.89,1.37L174,460l-2.06-4.59-4.59-5.26v-3.9l.69-8,3.21-6.64h-1.83l-6-7.33L160.25,419,155,415.75l-3.2-5.95-3.44-4.13Z"/></g><circle class="cls-2" cx="332.41" cy="321.62" r="7.1"/><text class="cls-3" transform="translate(252.57 375.65)">Chamoli</text></svg>