<?xml version="1.0" encoding="utf-8"?>
<!-- Generator: Adobe Illustrator 25.4.1, SVG Export Plug-In . SVG Version: 6.00 Build 0)  -->
<svg version="1.1" id="Layer_1" xmlns="http://www.w3.org/2000/svg" xmlns:xlink="http://www.w3.org/1999/xlink" x="0px" y="0px"
	 viewBox="0 0 138.1 113.8" style="enable-background:new 0 0 138.1 113.8;" xml:space="preserve">
<style type="text/css">
	.st0{fill:#EF9685;stroke:#FFFFFF;stroke-width:2;}
	.st1{fill:#333333;}
	.st2{fill:#3D3917;}
	.st3{font-family:'Roboto-Regular';}
	.st4{font-size:8.4783px;}
</style>
<g id="layer13" transform="translate(-2.254509,-2.5065422)">
	<path id="path5126" class="st0" d="M72.5,84.8l0.5-1.3l-1.1-1l-1.3-0.7l-1.4-0.7l-0.7-0.3l-1.4,0.4l-2-1l-1.7-0.9l-1.1-0.6
		l-1.7-0.9l-1.5-0.9L58,75.7l-1.4-0.5l-2.3-1.5L53,73l-1.4-0.7l-0.4-1.5l-1.1-1.5l-0.6-1.4l-1.4-0.4l-1.5-1l-0.9-0.5h-3l-2-0.1
		l-0.4-1.3l1.4-1.3l3-0.6l2.4-1l3.5-0.6l1.9-1.9l2.3-1.4l2.4-0.9l2.8-0.7l2.1-2.4l0.6-1.9v-2l-0.5-0.7l-1,0.3l-1.1-0.1l-2.3-1.1
		L56.6,47l-1-1.4v-1l2,0.4l1,0.5l-0.1-1l0.9-0.5l0.9,0.3l0.1-1.5l-0.4-2l0.7-0.7l-1.1-0.9l-2.1-0.6l-1.3-1.1l-0.5-1.1l0.6-1.6
		L56,32.9L54.7,32l-1.5-0.9l-1.3-0.6l-0.1-2l1.9-1.5l0.7-2.3l1.5-2.3l1-0.6l-0.1-1.5l-0.4-1.4l0.5-1.7l0.7-0.9l1.4,0.5l1.1,1.6h1.1
		l-0.3-2.3l0.3-1.6l0.5-1.3v-0.9h-1l-0.2-0.1l0.5-1.1l1.1-0.6h2.1l1.4-1.7l1.2,0.6l1.1,0.2l1.2-0.7l1.2,0.2l0.7-1.4l1.4-0.7l0.5,0.3
		l0.7-0.5l1.8-0.3L76.7,8l1.5,0.9l0.9,1.7l1.4,2.4l-2,0.7l-1.7,0.3l-0.2,2.1l0.6,2.4l0.5,2.6l2.3,2l1.4,1.5v1.7l0.6,1.4h0.9l0.9,0.9
		l0.7,1.4l0.7,1.5l0.9,0.5l-0.3,0.7l0.5,0.7L86,34.5l-0.6,1.8l0.2,2.3l-1.4,1.1l-1.5,0.7l-0.6,1.7l-0.6-0.6l-1.8,0.2v1.5l0.7,2.9
		l-0.2,2l-0.9,1.2L78.9,51l-1.5,0.7l-0.3,1.8l0.7,1.7l-0.7,1.1l-1.2-0.5l-2-0.2l-0.3,1.1l0.6,1.4l2.3,1.2l0.3,1.1l1.7,1.1l0.7-0.7
		l1.5-0.3l1.5,0.6l1.1,0.5l2.1-0.5l2.1,1.1l2.4,1.2l2.1,0.7l3.8,1.2h2.8l2.1,0.5V67L99,67.9l-1.8,2l-2.1,2l-2.3,0.7l-0.5,1.7
		l-0.2,2.3l1.7,2.6l2.1,0.9l1.8-0.5l1.1,0.5l1.8,0.5l2.1,0.7l1.2,1.1l1.2,1.1l1.1,0.7l0.3,1.5l-2.1,0.7l-1.1,1.5l-1.5,1.4l-0.6,1.7
		l1.4,1.7l0.5,1.4l-0.3,1.8l1.2,0.7l1.5,0.7l2.1,0.9l-0.7,1.1l-0.6,1.1l-0.3,2.3l-0.6,0.9l-1.4,1.5l-1.8,1.4l0.3,1.5l-1.4,0.2
		l-0.6,1.4l0.6,2.1l-1.7,1.1l-1.4,2.3l-1.2,1.2l-0.9-0.2l0.9-2.3v-0.9l-1.1,0.7l-0.6,1.8l-1.4-0.5l-1.2-1.8v-2.3l-1.1-0.5l-1.2-0.6
		l-0.3-0.5l-1.4-0.3l-0.2-2l-2.6-1.4l0.3-2.6l-1.8-2.3l-2.4-2.8L81,94.7l-1.2-2.9l-1.2-2.3L77,88.2L76.1,87l-0.9-0.3l-0.2-1.5
		l-0.5-0.7h-1.1l-0.7-0.2"/>
</g>
<circle class="st1" cx="69.5" cy="40.8" r="1.6"/>
<text transform="matrix(1 0 0 1 43.3729 34.4634)" class="st2 st3 st4">Dehradun</text>
</svg>
