<svg id="svg2169" xmlns="http://www.w3.org/2000/svg" viewBox="0 0 692 559.8"><defs><style>.cls-1{fill:#b1e9f2;stroke:#fff;stroke-width:2px;}.cls-2{fill:#333;}.cls-3{isolation:isolate;font-size:58.31px;fill:#3d3808;font-family:Roboto-Regular, Roboto;}</style></defs><g id="layer12"><path id="path3180" class="cls-1" d="M548.65,352.56,553,341.62l-5.1-9.47V317.57l-8.38-13.49-15.67-9.47-2.19-9.48-6.2-3.28,1.1-10.57,4-7.29H510l-17.86-7.29-14.58-6.19-7.29-4-6.2-7.29-6.19-1.09,6.19-15.68v-6.19l-7.28,5.1-4,12.39-9.48-3.28-8.38-12.39V202.4l-7.29-3.28-8.38-4-2.19-3.28-9.48-2.19-1.09-13.48-17.86-9.48,2.19-17.86-12.4-15.67-16.76-19-7.29-23-8.38-20-8.39-15.67L327.05,46l-6.19-8.38-6.2-2.19L313.57,24.9l-3.28-5.1H303l-5.1-1.09v3.64l-10.21,12L283.32,52.6,272,68.27l-11.3,13.12-5.1,15.68L242.5,111.65l-7.66,15.67-7.65-3.65L217.71,116l-6.19,3.28-4.37,10.2-7.66,15.68-4.37,9.47,3.64,6.93,7.66,9.47-6.2,6.2-13.12,6.92-8.75,12,3.28,13.12,5.11,12L176.53,229l-4.37,7.66,4.37,6.92,3.28,13.12-10.2,8.75-13.13,13.12L159,291.69l8.74,6.93h9.48l2.55,11.3,3.64,6.92,2.56,8.75.73,5.1,9.47,11.3,4.37,7.65v9.48l-4.37,7.65,5.1,12,.73,9.48-8.74,11.29,6.19,4.38h8.75l6.19,3.28,6.2,4.37-1.82,9.48,4.37,7.65,11.3,5.1h10.21l5.1-7.65,11.3-4.37,7.65-8.75,7.65-2.55,10.21,6.19,6.92-5.1,3.28-8.75,5.11-.72h10.2l6.2,7.65-7.66,6.2,6.93,4.37L324.5,428l8.75,1.83-1.82,7.65-1.82,10.2,4.37,7.66L336.53,471l-6.92,4.37-11.3.73-2.55,10.21,4.37,9.47,9.48-.72,12,1.82L338,506.36l.73,12,4.37,5.1,4.38-3.64,10.2-3.28h8.75l7.65,3.28V509.64l1.82-7.65v-7.65l3.28-6.93,9.48-5.1,12,3.28,3.28-9.48v-12l7.65-.73,6.93-4.38.73-8.74,9.47-.73,6.2-10.21,3.28-11.3,5.1-2.55,11.3-.73,10.2-6.92,9.48-15.67,7.65-7.66h10.21l4.37,7.66,4.38-4.38,10.2-10.2,12-8.75,10.2-13.12,15.31-13.12Z"/></g><circle class="cls-2" cx="344.02" cy="272.03" r="11.3"/><text class="cls-3" transform="translate(234.35 335.78)">Haridwar</text></svg>