<svg xmlns="http://www.w3.org/2000/svg" width="24.22" height="20.375" viewBox="0 0 24.22 20.375">
  <defs>
    <style>
      .cls-1 {
        fill: #fff;
        fill-rule: evenodd;
      }
    </style>
  </defs>
  <path id="menu" class="cls-1" d="M1431.75,176.437a1.952,1.952,0,0,1,1.96-1.94h20.31a1.94,1.94,0,1,1,0,3.879h-20.31A1.952,1.952,0,0,1,1431.75,176.437Zm22.27,6.3h-20.31a1.94,1.94,0,1,0,0,3.879h20.31A1.94,1.94,0,1,0,1454.02,182.739Zm0,8.242h-14.81a1.939,1.939,0,1,0,0,3.878h14.81A1.939,1.939,0,1,0,1454.02,190.981Z" transform="translate(-1431.75 -174.5)"/>
</svg>
