<svg id="svg2169" xmlns="http://www.w3.org/2000/svg" viewBox="0 0 692 559.8"><defs><style>.cls-1{fill:#c1f7bf;stroke:#fff;stroke-width:2px;}.cls-2{fill:#333;}.cls-3{isolation:isolate;font-size:52.83px;fill:#3d3808;font-family:Roboto-Regular, Roboto;}</style></defs><g id="layer17"><path id="path3217" class="cls-1" d="M681.16,425.72l-4,10.57L664,442.89l-13.21,3-7.59,9.58L632.62,467l-3,12.21L624,485.82l-9.57-13.21-9.58-4-9.57,5.61-8.59,10.57-5.61-6.61-9.58-7.59,6.61-4-2-7.6-9.57-1-4.62-4-9.58-1-10.57,4.62-13.21-4.62-12.21-7.6-3-8.58-10.56-6.61-11.56-4L478.08,433l-15.19,9.57H413.36l-14.2,2-17.17-3-16.18-1-17.17-3-9.57-7.6-13.21-7.59H315.29l-11.56-5.61,5.62-6.61-6.61-8.58-6.6-9.58-13.21-9.58-12.22-14.19-12.22-7.6-7.59-4-1-8.59,3-10.56L261.47,326l5.61-8.59-4.62-2H251.89l-10.57,1-17.17-5.61L210,306.19l-14.19-6.61-13.21-3L174,307.18l-8.58,3-10.57-8.59-4.62,1-4.63,10.57-11.55-2-12.22-12.22-4.62-11.56-1-10.56-11.56-6.61-7.6,4-8.58-4-11.56-4.62L66.31,258,54.1,255l-14.2-2-7.6-9.57L25,236.51l-6.61-12.22-6.6-8.58-1-9.58,10.24-2.31,8.58-6.93L38.25,190l6.27-9.24V168.82l6.94-11.89-.66-5,4.62,1-1,14.2,2,8.58,7.59,2,9.58-8.59L81.17,154l3-16.18,4-11.56,13.21-7.59L111.88,110l4.63-13.21,2-4.62,5.61,1,4.62,7.6,10.57,1,12.22,4,11.56,7.6,3,5.61,10.56,3h13.21l19.81,6.6,13.21,2L236,120.94l11.56-12.22,9.57-11.56L266.75,84,281.94,72.4h20.14L315.29,78l10.57,7.6,11.55,12.22L349,105.42l8.59,13.21,4.62,9.57,6.6,3,7.6,1,3,7.59,9.58,2,13.21-7.59,4-12.22,3-8.59,2-4.62,7.6,2,5.61,4,11.56-1,10.56-5.62,13.21-4.62,7.6,3,4,4.62,7.59-1L492,118.63l4.62,7.59-3,10.57,3,11.56,7.6,12.21,14.2,4.63,8.58,4.62v7.6l6.61,4.62,8.58-1,9.58-8.59,5.61-3,10.57,7.59,14.2,4,8.58,2,9.58-2-6.6,9.57-7.6,6.61,10.57,12.22,7.59,4.62,1,6.6,8.59-1,11.56,4-2,12.22h-8.58l-6.61,4-1,13.21-5.61,4L591,253l-3-10.56-4.62-4.63-5.61,4.63-5.62,1-3,4.62,4,8.58,7.6,4-1,13.21,3,9.57,9.57,4.62,8.59-4.62,7.59,5.62,5.62,4.62,13.21,5.61,7.59,4.62,5.61,10.57L645.17,325l-7.6,4L633,338.55l-5.61,12.21-9.58,7.6,4.62,8.58,8.59,8.59,8.58,9.58,9.58-5.62,11.56,4,10.56,4.63,2,10.56-5.62,5.62,8.59,16.18,4.95,5.28Z"/></g><circle class="cls-2" cx="423.12" cy="289.04" r="10.24"/><text class="cls-3" transform="translate(274.52 251.7)">Nainital</text></svg>