<?xml version="1.0" encoding="utf-8"?>
<!-- Generator: Adobe Illustrator 25.4.1, SVG Export Plug-In . SVG Version: 6.00 Build 0)  -->
<svg version="1.1" id="svg2169" xmlns="http://www.w3.org/2000/svg" xmlns:xlink="http://www.w3.org/1999/xlink" x="0px" y="0px"
	 viewBox="0 0 692 559.8" style="enable-background:new 0 0 692 559.8;" xml:space="preserve">
<style type="text/css">
	.st0{fill:#A9F7AC;stroke:#FFFFFF;stroke-width:2;}
	.st1{fill:#333333;}
	.st2{fill:#3D3808;}
	.st3{font-family:'Roboto-Regular';}
	.st4{font-size:45.2947px;}
</style>
<g id="layer16">
	<path id="path2214" class="st0" d="M608.2,217l-6.5,6.5l-4.8,14.7l-8.2,1.7l-7.4,0.9l-0.9,10.5l-4,6.5H570l-5.6-3.5l-6.5,3.4
		l-11.3,3.4l-3.4,7.4l-9.1,0.9l-8.2,4l-3.4,9.9l4,4l8.2,4.8l1.7,4l2.5,4.8l5.7,2.5l2.5,4.8v9.1l1.7,4.8l0.9,10.5l-2.5,6.5l-3.4,4.8
		v9.1l2.5,9.1l2.5,5.7l-3.4,6.5l-4,3.4l2.5,4l4,4.8l-1.7,4l-4,8.2l-4-2.5l-2.5,0.9l-5.7,5.7l-1.7,9.9l3.4,5.7l1.7,5.7l-6.5,0.9l-4,4
		l-1.7,12.2h-13l-4.8-0.9l-1.7,4l-4,11.3l-9.1,7.3l-11.3,6.5l-3.4,10l-2.5,13.9l-6.5,13l-8.2,7.4l-6.5-1.7l-1.7-7.4l0.9-12.1l-4-0.9
		l-9.3,0.9h-9.3l-10.2-3.4l-7.4-4h-11.3l-14.7-2.5l-8.8-5.9l-10.2-8.2l-2-4l-9.3,0.6l-7.9,0.6l-12.1-6.8l-7.4-7.9l-9.3-5.4
		l-10.2-5.9l-16.7-8.8l-7.4-7.4l-12.1-7.9l-8.8-8.8l-7.9-10.2l-3.4-8.8l-2.5-6.8v-18.1l-3.4-6.8l-3.4-8.8l-3.4-5.9l-1.4-10.8
		l-8.8-1.4l-11.3-1.4l-7.4-4l-7.9-5.9l-10.8-1.9l-9.3-4l-7.9-4.8l-7.4-3.4l-7.4,1.4l-2,2.3l-4-7.4v-11.3l-6.5-10.5l-12.1-7.4
		l-1.7-7.4l-4.8-2.5l0.9-8.2l3.1-5.7h-8.2l-13.9-5.7L96.6,236l-5.7-3.1l-4-3.1l5.7-9.1l7.4-12.1l9.1-5.7l-3.1-11.4l3.1-7.4l7.4-0.9
		l-1.7-8.2l9.6-7.4l7.4-8.2l3.1-4.8l1.7-12.1l3.1-5.7l2.3-3.7l1.1-2l7.4-3.1l5.7-6.5l5.7-1.7l7.4,7.4l7.4,4l8.2-4.8l4-6.5l8.2,1.7
		l2.5,7.4l4.8,5.7l6.5,4l-2.5,8.2l0.9,8.2l9.6,4.8l7.4,0.9l5.7,3.1l7.4-9.6l3.1,13l8.2-9l6.5-2.5l8.2,2.5h4.8l0.9,5.7l6.5-1.7
		l5.7,3.1l5.7-5.7l-3.1-4.8l2.6-9.6l-7.4-4l-2.5-4l7.4-4v-17l3.9-3.1l5.7-5.7V95.3l8.2-4l4.8-7.4l3.1-5.7l11.3-2.5l3.1-11.3l5.7-3.1
		l9.1,3.1l8.2-2.5l8.2,4.8l7.4,7.4l6.5-3.1l4.8-6.5l7.4,3.1l5.7,3l5.7-2.5l4.8-6.5l8.2-2.5l6.5-2.5l6.5-2.5l4.8-4.8h4.8l0.9,0.9
		l4,5.7l-0.9,5.7l4,11.3l5.7,8.2l0.9,12.1l7.4,4.8l9.9,4.8l11.3-1.7l9.1-4.8h17.3L504,88l-2.5-8.2l10.5-4l9.9-1.7l6.5-2.6l4,4.8
		l4,7.4l6.5,4l4,6.5l7.4,9.1h2.5l-4,8.2l-0.9,9.9v4.8l5.7,6.5l2.5,5.7l6.5,6.5l4.8-1.7l5.7-0.9l4.8,8.2l1.7,9.1l-4.8,7.4l0.9,8.2
		l11.3,2.5l2.5,9.9l0.9,4.8l4,5.7l-4.8,7.4l9.9,4l6.5,5.7"/>
</g>
<circle class="st1" cx="411" cy="279.6" r="8.8"/>
<text transform="matrix(1 0 0 1 261.5645 244.5305)" class="st2 st3 st4">P</text>
<text transform="matrix(1 0 0 1 289.8945 244.5305)" class="st2 st3 st4">auri Garhwal</text>
</svg>
