<svg id="svg2169" xmlns="http://www.w3.org/2000/svg" viewBox="0 0 692 559.8"><defs><style>.cls-1{fill:#cad8ed;stroke:#fff;stroke-width:2px;}.cls-2{fill:#333;}.cls-3{isolation:isolate;font-size:30.79px;fill:#3d3808;font-family:Roboto-Regular, Roboto;}.cls-4{letter-spacing:-0.02em;}</style></defs><g id="layer21"><path id="path7154" class="cls-1" d="M316.67,548.77v.77h-5l-8.27-.58-6.16-2.69-7.12.58-5.59-4.43-8.27-3.27-5.58-4.43-6.74-6.16-5-6.73H249.5l-1.74.57L246,520.67l-2.69-4.43-5-4.42h-6.54l-7.7-3.85-1.73-7.12-1.73-4.43-1.74-7.7-2.69-9.43L210,472.17l.58-5.58-2.7-6.74-5.58-3.27-6.16-1.73-5-1.73-4.43-2.31-1.15-3.28-2.31-2.31-5.58-7.69H165l-2.31-1,1.74-5.77-2.89-5.2v-4l7.51,1.16,2.31,3.46,8.66,1.15,4.62-6.35,5.77-4,5.2,1.73,2.88,6.93,4.62,2.89,2.89-.58h4.62l4.62,2.31,4-3.46,5.2-2.89,3.46-4.62,4.62-3.46-2.89-5.2-2.88-4-.58-5.78-8.66-2.88-5.2-1.73.58-2.31,5.77-.58,3.47-8.66,1.73-6.93,11.55-2.89,5.19-1.15,5.2,2.31,2.31,3.46,6.35-4.62,4.62-1.15,5.2,2.31,8.08-.58-.58-8.66-5.77-6.93L259.12,354l-4-2.89-4.62-2.31-3.47-4-2.31-7.51-2.3-5.2-1.16-6.92,2.31-10.4.58-14.43,1.15-9.82,5.78-8.66.57-11,1.16-7.51,2.31-8.08-1.73-5.2-5.2-1.15-3.47-1.73-2.88-4.62-.58-5.2-4-2.89v-6.35l-4-2.31-4-4-6.92-4.62L215.24,216l-2.31-1.73,1.92-4.43-1-5.58,2.5-2.5-2.11-5.2,6.15-3.08,1.54-6.16,4.05-3.66-1-5.58,1-6.16v-3.65l-3.66-3.08-.58-4.62-2.5-1.54-1-3.66v-3.66l.57-3.65-3.08-7.12-1-5.2-2.11-3.66-1.54-4.62,4-5.58,2.11-7.12,3.08-5.2,3.08-3.65,2.12-3.08L221,96.67l.58-5.58L219.47,88l-1.54-6.74-.58-3.08-4-.57-2.5-6.16-4-3.66-2.5-5.2L206.38,58l6.16-2.5,5.58-2.11,3.66-3.08,5.58,2.5,7.7,1,6.16-.58,4.62,1L248,52.6l-4.62-6.16-2.5-6.16V34.12l4.61-5.58L248,23.92,251.61,27l3.85-3.85,2.89-4.81,1.35-5.2h5.19L269.13,16l5.77,6.16V27l-1,6.16,5.2,2.31,5.77-.58,4.23,1.92,2.31,4.81L292,47.4l-1.54,7.12-4.23,5.77-6.74,3.28-2.89,4.81,3.28,4.23,1.92,6.16v4.81l1.35,8.09,2.31.38.57,3.27-2.88,2.31v4.24l4.81,3.27,5.2,4.81,4.81-1,6.16,2.31,1.92-3.85h4.24l5.77,1.35,7.7,7.12a59.91,59.91,0,0,1,5.77,3.27c1.93,1.35,4.81,3.27,4.81,3.27l7.12,3.85,2.89-.58,4.81-3.27,3.28,1.92,1.34,5.2,4.24,2.89,4.23,2.89,7.7,1.92a27.6,27.6,0,0,1,7.12,1,11.44,11.44,0,0,1,4.24,2.31l4.81,6.16,4.23,4.23,2.31-1,2.31-2.31,3.27,1,3.27-2.89,1.93-4.24,1.92-5.77,4.82,1.92,3.27,3.28,4.23,1.92,3.27,2.31,6.74,5.77,5.2,2.31,7.12,2.89,3.85,4.81h2.88l7.7,3.85,7.12,4.81,5.78,3.28,2.31,5.19,2.88,5.78,1.93,4.23,4.81,6.16,5.2,2.89,5.77,4.81,6.74,2.89,5.77,1.92h5.78l5.19,1.92,6.16,2.89,4.81,2.31h11.94l3.84,1.93,5.78,1.92,5.19,1,5.78,2.89,4.23,3.27,1.35,5.2-.58,8.08,2.31,5.78v4.23l-2.88,1.35h-4.24l-6.16-.58-6.16,2.89h-5.77l-3.27-6.74.58-6.74-3.28-2.88-3.85,4.23-3.85,8.66-6.15,7.12,2.31,6.74v8.08l-7.13,4.81-1.92,5.2-5.2,3.85-6.16,1.93-3.27,6.15-9,2.89-1.35,5.2v9.62l-3.85,5.2-5.77,4.23L471,320.89l-5.19,7.7-5.78,6.74L450.43,333h-7.12l-9.05,4.81-7.12,6.73-1,8.09-.58,10-2.89,3.85-.57,9L416,377.48l-4.81,6.16-7.12,4.23,1,14.82-8.66.58-7.7-3.28-11.93,1.35-6.16,4.81-3.28,11-8.66,3.28-1,6.16,2.31,8.08,1,5.2,3.85,2.3,1.93,3.85,1,4.82,6.74,6.15a25.49,25.49,0,0,1,1.34,5.78c0,1.92.39,8.08.39,8.08l-4.24,9.63-4.81,6.73-4.81,2.31-4.81,5.78-4.81,3.27,3.27,6.16-1.35,4.81-5.77,3.27L344.57,517l-2.88,4.82-5.2,1.34-.38,5.2,1,2.89,1,4.23-4.23,1-2.89-3.85-6.16-1.34-8.08,1.34-2.89,4.82,2.31,5.19.58,6.16Z"/></g><circle class="cls-2" cx="340.06" cy="267.01" r="5.97"/><text class="cls-3" transform="translate(272.98 311.49)">Pitho<tspan class="cls-4" x="71.48" y="0">r</tspan><tspan x="81.3" y="0">agarh</tspan></text></svg>