<svg id="svg2169" xmlns="http://www.w3.org/2000/svg" viewBox="0 0 692 559.8"><defs><style>.cls-1{fill:#e5df93;stroke:#fff;stroke-width:2px;}.cls-2{fill:#333;}.cls-3{isolation:isolate;font-size:64.18px;fill:#3d3808;font-family:Roboto-Regular, Roboto;}.cls-4{letter-spacing:-0.02em;}.cls-5{letter-spacing:-0.02em;}.cls-6{letter-spacing:-0.01em;}</style></defs><g id="layer23"><path id="path9139" class="cls-1" d="M241.3,467.1l-2-4.41-5.62-10.43-9.22-5.61L220,444.24V429.4l4.41-9.23L220,414.56l-4.42-8V393.7l-6.81-10.43-8-3.61v-10L196.37,358,194,345.17l5.62-10.43L210,321.1v-16l-10.43-5.62-4.41-5.62,8-9.22L213.62,279l5.61-12.83V247.7l-2.4-13.64-3.61-12.84,10.43-5.61,8-5.62,2.41-10.43,6.81-10.43,5.62-18.45V149.83l3.61-18.45V102.5l6.82-14.85,16-1.2L281,76l12.83-5.61,18.45-6.82,11.63-10.43,4.42-11.63L327.13,31.1l3.61-9.23,2.41-4.41,5.62,9.23,24.06,9.22,12.84,10.43,16,12.84,18.45,9.22,16,5.62,10.43-5.62,12.83,6.82,4.81,1.2,4.42,2.81,15.24,3.21,12,3.21,10.43,4.41h10.43l12,7.62,1.61,16.85,6,16.85,13.64,6,12,1.61,9.22,15.24-6,16.84-3.2,15.25-9.23,9.22-15.24,7.62-9.23,13.64-16.84,7.62-18.05-3.21v13.64l-4.42,16.85-6,4.41L469.93,273l3.21,10.43-13.64,4.41-16.85,4.41-4.41,13.64-4.41,21.26-4.41,21.26-7.63,16.84-15.24,4.41-13.63,1.61-3.21,10.43,4.41,10.43,12,6,15.24,10.43L423,413l-6,4.42,3.21,4.41,12,7.62v16.85l-10.43,3.2H408.16L392.92,445l-1.61,7.62-1.6,18-6,9.23-6,16.85-7.62,2.8L356,502l-14.84,5.62,3.61,11.63L338,530.88H313.5l-12.84,6.82-16,2.41-14-6.82-10.43-6.82-1.21-17.25-8-11.63-5.61-16,1.2-8-5.21-6.42Z"/></g><circle class="cls-2" cx="347.41" cy="309.09" r="12.43"/><text class="cls-3" transform="translate(213.84 267.15)">Rud<tspan class="cls-4" x="111.09" y="0">r</tspan><tspan x="131.55" y="0">ap</tspan><tspan class="cls-5" x="202.47" y="0">r</tspan><tspan class="cls-6" x="222.93" y="0">ay</tspan><tspan x="287.26" y="0">ag</tspan></text></svg>