<?xml version="1.0" encoding="utf-8"?>
<!-- Generator: Adobe Illustrator 25.4.1, SVG Export Plug-In . SVG Version: 6.00 Build 0)  -->
<svg version="1.1" id="Layer_1" xmlns="http://www.w3.org/2000/svg" xmlns:xlink="http://www.w3.org/1999/xlink" x="0px" y="0px"
	 viewBox="0 0 198.5 155" style="enable-background:new 0 0 198.5 155;" xml:space="preserve">
<style type="text/css">
	.st0{fill:#E1D6EA;stroke:#FFFFFF;stroke-width:2;}
	.st1{fill:#333333;}
	.st2{fill:#3D3917;}
	.st3{font-family:'Roboto-Regular';}
	.st4{font-size:12.6472px;}
</style>
<g id="layer24" transform="translate(-2.254509,-2.5065422)">
	<path id="path10126" class="st0" d="M60.5,142.2l-2.9-1.3l-2.3-1.1l-1.8-1.1l0.5-2.7l-0.7-2.1l-2.1-2.5l0.9-2.5l2.3-2.1l1.6-2.3
		l3.2-1.1l-0.5-2.3l-1.6-1.1l-1.8-1.6l-1.8-1.6l-3.2-1.1l-2.7-0.7l-1.6-0.7l-2.7,0.7l-3.2-1.3l-2.5-3.9l0.2-3.4l0.7-2.5l3.4-1.1
		l3.2-2.9l2.7-2.9l2.7-1.3v-2.1l-3.2-0.7h-4.1l-5.7-1.8l-3.2-1.1L30.7,88l-3.2-1.6l-3.2,0.7l-1.6-0.7l-2.3-0.9L18.2,86l-1.1,1.1
		l-2.5-1.6L14.1,84l-3.4-1.8l-0.9-2.1l0.5-1.6l2.9,0.2l1.8,0.7l1.1-1.6l-1.1-2.5l0.5-2.7l2.3-1.1l0.7-2.5l0.7-1.1l2.5,0.9l1.6-1.1
		l1.6-2.5l1.6-2.3l2.3-1.6l0.5-0.2l1.8,0.9l2.9,0.5l2.3-0.5l1.8-0.2L39,64l1.3,2.1v2.3l2.3,2.1l3.4-0.2l3.4-1.8l2.7-2.7l1.3-3.2
		l2.3,0.7l1.1,2.9l2.7,1.1l-0.5,2.1l-2.3,1.3L56,73.2h2.9l2.9-1.8l2.1,0.7l1.1,3.6l2.3,2.3l1.6,2.3l1.8,1.8l2.1,3.6l2.1,1.6l3.2,0.2
		H80l1.3-0.5l2.1-3.2l3.2-1.1l2.1-0.2l4.1-0.7l1.1-2.3l0.7-4.5L95,73l1.8-2.7l1.6-3.6l1.8-3.4l0.7-4.1l-0.2-5.5l1.3-1.6l3.4-0.2
		l3.4-0.5l2.1-2.5l1.8-0.5l2.9,0.5l3.2-1.6l2.3-0.5l3.4,2.1l2.1-0.9l3.9-1.6l4.1-0.7l1.3-2.7l2.9-1.1l-0.2-3.6l-0.7-3.2l-1.1-3.4
		l-1.6-2.5l1.6-2.1l1.3-1.8v-2.7l2.1-1.6l3.6,0.7c0,0,0,1.8,1.1,1.8s2.7-2.9,2.7-2.9l4.5,0.2l2.1,2.7l2.7,2.7l1.6,2.3l0.5,3.2
		l-0.5,0.9l-0.7,1.8l0.2,2.1l-0.9,2.3l-2.3,2.1l-3.6,1.3l-2.5,1.1l-1.6,2.1l-3.2,0.2l-1.3,2.9v5.7l-0.7,3.6v4.1l-1.1,3.6l-1.3,2.1
		l-0.5,2.1l-1.6,1.1l-2.1,1.1l0.7,2.5l0.5,2.7v3.6l-1.1,2.5l-2.1,1.1l-1.6,1.8l0.9,1.1l2.1,1.1v1.1v2.1l-2.1,2.7l-1.1,2.1l0.5,2.5
		l0.9,2.3v2.1l1.6,0.7l1.3,2.1v2.5l0.9,1.6l0.9,1.1l-0.9,1.8v2.9l0.9,0.5l1.8,1.1l1.1,2.1H139l-1.3,1.3l-1.8,0.7l-1.8,0.7l-2.3,0.7
		l-1.3,1.8l-1.6,0.7l-1.6-0.9l-2.1-0.9l-1.3,1.8l-1.8,0.9l-2.1-2.1l-2.3-1.3l-2.3,0.7l-2.5-0.9l-1.6,0.9l-0.9,3.2l-3.2,0.7l-0.9,1.6
		l-1.3,2.1l-2.3,1.1v3.4l-1.6,1.6l-1.1,0.9v1.8v2.9l-2.1,1.1l0.7,1.1l2.1,1.1l-0.7,2.7l0.9,1.3l-1.6,1.6l-1.6-0.9l-1.8,0.5l-0.2-1.6
		h-1.3l-2.3-0.7l-1.8,0.7l-2.3,2.5l-0.9-3.6l-2.1,2.7l-1.6-0.9l-2.1-0.2l-2.7-1.3l-0.2-2.3l0.7-2.3l-1.8-1.1l-1.3-1.6l-0.7-2.1
		l-2.3-0.5l-1.1,1.8l-2.3,1.3l-2.1-1.1l-2.1-2.1l-1.6,0.5l-1.6,1.8L60.5,142.2z"/>
</g>
<circle class="st1" cx="84.6" cy="106.2" r="2.5"/>
<text transform="matrix(1 0 0 1 49.9052 100.1675)" class="st2 st3 st4">Tehri Garhtwal</text>
</svg>
