<?xml version="1.0" encoding="utf-8"?>
<!-- Generator: Adobe Illustrator 25.4.1, SVG Export Plug-In . SVG Version: 6.00 Build 0)  -->
<svg version="1.1" id="svg2169" xmlns="http://www.w3.org/2000/svg" xmlns:xlink="http://www.w3.org/1999/xlink" x="0px" y="0px"
	 viewBox="0 0 692 559.8" style="enable-background:new 0 0 692 559.8;" xml:space="preserve">
<style type="text/css">
	.st0{fill:#FFE3E3;stroke:#FFFFFF;stroke-width:2;}
	.st1{fill:#333333;}
	.st2{fill:#3D3808;}
	.st3{font-family:'Roboto-Regular';}
	.st4{font-size:34.0403px;}
</style>
<g id="layer15">
	<path id="path7093" class="st0" d="M646,374l-3.3,1.7l-4,1.9l-5,7.4l-2.1,3.3l2.1,6.2l2.8,3.3l-4.5,9l-3.3,6.6l-5,7.3L617,427
		l-5,4.5l-9-0.5l-7.4-3.3l-6.2-4.5l-4-7.4l-1.7-5.7l-3.3-4.5l-5.7-4l1.7-6.6l2.1-2.1l-4.5-1.7l-6.7,2.1h-5.7l-6.2-4l-1.7-5.7
		l6.2-2.1l4,1.2l2.8-3.3l-5.7-4.5l-7.4-1.7l-7.8-1.7l-4.5,5.7l-1.2,4.5l-0.5,5.7l-4.5,2.9l-4.5,0.5l-4.5-5l6.2-4l4.5-2.8l-4-5
		l-0.5-6.2l4.5-6.2l-5-2.8l-3.3-2.8l-6.2-6.7l-6.7-0.5l-6.6,3.3l-9,1.7l-4,5l-6.6,2.8l-2.1,4.5l-4-0.5l-4.5,5l-6.2-1.7l-5-4L461,363
		h-6.9l-6.2,2.8l-2.8,2.4l-4,1.2l-4.5,2.4l-6.7-1.2l-1.2-4.5l5-6.2l-4.5-5l-5.7-4.5l-4,5l1.2,4.5l-5,3.3l-7.4,2.4l-6.2-1.7H396
		l-4.5,4.5l-6.7-1.2l-2.1-0.5l-4.5,3.3l-6.7-1.7l-6.7-3.3l2.1-3.3l-2.8-4.5l-1.2-6.2l1.7-1.2l2.2-8.4l-1.2-7.8l-5-5l-4,2.8l-2.8-5.7
		l-3.3-5.7l-1.7-2.1l-4.1,5l-2.8,1.7l-6.2-1.7H330l-7.4,2.8l-3.3-3.3l-8.5-6.7l-5.7-8.5l-5-2.8l-4-2.8l-2.4-4.5l-8.5-5.7h-11.8
		l-2.8,0.5l-6.2,0.5l-4.5-5.7l1.2-5.7l3.3-4.5l-6.6-5l-6.7-6.7l2.4-7.4l-5-6.2l-7.8-2.8l-4,1.2l-6.2-4l-5.7-6.2l-5-1.2h-5.7
		l-4.5-7.4l-3.6-1.4l-2.1,2.1l2.1,7.4h-3.3l-2.8,4.5l9.5,5l-2.4,4l-4,1.7l-2.1,1.2l-4.5,0.5l-4-3.3l-1.7-6.7l-5-5.7l-4.5-6.7
		l-7.4,0.5l-4,5.7h-4l-5.7,1.2l-7.4-0.5l-1.2-6.2l1.2-5.7l-1.2-7.4l-3.3-4.5l-0.5-6.7l-5.7-6.7l-4.5-4c-0.7-1.6-1.3-3.3-1.7-5
		c-0.5-2.1-4.5-7.8-4.5-7.8l-2.8-1.2l-4,2.1l-2.8-1.7l-6.6,2.4l-8.5-2.4l-5-4.5l-4.5-3.3l-4.5-1.2v-6.2l-4.5-4l-5-3.3l-4.5-2.8
		l-4-1.7V153l4-4.5l5-3.3l6.2-3.3l4.5,2.4l7.4,0.5l4,5l-1.2-9.5l3.3-5l2.8-4.5l6.2,1.7l5,1.7l1.9,2.1l3.6,4l4.8,8.8l5.5,5.5l5.5,6.9
		l10.2,1.4l8.8,2.1l7.6,5.5l8.3,3.3l6.2,2.8l5.5-2.8l8.3,4.7l0.7,7.6l3.3,8.3l8.8,8.8l8.3,1.4l3.3-7.6l3.3-0.7l7.6,6.2l6.2-2.1
		l6.2-7.6l9.5,2.1l10.2,4.8l10.2,3.3l12.4,4l7.6-0.7h7.6l3.3,1.4l-4,6.2l-6.2,8.3l-2.1,7.6l0.7,6.2l5.5,2.8l8.8,5.5l8.8,10.2
		l9.5,6.9l4.7,6.9l4.8,6.2l-4,4.7l8.3,4h7.6l9.5,5.5l6.9,5.5l12.4,2.1l11.6,0.7l12.3,2.1l10.2-1.4h35.6l10.9-6.9l9.5-4.7l8.3,2.8
		l7.6,4.7l2.1,6.2l8.8,5.4l9.5,3.4l7.6-3.4l6.9,0.7l3.3,2.8l6.9,0.7l1.4,5.5l-4.8,2.8l6.9,5.5l4,4.8l6.2-7.6l6.9-4l6.9,2.8l6.9,9.5
		l4-4.7l2.1-8.8l7.6-8.3l5.5-6.9l9.5-2.1l9.5-4.7l2.1-6.2l5.5-6.9l-0.7-6.9l5.5,0.7l9.5,6.2l4.8,10.2l4,11.6l2.8,8.8l-0.7,10.9
		l4,13.1l6.2,4.8l2.2,4.1l-0.7,16.6L646,374z"/>
</g>
<circle class="st1" cx="311.6" cy="270.1" r="6.6"/>
<text transform="matrix(1 0 0 1 207.7539 307.6017)" class="st2 st3 st4">Udham Singh Nagar</text>
</svg>
