<?xml version="1.0" encoding="utf-8"?>
<!-- Generator: Adobe Illustrator 25.4.1, SVG Export Plug-In . SVG Version: 6.00 Build 0)  -->
<svg version="1.1" id="Layer_1" xmlns="http://www.w3.org/2000/svg" xmlns:xlink="http://www.w3.org/1999/xlink" x="0px" y="0px"
	 viewBox="0 0 315.36 241.92" style="enable-background:new 0 0 315.36 241.92;" xml:space="preserve">
<style type="text/css">
	.st0{fill:#EF9685;stroke:#FFFFFF;stroke-width:2;}
	.st1{fill:#333333;}
	.st2{fill:#3D3917;}
	.st3{font-family:'Roboto-Regular';}
	.st4{font-size:16px;}
</style>
<g id="layer14" transform="translate(-2.254509,-2.5065422)">
	<path id="path6106" class="st0" d="M302.07,105.35l-2.9,2l-2,2.3h-5.5l-1.1,3.2l-1.1,4.3l-0.3,5.5l-2.3,1.4l-4.9,1.4l-2.6,2.3
		l2,1.7l1.4,2.3l0.3,3.7l-1.1,4.6l-1.7,2.9l-1.1,2.9l-2.6,3.4l0.9,2.6l3.7,1.7l4.3,2.9l2.6,2l1.4,3.4l-2.3,2l0.6,2l-1.7,2l-3.2,1.7
		l-3.4-1.1l-4.6-1.7l-4,2.3l-2.3,0.9l-3.2-1.7l-2.6,1.4l-4-1.4l-4.6-2.3l-4-3.2l-3.2-2.6l-6-2.3l-1.4-2.9l-0.6-3.4l-2-2.9l-3.4-3.4
		l-2.6-3.4l-5.7-0.3c0,0-2,3.7-3.4,3.7s-1.4-2.3-1.4-2.3l-4.6-0.9l-2.6,2v3.4l-1.7,2.3l-2,2.6l2,3.2l1.4,4.3l0.9,4l0.3,4.6l-3.7,1.4
		l-1.7,3.4l-5.2,0.9l-4.9,2l-2.6,1.1l-4.3-2.6l-2.9,0.6l-4,2l-3.7-0.6l-2.3,0.6l-2.6,3.2l-4.3,0.6l-4.3,0.3l-1.7,2l0.3,6.9l-0.9,5.2
		l-2.3,4.3l-2,4.6l-2.3,3.4l-0.6,2.6l-0.9,5.7l-1.4,2.9l-5.2,0.9l-2.6,0.3l-4,1.4l-2.6,4l-1.7,0.6h-2.6l-4-0.3l-2.6-2l-2.6-4.6
		l-2.3-2.3l-2-2.9l-2.9-2.9l-1.4-4.6l-2.6-0.9l-3.7,2.3h-3.7l1.1-3.2l2.9-1.7l0.6-2.6l-3.4-1.4l-1.4-3.7l-2.9-0.9l-1.7,4l-3.4,3.4
		l-4.3,2.3l-4.3,0.3l-2.9-2.6v-2.9l-1.7-2.6l-1.1-2.9l-2.3,0.3l-2.9,0.6l-3.7-0.6l-2.3-1.1l-0.6,0.3l-2.9,2l-2,2.9l-2,3.2l-2,1.4
		l-3.2-1.1l0.9-0.9l0.3-3.7l-1.4-5.5v-2.9l3.4-0.3l1.1,1.1l1.1-3.2l2.9-1.4l2.6-2l-0.3-4.3l1.1-3.4l0.6-1.7l-0.9-1.4l0.6-1.4
		l-1.7-0.9l-1.4-2.9l-1.4-2.6l-1.7-1.7h-1.7l-1.1-2.6v-3.2l-2.6-2.9l-4.3-3.7l-0.9-4.9l-1.1-4.6l0.3-4l3.2-0.6l3.7-1.4l-2.6-4.6
		l-1.7-3.2l-2.9-1.7l-2.3-2.9l-3.4,0.6l-1.4,0.9l-0.9-0.6l-2.6,1.4l-1.4,2.6l-2.3-0.3l-2.3,1.4l-2-0.3l-2.3-1.1l-2.6,3.2h-4l-2,1.1
		l-0.9,2l-2,0.5l-1.9-2.8l-1.4-3.6l-0.2-1.7l2.8-3.3l2.4-0.9l3.8,1.2l1.4,2.4l2.4-1.2l1.4-3.1l-1.4-2.1l1.7-2.8l0.5-3.1l-1.9-3.6
		l-0.9-3.1v-1.2h2.1l1.9-2.1l3.8-3.3l0.5-4l3.3-2.4l1.9-2.1l1.2-4l1.7-1.2l3.1-0.2l4.3-2.1l3.1-0.7l2.1,1.2l2.8,0.2l3.1,1.2l1.2,1
		l1.9-4.3l4.3-2.8l3.8-0.2l4,0.5l2.4-2.4l2.1-2.4l2.8-0.5l1.2-2.8l4.5-1.2l2.8,2.1l2.4-1.2l0.2-1.4h2.8l1.9,0.2l1.9-2.4l2.6-2.6
		l1.4-1l2.4,0.7l2.1,0.5l0.2-3.3l2.4-1h4.3l4.7-0.7l3.6,1.9l1.9,3.6l1.4,2.6h2.6l1.4-1.2l2.8,1.2l3.1,3.1l2.4,3.3l1.9,3.6l5-0.2
		l4.7-0.7l3.1-1.4l2.4-3.8l5.5-1.4l4,2.6l2.6,1l1.7,3.3l3.3,1.2l1.2-1.9l3.6,1.7l4.5-0.2l4.5,0.7l4.3,0.5l2.8-1.4l2.6-1.2l0.7,2.1
		v2.1l2.1,3.3l0.5,2.1l1,2.8l3.1,3.6h3.3l1.9,3.8l3.3,0.5h2.6l1.2-2.1l3.3,0.9l2.6,1.4l2.8-1.4l3.6-1.2h1.7l0.5-3.6l-0.7-1.9
		l-2.1-1.2l0.5-4.3l-1.4-2.6l-3.6-1.9l-1.7-3.1l-1.2-2.4l-0.7-0.9h-2.4l-1.7-3.6l-0.2-3.8l-0.3-3.1v-2.5l0.5-3.1l-0.3-2.2l1.4-3
		l5.1-3l5.3-1.6l0.3-3.8l2.4-5.3l3.8-2.7l0.5-3.1l0.3-3.8l0.7-2.7l1.5-0.3l0.7-2l1.7,1.7l1.5,0.2h2l1.5,1.7l1,1.2l0.7,3l1.5,1l3.7,2
		l1.2,2.5l1,2.7l1.5,3l3.5,2l2.7,2.2l0.3,3l1.5,3l2,2.2l1.5,2.5l-1.7,2.7l-1.2,3.5l3.2,1.7l3.7,1.5l1,3.2l1.7,3.5l-0.5,2.7v3.7
		l1.7,3l2.2,2.7c0,0,0.7,0.3,2.5,1.2c1.7,1,0.5,1.5,0.5,1.5l3,0.3l2,1l2.7,1.2l2.5,0.3l1.7,1.7v3.7l1.7,1.2l1.2,2.2v3"/>
</g>
<circle class="st1" cx="159.72" cy="132.92" r="3.1"/>
<g>
	<text transform="matrix(1 0 0 1 118.9702 122.0238)" class="st2 st3 st4">Uttarkashi</text>
</g>
</svg>
