<?xml version="1.0" encoding="utf-8"?>

<svg version="1.1"
	 id="svg2169" xmlns:cc="http://creativecommons.org/ns#" xmlns:dc="http://purl.org/dc/elements/1.1/" xmlns:inkscape="http://www.inkscape.org/namespaces/inkscape" xmlns:rdf="http://www.w3.org/1999/02/22-rdf-syntax-ns#" xmlns:sodipodi="http://sodipodi.sourceforge.net/DTD/sodipodi-0.dtd" xmlns:svg="http://www.w3.org/2000/svg"
	 xmlns="http://www.w3.org/2000/svg" xmlns:xlink="http://www.w3.org/1999/xlink" x="0px" y="0px" viewBox="0 0 692 559.8"
	 style="enable-background:new 0 0 692 559.8;" xml:space="preserve">


<defs>
<style type="text/css">
	.st0{display:none;}
	.st1{display:inline;fill:none;stroke:#000000;}
	.st2{fill:#B1E9F2;stroke:#FFFFFF;stroke-width:2;}
	.st3{fill:#EF9684;stroke:#FFFFFF;stroke-width:2;}
	.st4{fill:#FFE3E3;stroke:#FFFFFF;stroke-width:2;}
	.st5{fill:#A9F7AC;stroke:#FFFFFF;stroke-width:2;}
	.st6{fill:#C1F7BF;stroke:#FFFFFF;stroke-width:2;}
	.st7{fill:#FCF8AE;stroke:#FFFFFF;stroke-width:2;}
	.st8{fill:#F0C1F4;stroke:#FFFFFF;stroke-width:2;}
	.st9{fill:#EBCFF9;stroke:#FFFFFF;stroke-width:2;}
	.st10{fill:#CAD8ED;stroke:#FFFFFF;stroke-width:2;}
	.st11{fill:#A6C6F4;stroke:#FFFFFF;stroke-width:2;}
	.st12{fill:#E5DF93;stroke:#FFFFFF;stroke-width:2;}
	.st13{fill:#E1D6F2;stroke:#FFFFFF;stroke-width:2;}
	.st14{fill:#333333;}
	.st15{fill:#B4B02C;}
	.st16{fill:#3D3808;}
	.st17{font-family:'Roboto', sans-serif;}
	.st18{font-size:16px;}
</style>
</defs>

<sodipodi:namedview  bordercolor="#666666" borderopacity="1" fit-margin-bottom="0" fit-margin-left="0" fit-margin-right="0" fit-margin-top="0" gridtolerance="10" guidetolerance="10" id="namedview75" inkscape:current-layer="svg2169" inkscape:cx="622.37781" inkscape:cy="561.2467" inkscape:pageopacity="0" inkscape:pageshadow="2" inkscape:window-height="716" inkscape:window-maximized="1" inkscape:window-width="1366" inkscape:window-x="-8" inkscape:window-y="-8" inkscape:zoom="0.44454604" objecttolerance="10" pagecolor="#ffffff" showgrid="false">
	</sodipodi:namedview>
<g id="layer3" transform="translate(-2.254509,-2.5065422)" class="st0">
	<path id="path2169" inkscape:connector-curvature="0" class="st1" d="M615.6,751.1l-6.7,2.2l-4,5.8l-1.8,2.7l1.8,4.9l2.2,2.7
		l-3.6,7.1l-2.7,5.3l-4,5.8l-5.4,4.9l-4,3.6l-7.1-0.4l-5.8-2.7l-4.9-3.6l-3.1-5.8l-1.3-4.5l-2.7-3.6l-4.5-3.1l1.3-5.3l1.8-1.8
		l-3.6-1.3l-5.4,1.8h-4.5l-4.9-3.1l-1.3-4.5l4.9-1.8l3.1,0.9l2.2-2.7l-4.5-3.6l-5.8-1.3l-6.2-1.3l-3.6,4.5l-0.9,3.6l-0.4,4.5
		l-3.6,2.2l-3.6,0.4l-3.6-4l4.9-3.1l3.6-2.2l-3.1-4l-0.4-4.9l3.6-4.9l-4-2.2l-2.7-2.2l-4.9-5.3l-5.3-0.4l-5.3,2.7l-7.1,1.3l-3.1,4
		l-5.4,2.2l-1.8,3.6l-3.1-0.4l-3.6,4l-4.9-1.3l-4-3.1l-5.3-1.3h-5.4l-4.9,2.2l-2.2,1.8l-3.1,0.9l-3.6,1.8l-5.4-0.9l-0.9-3.6l4-4.9
		l-3.6-4l-4.5-3.6l-3.1,4l0.9,3.6l-4,2.7l-5.8,1.8l-4.9-1.3h-4.9l-3.6,3.6l-5.3-0.9l-1.8-0.4l-3.6,2.7l-5.3-1.3l-5.3-2.7l1.8-2.7
		l-2.2-3.6l-0.9-4.9l1.3-0.9l1.8-6.7l-0.9-6.2l-4-4l-3.1,2.2l-2.2-4.5l-2.7-4.5l-1.3-1.8l-3.1,4l-2.2,1.3l-4.9-1.3h-4.5l-5.8,2.2
		l-2.7-2.7l-6.7-5.3l-4.5-6.7l-4-2.2l-3.1-2.2l-1.8-3.6l-6.7-4.5h-4h-4.9l-2.2,0.4l-4.9,0.4l-3.6-4.5l0.9-4.5l2.7-3.6l-5.4-4
		l-5.3-5.3l1.8-5.8l-4-4.9l-6.2-2.2l-3.1,0.9l-4.9-3.1l-4.5-4.9l-4-0.9h-4.5l-3.6-5.8l-2.7-0.9l-1.8,1.8l1.8,5.8H264l-2.2,3.6l7.6,4
		l-1.8,3.1l-3.1,1.3l-1.8,0.9l-3.6,0.4l-3.1-2.7l-1.3-5.3l-4-4.5l-3.6-5.3l-5.8,0.4l-3.1,4.5H235l-4.5,0.9l-5.8-0.4l-0.9-4.9
		l0.9-4.5l-0.9-5.8l-2.7-3.6l-0.4-5.3l-4.5-5.3l-3.6-3.1c0,0-0.9-2.2-1.3-4s-3.6-6.2-3.6-6.2l-2.2-0.9l-3.1,1.8l-2.2-1.3l-5.4,1.8
		l-6.7-1.8l-4-3.6l-3.6-2.7l-3.6-0.9v-4.9l-3.6-3.1l-4-2.7l-3.6-2.2l-3.1-1.3v-4.5l3.1-3.6l4-2.7l4.9-2.7l3.6,1.8l5.8,0.4l3.1,4
		l-0.9-7.6l2.7-4l2.2-3.6l4.9,1.3l4,1.3V555l5.8-1.3l4.9-4l4.9-4l3.6-5.3v-6.7l4-6.7v-2.2h-6.7h-6.2l-6.7-2.2l-4.9-2.7h-7.6
		l-9.8-1.8l-5.8-4l-6.7-5.3l-1.3-2.7l-6.2,0.4l-5.4,0.4l-8-4.5l-4.9-5.3l-6.2-3.6l-6.7-4l-11.1-5.8l-4.9-4.9l-8-5.4l-5.8-5.8
		l-5.3-6.7l-2.2-5.8l-1.8-4.5V443v-4.5l-2.2-4.5l-2.2-5.8l-2.2-4l-0.9-7.1l-5.8-0.9l-7.6-0.9l-4.9-2.7l-5.3-4l-7.1-1.3l-6.2-2.7
		l-5.4-3.1l-4.9-2.2l-4.9,0.9l-3.6,7.1l-6.2,7.1l-5.3,6.7l-6.2,4.5l-5.3,5.3l-2.2,2.2l-2.2-4h-5.3l-4,4l-4.9,8l-5.3,3.6l-5.8,0.4
		l-2.7,1.3l-1.8,5.8l-3.1,5.4l-4.9,0.4l-0.4,4.5l-3.6,2.2l-4,0.4v6.2l-1.8,4.9l-6.2-1.8l-4.9,2.7l-1.8,3.6v4l-0.9,4v5.4l-4-1.8h-4.5
		l-5.3,1.8l-2.2,1.8l-2.2-2.7l-0.4-6.2l1.8-4.9l-6.2-0.9l-4.9,0.4l-2.2-4.9l1.3-5.4l5.8-0.4l3.6-2.2l-1.3-8l-2.2-4l0.9-5.3l0.9-4
		l-4.5-0.9l-3.6-4l-3.6-2.2l4-3.1l-3.1-4h-5.3l-2.7,0.4l-1.8,4.5l-3.6,2.7l-5.3-3.1l-4,1.3l-4,4.5l-5.8,2.2l-2.7,4h-6l-5.8-2.7
		l-2.2-4l0.9-4.9l-3.1-2.2l-3.1-1.8h-4.5l-3.1-2.2l4.5-5.8l-0.4-4.9l-2.7-6.2l2.2-4v-4.9l-2.2-4l-4.9-5.8l-0.4-2.7l-1.3-4.5
		l-1.8-3.6l-1.3-5.8h-4.9l-4.5-3.6l-1.3-6.7l6.7-6.7l5.3-4.5l-1.8-6.7l-2.2-3.6l2.2-4l5.3-4l-2.7-6.2l-1.8-6.7l4.5-6.2l6.7-3.6
		l3.1-3.1l-4-4.9l-1.8-3.6l2.2-4.9l4-8l2.2-5.4l3.1-1.8l4.9,4l4,1.8l4-8l6.7-7.6l2.7-8l5.8-6.7l5.8-8l2.2-9.4l5.3-6.2l1.8-4.5
		l-4-3.6l-4.5-2.7l-4.9-2.7l-2.7-0.9l-4.9,1.3l-7.1-3.6l-6.2-2.7l-4-2.2l-6.2-3.1l-5.3-3.1l-4-4l-4.9-1.8l-8-5.3l-4.5-2.7l-5-2.8
		l-1.3-5.4l-4-5.3l-2.2-4.9l-4.9-1.3l-5.3-3.6l-3.1-1.8h-10.7l-7.1-0.4l-1.3-4.5l4.9-4.5l10.7-2.2l8.5-3.6l12.5-2.2l6.7-6.7l8-4.9
		l8.5-3.1l9.8-2.7l7.6-8.5l2.2-6.7V114l-1.8-2.7l-3.6,0.9l-4-0.4l-8-4l-4.5-4.5l-3.6-4.9V95l7.1,1.3l3.6,1.8l-0.4-3.6l3.1-1.8
		l3.1,0.9l0.4-5.3l-1.3-7.1l2.7-2.7l-4-3.1l-7.6-2.2l-4.5-4l-1.8-4l2.2-5.8l-1.3-6.2l-4.9-3.1l-5.3-3.1l-4.5-2.2l-0.4-7.1l6.7-5.3
		l2.7-8l5.3-8l3.6-2.2l-0.4-5.3l-1.3-4.9l1.8-6.2l2.7-3.1l4.9,1.8l4,5.8h4l-0.9-8l0.9-5.8l1.8-4.5v-3.1h-3.6l-4.5,0.9l-3.6-5.3
		l-2.7-6.7l-0.6-3.7l5.3-6.2l4.5-1.8l7.1,2.2l2.7,4.5l4.5-2.2l2.7-5.8l-2.7-4l3.1-5.3l0.9-5.8l-3.6-6.7l-1.8-5.8V-73h4l3.6-4
		l7.1-6.2l0.9-7.6l6.2-4.5l3.6-4l2.2-7.6l3.1-2.2l5.8-0.4l8-4l5.8-1.3l4,2.2l5.3,0.4l5.8,2.2l2.2,1.8l3.6-8l8-5.3l7.1-0.4l7.6,0.9
		l4.5-4.5l4-4.5l5.3-0.9l2.2-5.3l8.5-2.2l5.3,4l4.5-2.2l0.4-2.7h5.3l3.6,0.4l3.6-4.5l4.9-4.9l2.7-1.8l4.5,1.3l4,0.9l0.4-6.2l4.5-1.8
		h8l8.9-1.3l6.7,3.6l3.6,6.7l2.7,4.9h4.9l2.7-2.2l5.3,2.2l5.8,5.8l4.5,6.2l3.6,6.7l9.4-0.4l8.9-1.3l5.8-2.7l4.5-7.1l10.3-2.7
		l7.6,4.9l4.9,1.8l3.1,6.2l6.2,2.2l2.2-3.6l6.7,3.1l8.5-0.4l8.5,1.3l8,0.9l5.4-2.7l4.9-2.2l1.3,4v4l4,6.2l0.9,4l1.8,5.3l5.8,6.7h6.2
		l3.6,7.1l6.2,0.9h4.9l2.2-4l6.2,1.8l4.9,2.7l5.3-2.7l6.7-2.2h3.1l0.9-6.7l-1.3-3.6l-4-2.2l0.9-8l-2.7-4.9l-6.7-3.6l-3.1-5.8
		l-2.2-4.5l-1.3-1.8h-4.5l-3.1-6.7l-0.4-7.1l-0.4-8l2.7-8l-1.8-4.5l3.6-6.7l11.6-4.9l6.7-1.3l1.8-8.5l3.1-9.4l7.6-5.3l1.3-9.4
		l-0.4-2.2"/>
	<path id="path2171" inkscape:connector-curvature="0" class="st1" d="M176.6,594.2L176.6,594.2z"/>
</g>
<g id="layer4" transform="translate(-2.254509,-2.5065422)" class="st0">
	<path id="path2194" inkscape:connector-curvature="0" class="st1" d="M-274.3,148l22.5,13.3l23.7,2.1l11.5,2.4l-0.6,25.4l-0.3,39
		l-19.2,31.1l-14.8,28.7l-21.9,12.7"/>
</g>
<g id="layer5" transform="translate(-2.254509,-2.5065422)" class="st0">
	<path id="path2183" inkscape:connector-curvature="0" class="st1" d="M842.4,854.8L829,841.4l-27.7-3.2l-14.2-15L770.5,809
		l-13.4-15l-18.2-11.1l-15-0.8l-5.5,19.8v15.8l-22.1-16.6l-11.9-8.7h-26.9l-12.6-15l-7.1-15l-13.4-7.1l-9.5-4.7l-0.8-11.1l1.6-15.8
		l3.2-13.4l4.7-11.1l10.3-8.7l5.5-4l-0.8-10.3v-7.9v-7.1v-8.7l7.9-8.7l5.5-6.3l5-0.9l6.6,4.2l4.7,1.4l5.6-2.8l0.5-4.7l6.1-1.4
		l1.4-5.2l-2.3-4.2l-1.4-6.6l-1.4-2.8l-2.8-3.3l2.3-5.2l7,2.8l4.2,1.9l3.3,1.4v-7.5l-0.9-8.9l0.5-6.6l0.5-5.6v-4.2l1.4-3.7l3.3-3.7
		l-0.9-5.6l-0.9-2.3l-4.7-1.4l-3.7-3.7l-1.9-5.2l-2.8-5.2l1.4-6.6l-1.9-4.2l-5.6-2.8l-1.9-2.3l-0.9-4.7l-2.3-5.2l2.8-4.7l8-1.4
		l6.1,1.4l2.8,3.7l4.2-0.9l-0.9-4.2l-0.9-2.8l0.5-5.2l5.2-1.4l2.8-4.7l4.2-4.2l5.6-3.3l1.4-4.7l-3.3-6.1l4.7-3.3l4.7-5.6l4.7-2.3
		l4.7-6.6l4.2-9.4c0,0-0.5-6.1-0.5-8s-1.4-5.6-1.4-5.6l-6.6-6.1l-0.9-4.7l-1.9-3.7l-3.7-2.3l-0.9-5.2l-2.3-8l0.9-6.1l8.4-3.3
		l3.3-10.8l6.1-4.7l11.7-1.4l7.5,3.3l8.4-0.5l0.9-10.8l7-4.2l4.7-6.1l6.1-1.9l0.5-8.9l2.8-3.7l0.5-9.8l0.9-8l7-6.6l8.9-4.7h7
		l9.4,2.3l5.6-6.6l5.2-7.5l7-1.4l5.6-4.2l3.7-5.2v-9.4l1.4-5.2l8.9-2.8l3.3-6.1l6.1-1.9l5.2-3.7l1.9-5.2l7-4.7v-8l-2.3-6.6l6.1-7
		l3.7-8.4l3.7-4.2l3.3,2.8l-0.5,6.6l3.3,6.6h5.6l6.1-2.8l6.1,0.5h4.2l2.8-1.4v-4.2l-2.3-5.6l0.5-8l-1.4-5.2l-4.2-3.3l-5.6-2.8
		l-5.2-0.9l-5.6-1.9l-3.7-1.9h-7h-4.7l-4.7-2.3l-6.1-2.8l-5.2-1.9H857l-5.6-1.9l-6.6-2.8l-5.6-4.7l-5.2-2.8l-5-5.7l-1.9-4.2
		l-2.8-5.6L822,168l-5.6-3.3l-7-4.7l-7.5-3.7H799l-3.7-4.7l-7-2.8l-5.2-2.3l-6.6-5.6l-3.3-2.3l-4.2-1.9l-3.3-3.3l-4.7-1.9l-1.9,5.6
		l-1.9,4.2l-3.3,2.8l-3.3-0.9l-2.3,2.3l-2.3,0.9l-4.2-4.2l-4.7-6.1c0,0-1.4-1.4-4.2-2.3c-2.8-0.9-7-0.9-7-0.9l-7.5-1.9l-4.2-2.8
		l-4.2-2.8l-1.4-5.2l-3.3-1.9l-4.7,3.3l-2.8,0.5l-7-3.7c0,0-2.8-1.9-4.7-3.3s-5.6-3.3-5.6-3.3l-7.5-7l-5.6-1.4h-4.2l-1.9,3.7
		l-6.1-2.3l-4.7,0.9l-5.2-4.7l-4.7-3.3v-4.2l2.8-2.3l-0.5-3.3l-2.3-0.5l-1.4-8v-4.7l-1.9-6.1l-3.3-4.2l2.8-4.7l6.6-3.3l4.2-5.6
		l1.4-7l-0.5-5.6l-2.3-4.7l-4.2-1.9l-5.6,0.5l-5.2-2.3l0.9-6.1V19l-5.6-6.1l-4.2-2.8h-5.2l-1.4,5.2L613,20l-3.7,3.7l-5.6-2.8
		l-4.7-2.3l-3.7-2.3v-5.6l-2.8-5.2l-3.7-3.3l-2.3-2.8H582l-6.1-2.3l-2.3-3.7L568-10l-8-3.7l-5.6-2.8l-6.1-1.9h-5.6l-3.3-8l-0.5-2.8
		l-4.7-0.9l-3.3-7l-3.7-9.4l-4.2-4.7h-7l-7,1.9l-4.2-1.9l-3.3-2.8h-3.7h-3.7l-2.8-2.8l-3.3-3.3l-6.6,2.8l-2.8,6.1l-5.6,0.9l-5.6-1.9
		l-4.2-0.5l-7,2.8l-0.5,4.2l-4.7,1.9l-6.6,0.9c0,0-0.5,5.2-3.3,5.2s-5.2-0.5-5.2-0.5l-9.4-1.8l-3.3-2.8l-2.3-3.3l-1.4-5.2l-1.9-2.8
		l-4.7-2.3l0.5-6.1l-1.9-3.3l-2.8-2.8l-3.7-4.7l-7.5,2.8h-5.6l-7.5,0.9h-6.6l-2.3-6.1v-5.6l-2.3-4.2l-3.3-2.3v-7l-3.3-3.3l-4.7-0.5
		l-5.2-2.3l-3.7-1.9l-5.6-0.5c0,0,2.3-0.9-0.9-2.8c-3.3-1.9-4.7-2.3-4.7-2.3l-4.2-5.2l-3.3-5.6v-7l0.9-5.2l-3.3-6.6l-1.9-6.1l-7-2.8
		l-6.1-3.3l2.3-6.6l3.3-5.2l-2.8-4.7l-3.7-4.2l-2.8-5.6l-0.5-5.6l-5.2-4.2l-6.6-3.7l-2.8-5.6l-1.9-5.2l-2.3-4.7l-7-3.7L284-211
		l-1.4-5.6l-1.9-2.3l-2.8-3.3h-3.7l-2.8-0.5l-3.3-3.3l-1.4,3.7l-2.8,0.5l-0.9,6.1l-0.9,6.1l0.5,6.1l-8.4,4.7l-2.8,8.9l-1.9,8.9
		l-8,2.8l-10.8,3.7l-3.7,7l2.3,4.7l-2.8,5.2v8.9l-10.8-6.1l-8.9-25.8l-8-15.5l-8.4-11.2l-8-19.7l11.7-26.2l0.7-17.5"/>
</g>
<g id="layer6" transform="translate(-2.254509,-2.5065422)" class="st0">
	<path id="path2192" inkscape:connector-curvature="0" class="st1" d="M894.5,246.2l6.1,13.1l28,16.6l21,14.9l19.2,6.1h8.7"/>
</g>
<g id="layer12" transform="translate(-2.254509,-2.5065422)">
	<path id="path3180" inkscape:connector-curvature="0" class="st2" d="M178.7,350.2l1.2-3l-1.4-2.6v-4l-2.3-3.7l-4.3-2.6l-0.6-2.6
		l-1.7-0.9l0.3-2.9l1.1-2h-2.9l-4.9-2l-4-1.7l-2-1.1l-1.7-2l-1.7-0.3l1.7-4.3v-1.7l-2,1.4l-1.1,3.4l-2.6-0.9l-2.3-3.4V309l-2-0.9
		l-2.3-1.1l-0.6-0.9l-2.6-0.6l-0.3-3.7l-4.9-2.6l0.6-4.9L132,290l-4.6-5.2l-2-6.3l-2.3-5.5l-2.3-4.3l-2.9-2.6l-1.7-2.3l-1.7-0.6
		l-0.3-2.9l-0.9-1.4h-2l-1.4-0.3v1l-2.8,3.3l-1.2,5l-3.1,4.3l-3.1,3.6l-1.4,4.3l-3.6,4l-2.1,4.3l-2.1-1l-2.6-2.1l-1.7,0.9L85,289
		l-2.1,4.3l-1.2,2.6l1,1.9l2.1,2.6l-1.7,1.7l-3.6,1.9l-2.4,3.3l0.9,3.6l1.4,3.3l-2.8,2.1l-1.2,2.1l1.2,1.9l0.9,3.6l-2.8,2.4
		l-3.6,3.6l0.7,3.6l2.4,1.9h2.6l0.7,3.1l1,1.9l0.7,2.4l0.2,1.4l2.6,3.1l1.2,2.1v2.6l-1.2,2.1l1.4,3.3l0.2,2.6l-2.4,3.1l1.7,1.2h2.4
		l1.7,0.9l1.7,1.2l-0.5,2.6l1.2,2.1l3.1,1.4h2.8l1.4-2.1l3.1-1.2l2.1-2.4l2.1-0.7l2.8,1.7l1.9-1.4l0.9-2.4l1.4-0.2h2.8l1.7,2.1
		l-2.1,1.7l1.9,1.2l1.9,2.1l2.4,0.5l-0.5,2.1l-0.5,2.8l1.2,2.1l0.7,4.3l-1.9,1.2l-3.1,0.2l-0.7,2.8l1.2,2.6l2.6-0.2l3.3,0.5l-1,2.6
		l0.2,3.3l1.2,1.4l1.2-1l2.8-0.9h2.4l2.1,0.9v-2.8l0.5-2.1v-2.1l0.9-1.9l2.6-1.4l3.3,0.9l0.9-2.6v-3.3l2.1-0.2l1.9-1.2l0.2-2.4
		l2.6-0.2l1.7-2.8l0.9-3.1l1.4-0.7l3.1-0.2l2.8-1.9l2.6-4.3l2.1-2.1h2.8l1.2,2.1l1.2-1.2l2.8-2.8l3.3-2.4l2.8-3.6L178.7,350.2
		L178.7,350.2z"/>
</g>
<g id="layer13" transform="translate(-2.254509,-2.5065422)">
	<path id="path5126" inkscape:connector-curvature="0" class="st3" d="M109.9,259.8l1-2.4l-2.1-1.9l-2.4-1.4l-2.6-1.4l-1.4-0.5
		l-2.6,0.7L96,251l-3.3-1.7l-2.1-1.2l-3.3-1.7l-2.8-1.7l-2.1-2.1l-2.6-0.9l-4.3-2.8l-2.4-1.4l-2.6-1.4l-0.7-2.8l-2.1-2.8l-1.2-2.6
		l-2.6-0.7l-2.8-1.9l-1.7-0.9h-5.7l-3.8-0.2l-0.7-2.4l2.6-2.4l5.7-1.2l4.5-1.9l6.6-1.2l3.6-3.6l4.3-2.6l4.5-1.7l5.2-1.4l4-4.5
		l1.2-3.6V194l-0.9-1.4l-1.9,0.5l-2.1-0.2l-4.3-2.1l-2.4-2.4l-1.9-2.6v-1.9l3.8,0.7l1.9,1l-0.2-1.9l1.7-1l1.7,0.5l0.2-2.8l-0.7-3.8
		l1.4-1.4l-2.1-1.7l-4-1.2l-2.4-2.1l-0.9-2.1l1.2-3.1l-0.7-3.3l-2.6-1.7l-2.8-1.7l-2.4-1.2l-0.2-3.8l3.6-2.8l1.4-4.3l2.8-4.3
		l1.9-1.2l-0.2-2.8l-0.7-2.6l1-3.3l1.4-1.7l2.6,1l2.1,3.1h2.1l-0.5-4.3l0.5-3.1l0.9-2.4v-1.7h-1.9l-0.4-0.1l0.9-2l2-1.1h4l2.6-3.2
		l2.3,1.1l2,0.3l2.3-1.4l2.3,0.3l1.4-2.6l2.6-1.4l0.9,0.6l1.4-0.9l3.4-0.6l2.3,2.9l2.9,1.7l1.7,3.2l2.6,4.6l-3.7,1.4l-3.2,0.6
		l-0.3,4l1.1,4.6l0.9,4.9l4.3,3.7l2.6,2.9v3.2l1.1,2.6h1.7l1.7,1.7l1.4,2.6l1.4,2.9l1.7,0.9l-0.6,1.4l0.9,1.4l-0.6,1.7l-1.1,3.4
		l0.3,4.3l-2.6,2l-2.9,1.4l-1.1,3.2l-1.1-1.1l-3.4,0.3v2.9l1.4,5.5l-0.3,3.7l-1.7,2.3l-0.9,3.2l-2.9,1.4l-0.6,3.4l1.4,3.2l-1.4,2
		l-2.3-0.9l-3.7-0.3l-0.6,2l1.1,2.6l4.3,2.3l0.6,2l3.2,2l1.4-1.4l2.9-0.6l2.9,1.1l2,0.9l4-0.9l4,2l4.6,2.3l4,1.4l7.2,2.3h5.2l4,0.9
		v2.6l-3.4,1.7l-3.4,3.7l-4,3.7l-4.3,1.4l-0.9,3.2l-0.3,4.3l3.2,4.9l4,1.7l3.4-0.9l2,0.9l3.4,0.9l4,1.4l2.3,2l2.3,2l2,1.4l0.6,2.9
		l-4,1.4l-2,2.9l-2.9,2.6l-1.1,3.2l2.6,3.2l0.9,2.6l-0.6,3.4l2.3,1.4l2.9,1.4l4,1.7l-1.4,2l-1.1,2l-0.6,4.3l-1.1,1.7l-2.6,2.9
		l-3.4,2.6l0.6,2.9l-2.6,0.3l-1.1,2.6l1.1,4l-3.2,2l-2.6,4.3l-2.3,2.3l-1.7-0.3l1.7-4.3v-1.7l-2,1.4l-1.1,3.4l-2.6-0.9l-2.3-3.4V309
		l-2-0.9l-2.3-1.1l-0.6-0.9l-2.6-0.6l-0.3-3.7l-4.9-2.6l0.6-4.9l-3.4-4.3l-4.6-5.2l-2-6.3l-2.3-5.5l-2.3-4.3l-2.9-2.6l-1.7-2.3
		l-1.7-0.6l-0.3-2.9l-0.9-1.4h-2l-1.4-0.3"/>
</g>
<g id="layer14" transform="translate(-2.254509,-2.5065422)">
	<path id="path6106" inkscape:connector-curvature="0" class="st3" d="M362.8,94.9l-2.9,2l-2,2.3h-5.5l-1.1,3.2l-1.1,4.3l-0.3,5.5
		l-2.3,1.4l-4.9,1.4l-2.6,2.3l2,1.7l1.4,2.3l0.3,3.7l-1.1,4.6l-1.7,2.9l-1.1,2.9l-2.6,3.4l0.9,2.6l3.7,1.7l4.3,2.9l2.6,2l1.4,3.4
		l-2.3,2l0.6,2l-1.7,2l-3.2,1.7l-3.4-1.1l-4.6-1.7l-4,2.3l-2.3,0.9l-3.2-1.7l-2.6,1.4l-4-1.4l-4.6-2.3l-4-3.2l-3.2-2.6l-6-2.3
		l-1.4-2.9l-0.6-3.4l-2-2.9l-3.4-3.4l-2.6-3.4l-5.7-0.3c0,0-2,3.7-3.4,3.7s-1.4-2.3-1.4-2.3l-4.6-0.9l-2.6,2v3.4l-1.7,2.3l-2,2.6
		l2,3.2l1.4,4.3l0.9,4l0.3,4.6l-3.7,1.4l-1.7,3.4l-5.2,0.9l-4.9,2l-2.6,1.1l-4.3-2.6l-2.9,0.6l-4,2l-3.7-0.6l-2.3,0.6L237,170
		l-4.3,0.6l-4.3,0.3l-1.7,2l0.3,6.9l-0.9,5.2l-2.3,4.3l-2,4.6l-2.3,3.4l-0.6,2.6l-0.9,5.7l-1.4,2.9l-5.2,0.9l-2.6,0.3l-4,1.4l-2.6,4
		l-1.7,0.6h-2.6l-4-0.3l-2.6-2l-2.6-4.6l-2.3-2.3l-2-2.9l-2.9-2.9l-1.4-4.6l-2.6-0.9l-3.7,2.3h-3.7l1.1-3.2l2.9-1.7l0.6-2.6
		l-3.4-1.4l-1.4-3.7L167,184l-1.7,4l-3.4,3.4l-4.3,2.3l-4.3,0.3l-2.9-2.6v-2.9l-1.7-2.6l-1.1-2.9l-2.3,0.3l-2.9,0.6l-3.7-0.6
		l-2.3-1.1l-0.6,0.3l-2.9,2l-2,2.9l-2,3.2l-2,1.4l-3.2-1.1l0.9-0.9l0.3-3.7l-1.4-5.5v-2.9l3.4-0.3l1.1,1.1l1.1-3.2l2.9-1.4l2.6-2
		l-0.3-4.3l1.1-3.4l0.6-1.7l-0.9-1.4l0.6-1.4L134,159l-1.4-2.9l-1.4-2.6l-1.7-1.7h-1.7l-1.1-2.6V146l-2.6-2.9l-4.3-3.7l-0.9-4.9
		l-1.1-4.6l0.3-4l3.2-0.6l3.7-1.4l-2.6-4.6l-1.7-3.2l-2.9-1.7l-2.3-2.9l-3.4,0.6l-1.4,0.9l-0.9-0.6l-2.6,1.4l-1.4,2.6l-2.3-0.3
		l-2.3,1.4l-2-0.3l-2.3-1.1l-2.6,3.2h-4l-2,1.1l-0.9,2l-2,0.5l-1.9-2.8l-1.4-3.6l-0.2-1.7l2.8-3.3l2.4-0.9l3.8,1.2l1.4,2.4l2.4-1.2
		l1.4-3.1l-1.4-2.1l1.7-2.8l0.5-3.1L95,98.3l-0.9-3.1V94h2.1l1.9-2.1l3.8-3.3l0.5-4l3.3-2.4l1.9-2.1l1.2-4l1.7-1.2l3.1-0.2l4.3-2.1
		l3.1-0.7l2.1,1.2l2.8,0.2l3.1,1.2l1.2,1l1.9-4.3l4.3-2.8l3.8-0.2l4,0.5l2.4-2.4l2.1-2.4l2.8-0.5l1.2-2.8l4.5-1.2l2.8,2.1l2.4-1.2
		l0.2-1.4h2.8l1.9,0.2l1.9-2.4l2.6-2.6l1.4-1l2.4,0.7l2.1,0.5l0.2-3.3l2.4-1h4.3l4.7-0.7l3.6,1.9l1.9,3.6l1.4,2.6h2.6l1.4-1.2
		l2.8,1.2l3.1,3.1l2.4,3.3l1.9,3.6l5-0.2l4.7-0.7l3.1-1.4l2.4-3.8l5.5-1.4l4,2.6l2.6,1l1.7,3.3l3.3,1.2l1.2-1.9l3.6,1.7l4.5-0.2
		l4.5,0.7l4.3,0.5l2.8-1.4l2.6-1.2l0.7,2.1v2.1l2.1,3.3l0.5,2.1l1,2.8l3.1,3.6h3.3l1.9,3.8l3.3,0.5h2.6l1.2-2.1l3.3,0.9l2.6,1.4
		l2.8-1.4l3.6-1.2h1.7l0.5-3.6l-0.7-1.9l-2.1-1.2l0.5-4.3l-1.4-2.6l-3.6-1.9l-1.7-3.1l-1.2-2.4l-0.7-0.9h-2.4l-1.7-3.6l-0.2-3.8
		l-0.3-3.1v-2.5l0.5-3.1l-0.3-2.2l1.4-3l5.1-3l5.3-1.6l0.3-3.8l2.4-5.3l3.8-2.7l0.5-3.1l0.3-3.8l0.7-2.7l1.5-0.3l0.7-2l1.7,1.7
		l1.5,0.2h2l1.5,1.7l1,1.2l0.7,3l1.5,1l3.7,2l1.2,2.5l1,2.7l1.5,3l3.5,2l2.7,2.2l0.3,3l1.5,3l2,2.2l1.5,2.5l-1.7,2.7l-1.2,3.5
		l3.2,1.7l3.7,1.5l1,3.2l1.7,3.5l-0.5,2.7V69l1.7,3l2.2,2.7c0,0,0.7,0.3,2.5,1.2c1.7,1,0.5,1.5,0.5,1.5l3,0.3l2,1l2.7,1.2l2.5,0.3
		l1.7,1.7v3.7l1.7,1.2l1.2,2.2v3"/>
</g>
<g id="layer15" transform="translate(-2.254509,-2.5065422)">
	<path id="path7093" inkscape:connector-curvature="0" class="st4" d="M491.4,532.9l-1.4,0.7l-1.7,0.8l-2.1,3.1l-0.9,1.4l0.9,2.6
		l1.2,1.4l-1.9,3.8l-1.4,2.8l-2.1,3.1l-2.8,2.6l-2.1,1.9l-3.8-0.2l-3.1-1.4l-2.6-1.9l-1.7-3.1l-0.7-2.4l-1.4-1.9l-2.4-1.7l0.7-2.8
		l0.9-0.9l-1.9-0.7l-2.8,0.9h-2.4l-2.6-1.7l-0.7-2.4l2.6-0.9l1.7,0.5l1.2-1.4l-2.4-1.9l-3.1-0.7l-3.3-0.7l-1.9,2.4l-0.5,1.9
		l-0.2,2.4l-1.9,1.2l-1.9,0.2l-1.9-2.1l2.6-1.7l1.9-1.2l-1.7-2.1l-0.2-2.6l1.9-2.6l-2.1-1.2l-1.4-1.2l-2.6-2.8l-2.8-0.2l-2.8,1.4
		l-3.8,0.7l-1.7,2.1l-2.8,1.2l-0.9,1.9l-1.7-0.2l-1.9,2.1l-2.6-0.7l-2.1-1.7l-2.8-0.7h-2.9l-2.6,1.2l-1.2,1l-1.7,0.5l-1.9,1
		l-2.8-0.5l-0.5-1.9l2.1-2.6l-1.9-2.1l-2.4-1.9l-1.7,2.1l0.5,1.9l-2.1,1.4l-3.1,1l-2.6-0.7h-2.6l-1.9,1.9l-2.8-0.5l-0.9-0.2
		l-1.9,1.4l-2.8-0.7l-2.8-1.4l0.9-1.4l-1.2-1.9l-0.5-2.6l0.7-0.5l0.9-3.6l-0.5-3.3l-2.1-2.1l-1.7,1.2l-1.2-2.4l-1.4-2.4l-0.7-0.9
		l-1.7,2.1l-1.2,0.7l-2.6-0.7h-2.4l-3.1,1.2l-1.4-1.4l-3.6-2.8l-2.4-3.6l-2.1-1.2l-1.7-1.2l-1-1.9l-3.6-2.4H337h-2.6l-1.2,0.2
		l-2.6,0.2l-1.9-2.4l0.5-2.4l1.4-1.9l-2.8-2.1l-2.8-2.8l1-3.1l-2.1-2.6l-3.3-1.2l-1.7,0.5l-2.6-1.7l-2.4-2.6l-2.1-0.5h-2.4l-1.9-3.1
		L306,472l-0.9,0.9l0.9,3.1h-1.4l-1.2,1.9l4,2.1l-1,1.7l-1.7,0.7l-0.9,0.5l-1.9,0.2l-1.7-1.4l-0.7-2.8l-2.1-2.4l-1.9-2.8l-3.1,0.2
		l-1.7,2.4H289l-2.4,0.5l-3.1-0.2L283,474l0.5-2.4l-0.5-3.1l-1.4-1.9l-0.2-2.8L279,461l-1.9-1.7c0,0-0.5-1.2-0.7-2.1
		s-1.9-3.3-1.9-3.3l-1.2-0.5l-1.7,0.9l-1.2-0.7l-2.8,1l-3.6-1l-2.1-1.9l-1.9-1.4l-1.9-0.5v-2.6l-1.9-1.7l-2.1-1.4l-1.9-1.2l-1.7-0.7
		v-2.4l1.7-1.9l2.1-1.4l2.6-1.4l1.9,1l3.1,0.2l1.7,2.1l-0.5-4l1.4-2.1l1.2-1.9l2.6,0.7l2.1,0.7l0.8,0.9l1.5,1.7l2,3.7l2.3,2.3
		l2.3,2.9l4.3,0.6l3.7,0.9l3.2,2.3l3.5,1.4l2.6,1.2l2.3-1.2l3.5,2l0.3,3.2l1.4,3.5l3.7,3.7l3.5,0.6l1.4-3.2l1.4-0.3l3.2,2.6l2.6-0.9
		l2.6-3.2l4,0.9l4.3,2l4.3,1.4l5.2,1.7l3.2-0.3h3.2l1.4,0.6l-1.7,2.6l-2.6,3.5l-0.9,3.2l0.3,2.6l2.3,1.2l3.7,2.3l3.7,4.3l4,2.9
		l2,2.9l2,2.6l-1.7,2l3.5,1.7h3.2l4,2.3l2.9,2.3l5.2,0.9l4.9,0.3l5.2,0.9l4.3-0.6h5.2h5.5h4.3l4.6-2.9l4-2l3.5,1.2l3.2,2l0.9,2.6
		l3.7,2.3l4,1.4l3.2-1.4l2.9,0.3l1.4,1.2l2.9,0.3l0.6,2.3l-2,1.2l2.9,2.3l1.7,2l2.6-3.2l2.9-1.7l2.9,1.2l2.9,4l1.7-2l0.9-3.7
		l3.2-3.5l2.3-2.9l4-0.9l4-2l0.9-2.6l2.3-2.9l-0.3-2.9l2.3,0.3l4,2.6l2,4.3l1.7,4.9l1.2,3.7l-0.3,4.6l1.7,5.5l2.6,2l0.9,1.7l-0.3,7
		L491.4,532.9L491.4,532.9z"/>
</g>
<g id="layer16" transform="translate(-2.254509,-2.5065422)">
	<path id="path2214" inkscape:connector-curvature="0" class="st5" d="M340.3,315.3l-2.3,2.3l-1.7,5.2l-2.9,0.6l-2.6,0.3l-0.3,3.7
		l-1.4,2.3h-2.3l-2-1.2l-2.3,1.2l-4,1.2l-1.2,2.6l-3.2,0.3l-2.9,1.4l-1.2,3.5l1.4,1.4l2.9,1.7l0.6,1.4l0.9,1.7l2,0.9l0.9,1.7v3.2
		l0.6,1.7l0.3,3.7l-0.9,2.3l-1.2,1.7v3.2l0.9,3.2l0.9,2l-1.2,2.3l-1.4,1.2l0.9,1.4l1.4,1.7l-0.6,1.4l-1.4,2.9l-1.4-0.9l-0.9,0.3
		l-2,2l-0.6,3.5l1.2,2l0.6,2l-2.3,0.3l-1.4,1.4l-0.6,4.3h-1.7H305l-1.7-0.3l-0.6,1.4l-1.4,4l-3.2,2.6l-4,2.3l-1.2,3.5l-0.9,4.9
		l-2.3,4.6l-2.9,2.6l-2.3-0.6l-0.6-2.6l0.3-4.3l-1.4-0.3l-3.3,0.3h-3.3l-3.6-1.2l-2.6-1.4h-4l-5.2-0.9l-3.1-2.1l-3.6-2.9l-0.7-1.4
		l-3.3,0.2l-2.8,0.2l-4.3-2.4l-2.6-2.8l-3.3-1.9l-3.6-2.1l-5.9-3.1L225,388l-4.3-2.8l-3.1-3.1l-2.8-3.6l-1.2-3.1l-0.9-2.4v-4v-2.4
		l-1.2-2.4l-1.2-3.1l-1.2-2.1l-0.5-3.8l-3.1-0.5l-4-0.5l-2.6-1.4l-2.8-2.1l-3.8-0.7l-3.3-1.4l-2.8-1.7l-2.6-1.2l-2.6,0.5l-0.7,0.8
		l-1.4-2.6v-4l-2.3-3.7l-4.3-2.6l-0.6-2.6l-1.7-0.9l0.3-2.9l1.1-2h-2.9l-4.9-2l-4-1.7l-2-1.1l-1.4-1.1l2-3.2l2.6-4.3l3.2-2l-1.1-4
		l1.1-2.6l2.6-0.3l-0.6-2.9l3.4-2.6l2.6-2.9l1.1-1.7l0.6-4.3l1.1-2l0.8-1.3l0.4-0.7l2.6-1.1l2-2.3l2-0.6l2.6,2.6l2.6,1.4l2.9-1.7
		l1.4-2.3l2.9,0.6l0.9,2.6l1.7,2l2.3,1.4l-0.9,2.9l0.3,2.9l3.4,1.7l2.6,0.3l2,1.1l2.6-3.4l1.1,4.6l2.9-3.2l2.3-0.9l2.9,0.9h1.7
		l0.3,2l2.3-0.6l2,1.1l2-2l-1.1-1.7l0.9-3.4l-2.6-1.4l-0.9-1.4l2.6-1.4V282v-2.3l1.4-1.1l2-2v-4.3l2.9-1.4l1.7-2.6l1.1-2l4-0.9
		l1.1-4l2-1.1l3.2,1.1l2.9-0.9l2.9,1.7l2.6,2.6l2.3-1.1l1.7-2.3l2.6,1.1l2,1.1l2-0.9l1.7-2.3l2.9-0.9l2.3-0.9l2.3-0.9l1.7-1.7h1.7
		l0.3,0.3l1.4,2l-0.3,2l1.4,4l2,2.9l0.3,4.3l2.6,1.7l3.5,1.7l4-0.6l3.2-1.7h3.2h2.9l1.7-2.9l-0.9-2.9l3.7-1.4l3.5-0.6l2.3-0.9
		l1.4,1.7l1.4,2.6l2.3,1.4l1.4,2.3l2.6,3.2h0.9l-1.4,2.9l-0.3,3.5v1.7l2,2.3l0.9,2l2.3,2.3l1.7-0.6l2-0.3l1.7,2.9l0.6,3.2l-1.7,2.6
		l0.3,2.9l4,0.9l0.9,3.5l0.3,1.7l1.4,2l-1.7,2.6l3.5,1.4l2.3,2"/>
</g>
<g id="layer17" transform="translate(-2.254509,-2.5065422)">
	<path id="path3217" inkscape:connector-curvature="0" class="st6" d="M473.7,495.3l-1.2,3.2l-4,2l-4,0.9l-2.3,2.9l-3.2,3.5
		l-0.9,3.7l-1.7,2l-2.9-4l-2.9-1.2l-2.9,1.7l-2.6,3.2l-1.7-2l-2.9-2.3l2-1.2l-0.6-2.3l-2.9-0.3l-1.4-1.2l-2.9-0.3l-3.2,1.4l-4-1.4
		l-3.7-2.3l-0.9-2.6l-3.2-2l-3.5-1.2l-4,2l-4.6,2.9h-4.3h-5.5h-5.2l-4.3,0.6l-5.2-0.9l-4.9-0.3l-5.2-0.9l-2.9-2.3l-4-2.3h-3.2
		l-3.5-1.7l1.7-2l-2-2.6l-2-2.9l-4-2.9l-3.7-4.3l-3.7-2.3l-2.3-1.2l-0.3-2.6l0.9-3.2l2.6-3.5l1.7-2.6l-1.4-0.6h-3.2l-3.2,0.3
		l-5.2-1.7l-4.3-1.4l-4.3-2l-4-0.9l-2.6,3.2l-2.6,0.9l-3.2-2.6l-1.4,0.3l-1.4,3.2l-3.5-0.6l-3.7-3.7l-1.4-3.5l-0.3-3.2l-3.5-2
		l-2.3,1.2l-2.6-1.2l-3.5-1.4l-3.2-2.3l-3.7-0.9l-4.3-0.6l-2.3-2.9L275,438l-2-3.7l-2-2.6l-0.3-2.9l3.1-0.7l2.6-2.1l2.6-2.1l1.9-2.8
		v-3.6l2.1-3.6l-0.2-1.5l1.4,0.3l-0.3,4.3l0.6,2.6l2.3,0.6l2.9-2.6l2.3-4.6l0.9-4.9l1.2-3.5l4-2.3l3.2-2.6l1.4-4l0.6-1.4l1.7,0.3
		l1.4,2.3l3.2,0.3l3.7,1.2l3.5,2.3l0.9,1.7l3.2,0.9h4l6,2l4,0.6l4-2.9l3.5-3.7l2.9-3.5l2.9-4l4.6-3.5h2.9h3.2l4,1.7l3.2,2.3l3.5,3.7
		l3.5,2.3l2.6,4l1.4,2.9l2,0.9l2.3,0.3l0.9,2.3l2.9,0.6l4-2.3l1.2-3.7l0.9-2.6l0.6-1.4l2.3,0.6l1.7,1.2l3.5-0.3l3.2-1.7l4-1.4
		l2.3,0.9l1.2,1.4l2.3-0.3l4,2.6l1.4,2.3l-0.9,3.2l0.9,3.5l2.3,3.7l4.3,1.4l2.6,1.4v2.3l2,1.4l2.6-0.3l2.9-2.6l1.7-0.9l3.2,2.3
		l4.3,1.2l2.6,0.6l2.9-0.6l-2,2.9l-2.3,2l3.2,3.7l2.3,1.4l0.3,2l2.6-0.3l3.5,1.2l-0.6,3.7h-2.6l-2,1.2l-0.3,4l-1.7,1.2l-3.2-1.2
		l-0.9-3.2l-1.4-1.4l-1.7,1.4l-1.7,0.3l-0.9,1.4l1.2,2.6l2.3,1.2l-0.3,4l0.9,2.9l2.9,1.4l2.6-1.4l2.3,1.7l1.7,1.4l4,1.7l2.3,1.4
		l1.7,3.2l1.4,3.2l-2.3,1.2l-1.4,2.9l-1.7,3.7l-2.9,2.3l1.4,2.6l2.6,2.6l2.6,2.9l2.9-1.7l3.5,1.2l3.2,1.4l0.6,3.2l-1.7,1.7l2.6,4.9
		L473.7,495.3L473.7,495.3z"/>
</g>
<g id="layer18" transform="translate(-2.254509,-2.5065422)">
	<path id="path4199" inkscape:connector-curvature="0" class="st7" d="M475.7,493l-2,2.3l-2-1.7l-2.6-4.9l1.7-1.7l-0.6-3.2l-3.2-1.4
		l-3.5-1.2l-2.9,1.7L458,480l-2.6-2.6l-1.4-2.6l2.9-2.3l1.7-3.7l1.4-2.9l2.3-1.2l-1.4-3.2l-1.7-3.2L457,457l-4-1.7l-1.7-1.4
		l-2.3-1.7l-2.6,1.4l-2.9-1.4l-0.9-2.9l0.3-4l-2.3-1.2l-1.2-2.6l0.9-1.4l1.7-0.3l1.7-1.4l1.4,1.4l0.9,3.2l3.2,1.2l1.7-1.2l0.3-4
		l2-1.2h2.6l0.6-3.7l-3.5-1.2l-2.6,0.3l-0.3-2l-2.3-1.4l-3.2-3.7l2.3-2l1-1.6l0.8-1.3l-0.6-2.3l1.7-1.2l1.7-1.7l0.3-3.2l4-1.4
		l1.7-1.7l2.9,1.2l2.6,2l3.5-1.2l3.2-0.3l3.7-0.6l2.3-1.4l1.7-0.3l2-2.3l2.6-0.6l2.9-2l2.3-1.1h4.9l2.6,3.5l3.5,3.2l2.9,2.3l4.3,1.7
		l2.9,2.3l3.7-0.3l3.2,1.4l4.3,0.3h2.6l0.6,0.2l0.4,0.7l3,1.5l1,2.2l-0.7,3.5l1.5,2.7l1,2.7l2,2l2.5,0.7l0.5,1.2l0.5,3l-1.7,2
		l-0.7,2v2.2l-0.3,3l-0.3,3.5l0.5,4.7v4l-1.7-0.7l-2.2-1l-3.7-1.5l-1.2,2.7l1.5,1.7l0.7,1.5l0.7,3.5l1.2,2.2l-0.7,2.7l-3.2,0.7
		l-0.3,2.5l-3,1.5l-2.5-0.7l-3.5-2.2l-2.7,0.5l-2.9,3.4l-4.2,4.6v4.6v3.8v4.2l0.4,5.5l-2.9,2.1l-5.5,4.6l-2.5,5.9l-1.7,7.2l-0.3,1.2
		l-0.9-1.7l-2.6-2l-1.7-5.5l0.3-4.6l-1.2-3.7l-1.7-4.9l-2-4.3l-4-2.6l-2.3-0.3L475.7,493L475.7,493z"/>
</g>
<g id="layer19" transform="translate(-2.254509,-2.5065422)">
	<path id="path5186" inkscape:connector-curvature="0" class="st8" d="M485.5,402.3l-0.6,1.7l-2.9,2l-2.6,0.6l-2,2.3l-1.7,0.3
		l-2.3,1.4l-3.7,0.6l-3.2,0.3l-3.5,1.2l-2.6-2l-2.9-1.2l-1.7,1.7l-4,1.4l-0.3,3.2l-1.7,1.7l-1.7,1.2l0.6,2.3l-2.6,0.6l-2.6-0.6
		l-4.3-1.2l-3.2-2.3l-1.7,0.9l-2.9,2.6l-2.6,0.3l-2-1.4v-2.3l-2.6-1.4l-4.3-1.4l-2.3-3.7l-0.9-3.5l0.9-3.2l-1.4-2.3l-4-2.6l-2.3,0.3
		l-1.2-1.4l-2.3-0.9l-4,1.4l-3.2,1.7l-3.5,0.3l-1.7-1.2l-2.3-0.6l-0.6,1.4l-0.9,2.6l-1.2,3.7l-4,2.3l-2.9-0.6l-0.9-2.3l-2.3-0.3
		l-2-0.9l-1.4-2.9l-2.6-4l-3.5-2.3l-3.5-3.7l-3.2-2.3l-4-1.7h-3.2h-2.9l-4.6,3.5l-2.9,4l-2.9,3.5l-3.5,3.7l-4,2.9l-4-0.6l-6-2h-4
		l-3.2-0.9l-0.9-1.7l-3.5-2.3l-3.7-1.2l-3.2-0.3l-1-0.9l-0.4-1.5h2.9h1.7l0.6-4.3l1.4-1.4l2.3-0.3l-0.6-2l-1.2-2l0.6-3.5l2-2
		l0.9-0.3l1.4,0.9l1.4-2.9l0.6-1.4l-1.4-1.7l-0.9-1.4l1.4-1.2l1.2-2.3l-0.9-2l-0.9-3.2v-3.2l1.2-1.7l0.9-2.3l-0.3-3.7l-0.6-1.7v-3.2
		l-0.9-1.7l-2-0.9l-0.9-1.7l-0.6-1.4l-2.9-1.7l-1.4-1.4l1.2-3.5l2.9-1.4l3.2-0.3l1.2-2.6l4-1.2l2.3-1.2l2,1.2h2.3l1.4-2.3l0.3-3.7
		l2.6-0.3l2.9-0.6l1.7-5.2l2.3-2.3l4.3,0.3l2.6,2.3v2.9l0.6,2.3l2.6-0.6h2.9l1.7-2.6v-2.3l-1.2-3.5l3.7,0.3l1.7,2.9l2.3,3.7l2.3,1.7
		l2.9-1.7l1.4-1.2l3.5,1.2l0.9-2.9l2.6,0.6l2.9,2.6v4l0.6,4.3l1.4,3.7l1.7,3.7l2.9,2.9l4.3,2l4,4.3l5.2,2.6l5.8,1.7l5.2-0.6l5.2-0.3
		h4.9l3.2,1.2l4.3,2.3l4.3,2.9l5.5,1.4l3.7,0.9l3.2,0.6h4.6h2l2.9,4l1.2,1.2l0.6,1.7l2.3,1.2l2.6,0.9l3.2,0.9l2.9,1.7l1.4,3.5
		l-0.3,2.9l3.2,3.7l1.4,4.9l0.9,4l0.9,2.3l0.9,3.7l4,2h3.5l2.6,2.3L485.5,402.3z"/>
</g>
<g id="layer20" transform="translate(-2.254509,-2.5065422)">
	<path id="path6168" inkscape:connector-curvature="0" class="st9" d="M468.7,242.9l1,0.5l3.6,0.6l3.6,2.4l2.1,2.1l2.1,1.2v3.3
		l2.1,1.5l0.3,2.7l1.5,2.4l1.8,0.9l2.7,0.6l0.9,2.7l-1.2,4.2l-0.6,3.9l-0.3,5.7l-3,4.5l-0.6,5.1l-0.3,7.5l-1.2,5.4l0.6,3.6l1.2,2.7
		l1.2,3.9l1.8,2.1l2.4,1.2l2.1,1.5l3.6,3l3,3.6l0.3,4.5l-4.2,0.3l-2.7-1.2l-2.4,0.6l-3.3,2.4l-1.2-1.8l-2.7-1.2l-2.7,0.6l-6,1.5
		l-0.9,3.6l-1.8,4.5l-3,0.3l-0.3,1.2l2.7,0.9l4.5,1.5l0.3,3l1.5,2.1l1.5,2.7l-2.4,1.8l-1.8,2.4l-2.7,1.5l-2.1,1.8l-2.4-1.2h-2.4
		l-1.5,0.3l-2.4-1.5l-1.5-3.6l-2.7-0.9l-3,2.1l-2.4,3.3l-4.5-0.6l-1.2-1.8l-3.9-0.6v2.1l1.5,2.7l-0.9,3l-2-0.1l-3.7-0.9l-5.5-1.4
		l-4.3-2.9l-4.3-2.3l-3.2-1.2h-4.9l-5.2,0.3l-5.2,0.6l-5.8-1.7l-5.2-2.6l-4-4.3l-4.3-2l-2.9-2.9l-1.7-3.7l-1.4-3.7l-0.6-4.3v-4
		l-2.9-2.6l-2.2-0.7l2.4-2.1l1.6-2.7l1.1-3.2l1.3-3.5l1.6-3.7l2.9,1.1l4.3,1.6l2.1,2.4l3.2,0.8l1.6-2.1h2.7h2.9l1.9-1.9l2.1-1.9
		l3.2,1.1l2.4,1.3l2.4,1.3l3.7-0.8l2.7,0.5l2.9,0.3l4.5-0.8h2.7l3.2,0.5l2.7-1.3l1.9-0.8l1.9-3.2l0.5-2.4l1.3-1.3l-0.5-3.2l-1.6-1.3
		l-2.4-0.8l-2.9-0.5l-1.6-2.7v-3.7l-0.8-2.1l-1.1-2.4l-0.8-2.7l2.7-1.1l0.3-4.5l0.3-2.1l3.2-1.6v-3.2l2.4-1.3l0.5-3.7l-0.3-3.5
		l-1.6-3.5l-1.9-2.1l2.9-1.9l5.6-0.5l2.4,1.9l2.9,1.9l4.3-0.8l3.2-3.2l3.5-1.9l2.1,1.1l2.1,0.8l2.9-2.7L468.7,242.9L468.7,242.9z"/>
</g>
<g id="layer21" transform="translate(-2.254509,-2.5065422)">
	<path id="path7154" inkscape:connector-curvature="0" class="st10" d="M522.1,416.9v0.4h-2.6l-4.3-0.3l-3.2-1.4l-3.7,0.3l-2.9-2.3
		l-4.3-1.7l-2.9-2.3l-3.5-3.2l-2.6-3.5h-4.9l-0.9,0.3l-0.9-0.9L484,400l-2.6-2.3H478l-4-2l-0.9-3.7l-0.9-2.3l-0.9-4l-1.4-4.9
		l-3.2-3.7l0.3-2.9l-1.4-3.5l-2.9-1.7l-3.2-0.9l-2.6-0.9l-2.3-1.2l-0.6-1.7l-1.2-1.2l-2.9-4h-2h-4.6l-1.2-0.5l0.9-3l-1.5-2.7v-2.1
		l3.9,0.6l1.2,1.8l4.5,0.6l2.4-3.3l3-2.1l2.7,0.9l1.5,3.6l2.4,1.5l1.5-0.3h2.4l2.4,1.2l2.1-1.8l2.7-1.5l1.8-2.4l2.4-1.8l-1.5-2.7
		l-1.5-2.1l-0.3-3l-4.5-1.5l-2.7-0.9l0.3-1.2l3-0.3l1.8-4.5l0.9-3.6l6-1.5l2.7-0.6l2.7,1.2l1.2,1.8l3.3-2.4l2.4-0.6l2.7,1.2l4.2-0.3
		l-0.3-4.5l-3-3.6l-3.6-3l-2.1-1.5l-2.4-1.2l-1.8-2.1l-1.2-3.9l-1.2-2.7l-0.6-3.6l1.2-5.4l0.3-7.5l0.6-5.1l3-4.5l0.3-5.7l0.6-3.9
		l1.2-4.2l-0.9-2.7l-2.7-0.6l-1.8-0.9l-1.5-2.4l-0.3-2.7l-2.1-1.5v-3.3l-2.1-1.2l-2.1-2.1l-3.6-2.4l-3.6-0.6l-1.2-0.9l1-2.3
		l-0.5-2.9l1.3-1.3l-1.1-2.7l3.2-1.6l0.8-3.2l2.1-1.9l-0.5-2.9l0.5-3.2v-1.9l-1.9-1.6l-0.3-2.4l-1.3-0.8l-0.5-1.9v-1.9l0.3-1.9
		l-1.6-3.7l-0.5-2.7l-1.1-1.9l-0.8-2.4l2.1-2.9l1.1-3.7l1.6-2.7l1.6-1.9l1.1-1.6l-2.4-3.2l0.3-2.9l-1.1-1.6l-0.8-3.5l-0.3-1.6
		l-2.1-0.3l-1.3-3.2L465,167l-1.3-2.7l1.1-2.4l3.2-1.3l2.9-1.1l1.9-1.6l2.9,1.3l4,0.5l3.2-0.3l2.4,0.5l1.1-0.8l-2.4-3.2l-1.3-3.2
		v-3.2l2.4-2.9l1.3-2.4l1.9,1.6l2-2l1.5-2.5l0.7-2.7h2.7l2.2,1.5l3,3.2v2.5l-0.5,3.2l2.7,1.2l3-0.3l2.2,1l1.2,2.5l0.3,3l-0.8,3.7
		l-2.2,3l-3.5,1.7l-1.5,2.5l1.7,2.2l1,3.2v2.5l0.7,4.2l1.2,0.2l0.3,1.7l-1.5,1.2v2.2l2.5,1.7l2.7,2.5l2.5-0.5l3.2,1.2l1-2h2.2l3,0.7
		l4,3.7c0,0,2,1,3,1.7s2.5,1.7,2.5,1.7l3.7,2l1.5-0.3l2.5-1.7l1.7,1l0.7,2.7l2.2,1.5l2.2,1.5l4,1c0,0,2.2,0,3.7,0.5s2.2,1.2,2.2,1.2
		l2.5,3.2l2.2,2.2l1.2-0.5l1.2-1.2l1.7,0.5l1.7-1.5l1-2.2l1-3l2.5,1l1.7,1.7l2.2,1l1.7,1.2l3.5,3l2.7,1.2l3.7,1.5l2,2.5h1.5l4,2
		l3.7,2.5l3,1.7l1.2,2.7l1.5,3l1,2.2l2.5,3.2l2.7,1.5l3,2.5l3.5,1.5l3,1h3l2.7,1l3.2,1.5l2.5,1.2h2.5h3.7l2,1l3,1l2.7,0.5l3,1.5
		l2.2,1.7l0.7,2.7l-0.3,4.2l1.2,3v2.2l-1.5,0.7h-2.2l-3.2-0.3l-3.2,1.5h-3l-1.7-3.5l0.3-3.5l-1.7-1.5l-2,2.2l-2,4.5l-3.2,3.7
		l1.2,3.5v4.2l-3.7,2.5l-1,2.7l-2.7,2l-3.2,1l-1.7,3.2l-4.7,1.5l-0.7,2.7v5l-2,2.7l-3,2.2l-3.7,0.8l-2.7,4l-3,3.5l-5-1.2h-3.7
		l-4.7,2.5l-3.7,3.5L579,315l-0.3,5.2l-1.5,2l-0.3,4.7l-3.2,1l-2.5,3.2l-3.7,2.2l0.5,7.7l-4.5,0.3l-4-1.7l-6.2,0.7l-3.2,2.5
		l-1.7,5.7l-4.5,1.7l-0.5,3.2l1.2,4.2l0.5,2.7l2,1.2l1,2l0.5,2.5l3.5,3.2c0,0,0.7,2,0.7,3s0.2,4.2,0.2,4.2l-2.2,5l-2.5,3.5l-2.5,1.2
		l-2.5,3l-2.5,1.7l1.7,3.2l-0.7,2.5l-3,1.7l-2.2,2.2l-1.5,2.5l-2.7,0.7l-0.2,2.7l0.5,1.5l0.5,2.2l-2.2,0.5l-1.5-2l-3.2-0.7l-4.2,0.7
		l-1.5,2.5l1.2,2.7L522.1,416.9L522.1,416.9z"/>
</g>
<g id="layer22" transform="translate(-2.254509,-2.5065422)">
	<path id="path8146" inkscape:connector-curvature="0" class="st11" d="M311.8,264.3l1.1-4l1.5-2.3l0.4-4.5l0.4-1.9l3.8,1.1h3.4
		l2.6-0.8v-4.2l-3-1.9l-0.8-1.1l1.5-1.1l-0.4-1.1l-3.8-2.6l-3-1.5l-1.1-2.6l0.8-2.6l3.4-0.4l3.8-1.1l1.9-4.2l1.1-5.3l1.1-5.3
		l1.1-3.4l4.2-1.1l3.4-1.1l-0.8-2.6l0.8-4.2l1.5-1.1l1.1-4.2v-3.4l4.5,0.8l4.2-1.9l2.3-3.4l3.8-1.9l2.3-2.3l0.8-3.8l1.5-4.2
		l-2.3-3.8l-3-0.4l-3.4-1.5l-1.5-4.2l-0.4-4.2l-3-1.9H341l-2.6-1.1l-3-0.8l-3.8-0.8l-2-1l2.1-0.9l4-2.3l4.6,1.7l3.4,1.1l3.2-1.7
		l1.7-2l-0.6-2l2.3-2l-1.4-3.4l-2.6-2L342,143l-3.7-1.7l-0.9-2.6l2.6-3.4l1.1-2.9l1.7-2.9l1.1-4.6l-0.3-3.7l-1.4-2.3l-2-1.7l2.6-2.3
		l4.9-1.4l2.3-1.4l0.3-5.5l1.1-4.3l1.1-3.2h5.5l2-2.3l2.9-2l1.4-3.2l0.4,1.4l0.5,3.1h3.5l4-0.5h3l4-1.5l2,2.5l1.5,1.5l1,1.7
		l-0.3,3.2l2.5,1.2l1,1.5l0.7,2.7l1.2,1.7l1.7,1.5l5,1c0,0,1.2,0.3,2.7,0.3s1.7-2.7,1.7-2.7l3.5-0.5l2.5-1l0.3-2.2l3.7-1.5l2.2,0.3
		l3,1l3-0.5l1.5-3.2l3.5-1.5l1.7,1.7l1.5,1.5h2h2l1.7,1.5l2.2,1l3.7-1h3.7l2.2,2.5l2,5l1.7,3.7l2.5,0.5l0.2,1.5l1.7,4.2h3l3.2,1
		l3,1.5l4.2,2l3,1.7l1.2,2l3.2,1.2h2.2l1.2,1.5l2,1.7l1.5,2.7v3l2,1.2l2.5,1.2l1.1-0.1l-1.3,2.4l-2.4,2.9v3.2l1.3,3.2l2.4,3.2
		l-1.1,0.8l-2.4-0.5l-3.2,0.3l-4-0.5l-2.9-1.3l-1.9,1.6l-2.9,1.1l-3.2,1.3l-1.1,2.4l1.3,2.7l2.1,1.9l1.3,3.2l2.1,0.3l0.3,1.6
		l0.8,3.5l1.1,1.6l-0.3,2.9l2.4,3.2l-1.1,1.6l-1.6,1.9l-1.6,2.7l-1.1,3.7l-2.1,2.9l0.8,2.4l1.1,1.9l0.5,2.7l1.6,3.7l-0.3,1.9v1.9
		l0.5,1.9l1.3,0.8l0.3,2.4l1.9,1.6v1.9l-0.5,3.2l0.5,2.9l-2.1,1.9l-0.8,3.2l-3.2,1.6l1.1,2.7l-1.3,1.3l0.5,2.9l-0.8,2.7l-2.4,3.2
		l-2.9,2.7l-2.1-0.8l-2.1-1.1l-3.5,1.9l-3.2,3.2l-4.3,0.8l-2.9-1.9l-2.4-1.9l-5.6,0.5l-2.9,1.9l1.9,2.1l1.6,3.5l0.3,3.5l-0.5,3.7
		l-2.4,1.3v3.2l-3.2,1.6l-0.3,2.1l-0.3,4.5l-2.7,1.1l0.8,2.7l1.1,2.4l0.8,2.1v3.7l1.6,2.7l2.9,0.5l2.4,0.8l1.6,1.3l0.5,3.2l-1.3,1.3
		l-0.5,2.4l-1.9,3.2l-1.9,0.8l-2.7,1.3l-3.2-0.5h-2.7l-4.5,0.8l-2.9-0.3l-2.7-0.5l-3.7,0.8l-2.4-1.3l-2.4-1.3l-3.2-1.1l-2.1,1.9
		l-1.9,1.9h-2.9h-2.7l-1.6,2.1l-3.2-0.8l-2.1-2.4l-4.3-1.6L381,303l-1.6,3.7l-1.3,3.5l-1.1,3.2l-1.6,2.7l-2.4,2.1l-0.4,0.1l-0.9,2.9
		l-3.5-1.2l-1.4,1.2l-2.9,1.7l-2.3-1.7l-2.3-3.7l-1.7-2.9l-3.7-0.3l1.2,3.5v2.3l-1.7,2.6h-2.9l-2.6,0.6l-0.6-2.3v-2.9l-2.6-2.3
		l-3.8-0.5l-0.9-0.5l-1.7-1.7l-3.5-1.4l1.7-2.6l-1.4-2l-0.3-1.7l-0.9-3.5l-4-0.9l-0.3-2.9l1.7-2.6l-0.6-3.2l-1.7-2.9l-2,0.3
		l-1.7,0.6L323,288l-0.9-2l-2-2.3V282l0.3-3.5l1.4-2.9H321l-2.6-3.2l-1.4-2.3l-2.3-1.4l-1.4-2.6L311.8,264.3L311.8,264.3z"/>
</g>
<g id="layer23" transform="translate(-2.254509,-2.5065422)">
	<path id="path9139" inkscape:connector-curvature="0" class="st12" d="M277.5,257.3l-0.5-1.1l-1.4-2.6l-2.3-1.4l-1.1-0.6v-3.7
		l1.1-2.3l-1.1-1.4l-1.1-2V239l-1.7-2.6l-2-0.9V233l-1.1-2.9l-0.6-3.2l1.4-2.6l2.6-3.4v-2.6v-1.4l-2.6-1.4l-1.1-1.4l2-2.3l2.6-1.4
		l1.4-3.2v-4.6l-0.6-3.4l-0.9-3.2l2.6-1.4l2-1.4l0.6-2.6l1.7-2.6l1.4-4.6v-5.2l0.9-4.6v-7.2l1.7-3.7l4-0.3l2-2.6l3.2-1.4l4.6-1.7
		l2.9-2.6l1.1-2.9l-0.3-2.6l0.9-2.3l0.6-1.1l1.4,2.3l6,2.3l3.2,2.6l4,3.2l4.6,2.3l4,1.4l2.6-1.4l3.2,1.7l1.2,0.3l1.1,0.7l3.8,0.8
		l3,0.8l2.6,1.1h2.6l3,1.9l0.4,4.2l1.5,4.2l3.4,1.5l3,0.4l2.3,3.8l-1.5,4.2l-0.8,3.8l-2.3,2.3l-3.8,1.9l-2.3,3.4l-4.2,1.9l-4.5-0.8
		v3.4l-1.1,4.2l-1.5,1.1l-0.8,4.2l0.8,2.6l-3.4,1.1l-4.2,1.1l-1.1,3.4l-1.1,5.3l-1.1,5.3l-1.9,4.2l-3.8,1.1l-3.4,0.4l-0.8,2.6
		l1.1,2.6l3,1.5l3.8,2.6l0.4,1.1l-1.5,1.1l0.8,1.1l3,1.9v4.2l-2.6,0.8h-3.4l-3.8-1.1l-0.4,1.9l-0.4,4.5l-1.5,2.3l-1.5,4.2l-1.9,0.7
		l-3.5,0.6l-3.7,1.4l0.9,2.9l-1.7,2.9h-2.9h-3.2l-3.2,1.7l-4,0.6l-3.5-1.7l-2.6-1.7l-0.3-4.3l-2-2.9l-1.4-4l0.3-2L277.5,257.3
		L277.5,257.3z"/>
</g>
<g id="layer24" transform="translate(-2.254509,-2.5065422)">
	<path id="path10126" inkscape:connector-curvature="0" class="st13" d="M175.6,285.2l-3.7-1.7l-2.9-1.4l-2.3-1.4l0.6-3.4l-0.9-2.6
		l-2.6-3.2l1.1-3.2l2.9-2.6l2-2.9l4-1.4l-0.6-2.9l-2-1.4l-2.3-2l-2.3-2l-4-1.4l-3.4-0.9l-2-0.9l-3.4,0.9l-4-1.7l-3.2-4.9l0.3-4.3
		l0.9-3.2l4.3-1.4l4-3.7l3.4-3.7l3.4-1.7v-2.6l-4-0.9h-5.2l-7.2-2.3l-4-1.4l-4.6-2.3l-4-2l-4,0.9l-2-0.9l-2.9-1.1l-2.9,0.6l-1.4,1.4
		l-3.2-2l-0.6-2l-4.3-2.3l-1.1-2.6l0.6-2l3.7,0.3l2.3,0.9l1.4-2l-1.4-3.2l0.6-3.4l2.9-1.4l0.9-3.2l0.9-1.4l3.2,1.1l2-1.4l2-3.2
		l2-2.9l2.9-2l0.6-0.3l2.3,1.1l3.7,0.6l2.9-0.6l2.3-0.3l1.1,2.9l1.7,2.6v2.9l2.9,2.6l4.3-0.3l4.3-2.3l3.4-3.4l1.7-4l2.9,0.9l1.4,3.7
		l3.4,1.4l-0.6,2.6l-2.9,1.7l-1.1,3.2h3.7l3.7-2.3l2.6,0.9l1.4,4.6l2.9,2.9l2,2.9l2.3,2.3l2.6,4.6l2.6,2l4,0.3h2.6l1.7-0.6l2.6-4
		l4-1.4l2.6-0.3l5.2-0.9l1.4-2.9l0.9-5.7l0.6-2.6l2.3-3.4l2-4.6l2.3-4.3l0.9-5.2l-0.3-6.9l1.7-2l4.3-0.3l4.3-0.6l2.6-3.2l2.3-0.6
		l3.7,0.6l4-2l2.9-0.6l4.3,2.6l2.6-1.1l4.9-2l5.2-0.9l1.7-3.4l3.7-1.4l-0.3-4.6l-0.9-4l-1.4-4.3l-2-3.2l2-2.6l1.7-2.3V134l2.6-2
		l4.6,0.9c0,0,0,2.3,1.4,2.3s3.4-3.7,3.4-3.7l5.7,0.3l2.6,3.4l3.4,3.4l2,2.9l0.6,4l-0.6,1.1l-0.9,2.3l0.3,2.6l-1.1,2.9l-2.9,2.6
		l-4.6,1.7l-3.2,1.4l-2,2.6l-4,0.3l-1.7,3.7v7.2l-0.9,4.6v5.2l-1.4,4.6l-1.7,2.6l-0.6,2.6l-2,1.4l-2.6,1.4l0.9,3.2l0.6,3.4v4.6
		l-1.4,3.2l-2.6,1.4l-2,2.3l1.1,1.4l2.6,1.4v1.4v2.6l-2.6,3.4l-1.4,2.6l0.6,3.2l1.1,2.9v2.6l2,0.9l1.7,2.6v3.2l1.1,2l1.1,1.4
		l-1.1,2.3v3.7l1.1,0.6l2.3,1.4l1.4,2.6h-1.7l-1.7,1.7l-2.3,0.9l-2.3,0.9l-2.9,0.9l-1.7,2.3l-2,0.9l-2-1.1l-2.6-1.1l-1.7,2.3
		l-2.3,1.1l-2.6-2.6l-2.9-1.7L245,262l-3.2-1.1l-2,1.1l-1.1,4l-4,0.9l-1.1,2l-1.7,2.6l-2.9,1.4v4.3l-2,2l-1.4,1.1v2.3v3.7l-2.6,1.4
		l0.9,1.4l2.6,1.4l-0.9,3.4l1.1,1.7l-2,2l-2-1.1l-2.3,0.6l-0.3-2h-1.7l-2.9-0.9l-2.3,0.9l-2.9,3.2l-1.1-4.6l-2.6,3.4l-2-1.1
		l-2.6-0.3l-3.4-1.7l-0.3-2.9l0.9-2.9l-2.3-1.4l-1.7-2l-0.9-2.6l-2.9-0.6l-1.4,2.3l-2.9,1.7l-2.6-1.4l-2.6-2.6l-2,0.6l-2,2.3
		L175.6,285.2z"/>
</g>
<path class="st6" d="M342.1,394.1c0,0,8.5-11.9,13.9-9.7c5.4,2.2,14.6,11.3,14.6,11.3"/>
<path class="st6" d="M398.8,397c0,0,2.9-4.3,4.9-3.4s3.9,3.9,3.9,3.9"/>
<circle class="st14" cx="389.9" cy="225.1" r="3.1"/>
<circle class="st14" cx="532" cy="268" r="3.1"/>
<circle class="st14" cx="453" cy="308" r="3.1"/>
<circle class="st14" cx="383.7" cy="362.3" r="3.1"/>
<circle class="st14" cx="486.3" cy="448.3" r="3.1"/>
<circle class="st14" cx="393.3" cy="451.4" r="3.1"/>
<circle class="st15" cx="188.7" cy="111.8" r="3.1"/>
<circle class="st14" cx="206.7" cy="240.4" r="3.1"/>
<circle class="st14" cx="106.1" cy="178.9" r="3.1"/>
<circle class="st14" cx="203.5" cy="125.8" r="3.1"/>
<circle class="st14" cx="120.3" cy="325.6" r="3.1"/>
<circle class="st14" cx="268.4" cy="334.9" r="3.1"/>
<circle class="st14" cx="345.2" cy="485.7" r="3.1"/>
<circle class="st14" cx="301.7" cy="215.4" r="3.1"/>
<g>
	<text transform="matrix(1 0 0 1 162.7499 114.9003)" class="st16 st17 st18">Uttarkashi</text>
</g>
<text transform="matrix(1 0 0 1 56.8782 166.9529)" class="st16 st17 st18">Dehradun</text>
<text transform="matrix(1 0 0 1 162.7499 232.7271)" class="st16 st17 st18">Tehri Garhwal</text>
<text transform="matrix(1 0 0 1 90.2108 343.09)" class="st16 st17 st18">Haridwar</text>
<text transform="matrix(1 0 0 1 215.6031 322.4999)" class="st16 st17 st18">Pauri Garhwal</text>
<text transform="matrix(1 0 0 1 234.3849 510.9936)" class="st16 st17 st18">Udham Singh Nagar</text>
<text transform="matrix(1 0 0 1 348.3002 440.092)" class="st16 st17 st18">Nainital</text>
<text transform="matrix(1 0 0 1 268.3998 204.9436)" class="st16 st17 st18">Rudraprayag</text>
<text transform="matrix(1 0 0 1 355.0454 248.6891)" class="st16 st17 st18">Chamoli</text>
<text transform="matrix(1 0 0 1 456.1 440.0914)" class="st16 st17 st18">Champawat</text>
<text transform="matrix(1 0 0 1 356.6105 377.6094)" class="st16 st17 st18">Almora</text>
<text transform="matrix(1 0 0 1 393.2999 328.7)" class="st16 st17 st18">Bageshwar</text>
<text transform="matrix(1 0 0 1 497.145 291.1091)" class="st16 st17 st18">Pithoragarh</text>
</svg>
